<?xml version="1.0" standalone="no"?>
<!DOCTYPE svg PUBLIC "-//W3C//DTD SVG 20010904//EN"
 "http://www.w3.org/TR/2001/REC-SVG-20010904/DTD/svg10.dtd">
<svg version="1.0" xmlns="http://www.w3.org/2000/svg"
 width="700.000000pt" height="700.000000pt" viewBox="0 0 700.000000 700.000000"
 preserveAspectRatio="xMidYMid meet">
<metadata>
Created by potrace 1.11, written by Peter Selinger 2001-2013
</metadata>
<g transform="translate(0.000000,700.000000) scale(0.100000,-0.100000)"
fill="#000000" stroke="none">
<path d="M454 6985 c-208 -45 -395 -234 -440 -444 -11 -56 -14 -527 -14 -3037
0 -2091 3 -2988 11 -3030 40 -218 230 -414 448 -460 56 -11 527 -14 3037 -14
2091 0 2988 3 3030 11 221 40 412 229 459 454 22 106 22 5965 0 6070 -47 222
-227 405 -444 451 -96 20 -5993 19 -6087 -1z m2886 -1908 c517 -373 865 -630
864 -639 -1 -15 -450 -618 -460 -618 -3 0 -233 164 -510 365 l-504 365 -70
-35 -70 -35 0 -955 0 -955 -395 0 -395 0 0 1400 0 1400 328 164 c180 91 332
165 337 165 6 1 399 -280 875 -622z m1858 -2032 l2 -1400 -333 -167 -333 -166
-872 626 c-479 345 -871 631 -872 636 0 9 459 626 465 626 2 0 217 -154 477
-343 260 -188 487 -353 505 -365 l32 -23 71 36 70 35 0 955 0 955 393 -2 392
-3 3 -1400z"/>
</g>
</svg>
