<svg xmlns="http://www.w3.org/2000/svg" width="400" height="400" viewBox="0 0 400 400">
  <path fill="#222" d="M0 0h400v400H0V0z"/>
  <path fill="#FFF" d="M248.568 114.33v105.71c0 7.485-3.814 14.626-9.99 18.86-6.197-4.234-9.992-11.375-9.992-18.86V114.33h-57.168v105.71c0 7.485-3.792 14.626-9.992 18.86-6.172-4.234-9.99-11.375-9.99-18.86V114.33h-57.15v105.71c0 29.94 24.353 54.29 54.303 54.29h25.695c8.918 0 17.777-2.254 25.705-6.477a54.587 54.587 0 0 0 25.727 6.477h25.698c29.952 0 54.3-24.352 54.3-54.29V114.33h-57.147zM178.74 265.183l6.14 2.22c-1.232.282-2.485.53-3.75.718l-4.45-1.64c.683-.415 1.38-.85 2.06-1.298zm1.71-1.22c.624-.452 1.257-.903 1.858-1.386l8.508 3.102c-.98.363-1.976.69-3 .977l-7.367-2.692zm3.35-2.667c.57-.48 1.134-.94 1.663-1.44l10.3 3.737c-.83.402-1.665.81-2.493 1.145l-9.47-3.442zm3.032-2.785c.506-.5.984-.984 1.47-1.516l11.67 4.25c-.728.438-1.444.855-2.17 1.274l-10.97-4.008zm2.693-2.89c.47-.528.908-1.062 1.334-1.58l12.802 4.657a39.39 39.39 0 0 1-1.887 1.37l-12.25-4.448zm15.706 1.823l-13.27-4.836c.395-.55.804-1.08 1.17-1.63l13.8 5.01c-.542.507-1.132.978-1.7 1.456zm3.077-2.76l-14.186-5.172a34.49 34.49 0 0 0 1.04-1.672l14.642 5.32c-.49.508-.984 1.024-1.495 1.524zm2.748-2.908l-15.02-5.467c.32-.56.625-1.127.918-1.732l15.383 5.607c-.423.542-.84 1.092-1.28 1.592zm2.377-3l-15.725-5.746c.266-.58.555-1.16.797-1.754l16.084 5.843c-.377.562-.748 1.11-1.156 1.655zm2.114-3.123l-16.394-5.97c.22-.595.46-1.204.682-1.83l16.72 6.088c-.312.587-.656 1.14-1.008 1.712zm4.46-3.47l-.235-.06h-.09c-.11-.018-.22-.02-.375-.02h-.062c-.154 0-.345.002-.578.064-.14.046-.256.065-.39.136-.157.066-.33.148-.514.255l-17.405-6.325c.2-.612.392-1.234.572-1.86l23.103 8.405c-1.382-.093-2.725-.263-4.024-.595zm8.71.484l-27.38-9.982c.155-.624.302-1.25.43-1.89l30.516 11.108c-1.174.327-2.36.604-3.565.764zm-25.852-23.13l20.92 7.605c.208.78.427 1.557.69 2.308l-21.67-7.872c.015-.515.06-1.02.06-1.535v-.503zm4.403-99.482l15.577 5.68v2.066l-19.98-7.285v-.46h4.403zm15.577 1.797v2.064l-10.566-3.86h5.68l4.886 1.797zm0 7.774v2.062l-19.98-7.273v-2.062l19.98 7.274zm0 3.875v2.07l-19.98-7.258v-2.07l19.98 7.257zm0 3.882v2.074l-19.98-7.262v-2.07l19.98 7.258zm0 3.907v2.053l-19.98-7.265v-2.07l19.98 7.28zm0 3.896v2.04l-19.98-7.26v-2.077l19.98 7.296zm0 3.88v2.058l-19.98-7.277v-2.067l19.98 7.285zm0 3.886v2.07l-19.98-7.29v-2.068l19.98 7.288zm0 3.883v2.07l-19.98-7.282v-2.062l19.98 7.275zm0 3.884v2.07l-19.98-7.287v-2.047l19.98 7.263zm0 3.88v2.08l-19.98-7.27v-2.067l19.98 7.258zm0 3.89v2.07l-19.98-7.265v-2.07l19.98 7.266zm0 3.884v2.07l-19.98-7.258v-2.074l19.98 7.262zm0 3.91v2.04l-19.98-7.255v-2.072l19.98 7.285zm0 3.887v2.057l-19.98-7.275v-2.07l19.98 7.29zm0 3.885l.004 2.07-19.983-7.29v-2.072l19.98 7.292zm.004 3.882v2.07l-19.983-7.29v-2.052l19.983 7.272zm0 3.882v2.063l-19.983-7.28v-2.042l19.983 7.26zm0 3.878v2.062l-19.983-7.26v-2.063l19.983 7.26zm0 3.884v2.07l-19.983-7.262v-2.07l19.983 7.262zm0 3.897v2.06l-19.983-7.263v-2.066l19.983 7.27zm0 3.892v2.044l-19.983-7.26v-2.068l19.983 7.284zm0 3.888v2.05l-19.983-7.27v-2.06l19.983 7.28zm0 3.887v2.065l-19.983-7.293v-2.066l19.983 7.293zm0 3.88v1.405c.002.233.044.448.05.687l-20.033-7.313v-2.06l19.983 7.28zm.175 3.955c.09.73.204 1.45.337 2.185l-20.496-7.47v-2.047l20.16 7.332zm2.313 8.622c.397.86.826 1.705 1.295 2.518l-24.06-8.756c.078-.65.13-1.32.18-1.995l22.586 8.234zm2.795 4.894a34.553 34.553 0 0 0 2.33 2.918L202.07 229.09c.11-.657.236-1.306.313-1.97l25.75 9.378zM145.717 121.6v2.043l-9.868-3.59h5.68l4.188 1.548zm0 3.883v2.055l-19.98-7.274v-.21h5.097l14.883 5.43zm0 3.89v2.063l-19.98-7.28v-2.075l19.98 7.294zm0 3.884v2.063l-19.98-7.286v-2.058l19.98 7.28zm0 3.882v2.07l-19.98-7.29v-2.046l19.98 7.265zm0 3.89v2.062l-19.98-7.28v-2.055l19.98 7.273zm0 3.876v2.07l-19.98-7.26v-2.07l19.98 7.26zm0 3.89v2.066l-19.98-7.26v-2.072l19.98 7.265zm0 3.89v2.063l-19.98-7.267v-2.07l19.98 7.274zm0 3.906v2.04l-19.98-7.26V149.3l19.98 7.292zm0 3.88v2.067l-19.98-7.287v-2.067l19.98 7.286zm0 3.886v2.07l-19.98-7.29v-2.068l19.98 7.288zm0 3.884v2.07l-19.98-7.29v-2.045l19.98 7.265zm0 3.883v2.07l-19.98-7.28v-2.052l19.98 7.262zm0 3.883v2.07l-19.98-7.267v-2.06l19.98 7.258zm0 3.885v2.07l-19.98-7.26v-2.07l19.98 7.26zm0 3.897v2.056l-19.98-7.26v-2.07l19.98 7.274zm0 3.897v2.047l-19.98-7.266v-2.062l19.98 7.28zm0 3.884v2.054l-19.98-7.273v-2.06l19.98 7.28zm0 3.89v2.066l-19.98-7.285v-2.07l19.98 7.29zm0 3.878v2.066l-19.98-7.28v-2.062l19.98 7.276zm0 3.888v2.062l-19.98-7.292v-2.033l19.98 7.263zm0 3.878v2.066l-19.98-7.26v-2.072l19.98 7.266zm0 3.887v2.067l-19.98-7.267v-2.062l19.98 7.263zm0 3.882v2.072l-19.98-7.263v-2.073l19.98 7.265zm0 3.906v1.654c.007.14.03.27.035.406l-20.015-7.278v-2.065l19.98 7.283zm.156 3.93c.06.748.186 1.46.305 2.177l-20.44-7.438v-2.07l20.135 7.332zm.688 4.152c.195.775.43 1.55.676 2.306l-21.45-7.806c-.01-.43-.05-.863-.05-1.32v-.78l20.824 7.6zm1.535 4.43c.355.87.785 1.706 1.237 2.517l-22.93-8.328a34.496 34.496 0 0 1-.422-2.22l22.115 8.03zm2.68 4.867a27.56 27.56 0 0 0 2.247 2.9l-25.006-9.11a28.948 28.948 0 0 1-.997-2.422l23.756 8.632zm-16.247 1.864l13.258 4.833a22.688 22.688 0 0 1-13.258-4.832zm17.598 4.584l-20.725-7.546c-.78-.88-1.482-1.83-2.115-2.83l26.26 9.55c-1.126.366-2.27.638-3.42.826zm-3.537 26.003c-26.786 0-48.586-21.785-48.586-48.566v-99.986h19.992v99.987c0 15.768 12.813 28.58 28.593 28.58 5 0 9.933-1.33 14.345-3.892l2.25-1.47c7.37-5.28 11.84-13.826 11.976-22.843v-100.36h19.985v99.986c0 22.19-14.973 41.532-36.422 47.025a48.368 48.368 0 0 1-12.134 1.542zm24.28 0c.626-.316 1.228-.674 1.84-1.016l2.49.903c-.956.07-1.925.113-2.915.113h-1.416zm52.847 0c-6.87 0-13.74-1.496-20.006-4.324a54.762 54.762 0 0 0 15-16.117c1.665.312 3.345.455 5.007.455 5.002 0 9.934-1.33 14.346-3.892l2.273-1.47c7.344-5.28 11.83-13.826 11.95-22.843v-100.36h19.986v99.986c0 22.19-14.97 41.532-36.423 47.025a48.226 48.226 0 0 1-12.133 1.542zm25.698 0h-.753l-.357-.13c.77-.405 1.514-.81 2.254-1.25l3.214 1.173a49.75 49.75 0 0 1-4.36.207zm8.064-.687l-5.022-1.816c.69-.438 1.38-.87 2.053-1.328l6.597 2.406c-1.21.293-2.41.53-3.628.738zm6.45-1.535l-7.78-2.828c.61-.457 1.222-.918 1.836-1.404l8.83 3.21c-.95.37-1.91.725-2.886 1.022zm5.222-1.977l-9.69-3.54c.562-.483 1.093-.976 1.628-1.46l10.496 3.81c-.78.403-1.595.81-2.434 1.19zm4.462-2.28l-11.183-4.062c.5-.51.98-1.01 1.45-1.54l11.842 4.297c-.7.468-1.402.902-2.108 1.305zm3.863-2.478l-12.375-4.5c.438-.53.86-1.054 1.284-1.602l12.947 4.71c-.608.486-1.23.948-1.856 1.392zm3.39-2.65l-13.384-4.88c.384-.525.763-1.095 1.134-1.635l13.906 5.04c-.544.51-1.093 1-1.656 1.476zm3.03-2.783l-14.304-5.207c.354-.547.68-1.137 1.02-1.694l14.73 5.368c-.476.513-.945 1.03-1.445 1.533zm2.66-2.926l-15.094-5.48c.31-.58.592-1.163.903-1.74l15.47 5.635c-.42.524-.844 1.07-1.28 1.586zm2.358-3.026l-15.8-5.738c.254-.61.502-1.207.752-1.8l16.168 5.878c-.355.566-.743 1.11-1.12 1.66zm2.063-3.13l-16.467-6.008c.217-.6.422-1.21.64-1.82l16.815 6.127a83.411 83.411 0 0 1-.987 1.702zm1.795-3.232l-17.106-6.236c.197-.625.356-1.25.526-1.875l17.424 6.346c-.28.593-.555 1.172-.844 1.766zm1.532-3.33l-17.7-6.453c.146-.638.294-1.28.41-1.923l18.01 6.55c-.233.624-.47 1.232-.72 1.825zm1.263-3.433l-18.248-6.66c.092-.626.19-1.29.263-1.953l18.546 6.76c-.17.622-.353 1.238-.562 1.852zm1.018-3.536l-18.812-6.844c.062-.657.093-1.328.125-2.005l19.124 6.964c-.126.634-.282 1.26-.438 1.884zm.737-3.607l-19.347-7.033c.007-.305.016-.61.016-.923v-1.128l19.607 7.125a44.23 44.23 0 0 1-.277 1.96zm.47-3.72l-19.8-7.205v-2.046l19.937 7.237c-.034.684-.094 1.36-.138 2.013zm.2-4.236c0 .145-.008.29-.008.428l-19.993-7.283v-2.062l20 7.28v1.638zm0-3.45l-20-7.286v-2.074l20 7.296v2.065zm0-3.905l-20-7.27v-2.068l20 7.288v2.05zm0-3.893l-20-7.263v-2.067l20 7.284v2.045zm0-3.876l-20-7.265v-2.074l20 7.277v2.063zm0-3.89l-20-7.262v-2.07l20 7.266v2.065zm0-3.882l-20-7.27v-2.062l20 7.262v2.07zm0-3.886l-20-7.28v-2.05l20 7.262v2.068zm0-3.884l-20-7.28v-2.056l20 7.273v2.064zm0-3.883l-20-7.288v-2.07l20 7.29v2.07zm0-3.89l-20-7.28v-2.07l20 7.284v2.067zm0-3.906l-20-7.258v-2.07l20 7.29v2.038zm0-3.882l-20-7.262v-2.074l20 7.273v2.062zm0-3.887l-20-7.26v-2.068l20 7.26v2.068zm0-3.886l-20-7.26v-2.07l20 7.262v2.067zm0-3.884l-20-7.282v-2.047l20 7.266v2.063zm0-3.876l-20-7.296v-2.048l20 7.267v2.077zm0-3.89l-20-7.29v-2.06l20 7.28v2.07zm0-3.89l-20-7.282v-2.07l20 7.288v2.063zm0-3.9l-20-7.265v-2.07l20 7.29v2.046zm0-3.89l-20-7.26v-2.073l20 7.286v2.047zm0-3.883l-20-7.265V129.5l20 7.258v2.07zm0-3.883l-20-7.258v-2.078l20 7.265v2.07zm0-3.882l-20-7.273v-2.063l20 7.265v2.07zm0-3.89l-19.532-7.118h5.66l13.872 5.047v2.07zm0-3.883l-8.862-3.236h5.68l3.183 1.164v2.07z"/>
</svg>
