<svg id="Capa_1" data-name="Capa 1" height="150" width="200" xmlns="http://www.w3.org/2000/svg" viewBox="0 0 186.84 47.4"><defs><style>.cls-1{fill:#fff;}</style></defs><title>logo</title><path class="cls-1" d="M32.85 1.95A23.7 23.7 0 0 0 23.7.15a23.16 23.16 0 0 0-9.15 1.8 17.61 17.61 0 0 0-4 2.25l26.1-.3a12.8 12.8 0 0 0-3.8-1.95zm.25 21.9a10.31 10.31 0 0 1-.75 3.6 8.08 8.08 0 0 1-1.05 1.95l15.45-.15a19 19 0 0 0 .6-5.1c.05-.15-14.2-.3-14.25-.3zm0 0a10.31 10.31 0 0 1-.75 3.6 8.08 8.08 0 0 1-1.05 1.95l15.45-.15a19 19 0 0 0 .6-5.1c.05-.15-14.2-.3-14.25-.3zm13.4-6.15l-15.75-.15a14.86 14.86 0 0 1 1.65 2.55 8.88 8.88 0 0 1 .7 2.85l14.3-.15a27.86 27.86 0 0 0-.9-5.1zm-13.4 6.15a10.31 10.31 0 0 1-.75 3.6 8.08 8.08 0 0 1-1.05 1.95l15.45-.15a19 19 0 0 0 .6-5.1c.05-.15-14.2-.3-14.25-.3zm13.4-6.15l-15.75-.15a14.86 14.86 0 0 1 1.65 2.55 8.88 8.88 0 0 1 .7 2.85l14.3-.15a27.86 27.86 0 0 0-.9-5.1zm-13.4 6.15a10.31 10.31 0 0 1-.75 3.6 8.08 8.08 0 0 1-1.05 1.95l15.45-.15a19 19 0 0 0 .6-5.1c.05-.15-14.2-.3-14.25-.3zm13.4-6.15l-15.75-.15a14.86 14.86 0 0 1 1.65 2.55 8.88 8.88 0 0 1 .7 2.85l14.3-.15a27.86 27.86 0 0 0-.9-5.1zm-13.4 6.15a10.31 10.31 0 0 1-.75 3.6 8.08 8.08 0 0 1-1.05 1.95l15.45-.15a19 19 0 0 0 .6-5.1c.05-.15-14.2-.3-14.25-.3zm13.4-6.15l-15.75-.15a14.86 14.86 0 0 1 1.65 2.55 8.88 8.88 0 0 1 .7 2.85l14.3-.15a27.86 27.86 0 0 0-.9-5.1zm-13.4 6.15a10.31 10.31 0 0 1-.75 3.6 8.08 8.08 0 0 1-1.05 1.95l15.45-.15a19 19 0 0 0 .6-5.1c.05-.15-14.2-.3-14.25-.3zm13.4-6.15l-15.75-.15a14.86 14.86 0 0 1 1.65 2.55 8.88 8.88 0 0 1 .7 2.85l14.3-.15a27.86 27.86 0 0 0-.9-5.1zm-13.4 6.15a10.31 10.31 0 0 1-.75 3.6 8.08 8.08 0 0 1-1.05 1.95l15.45-.15a19 19 0 0 0 .6-5.1c.05-.15-14.2-.3-14.25-.3zm13.4-6.15l-15.75-.15a14.86 14.86 0 0 1 1.65 2.55 8.88 8.88 0 0 1 .7 2.85l14.3-.15a27.86 27.86 0 0 0-.9-5.1zm-13.4 6.15a10.31 10.31 0 0 1-.75 3.6 8.08 8.08 0 0 1-1.05 1.95l15.45-.15a19 19 0 0 0 .6-5.1c.05-.15-14.2-.3-14.25-.3zm13.4-6.15l-15.75-.15a14.86 14.86 0 0 1 1.65 2.55 8.88 8.88 0 0 1 .7 2.85l14.3-.15a27.86 27.86 0 0 0-.9-5.1zm-13.4 6.15a10.31 10.31 0 0 1-.75 3.6 8.08 8.08 0 0 1-1.05 1.95l15.45-.15a19 19 0 0 0 .6-5.1c.05-.15-14.2-.3-14.25-.3zm13.4-6.15l-15.75-.15a14.86 14.86 0 0 1 1.65 2.55 8.88 8.88 0 0 1 .7 2.85l14.3-.15a27.86 27.86 0 0 0-.9-5.1zm-13.4 6.15a10.31 10.31 0 0 1-.75 3.6 8.08 8.08 0 0 1-1.05 1.95l15.45-.15a19 19 0 0 0 .6-5.1c.05-.15-14.2-.3-14.25-.3zm13.4-6.15l-15.75-.15a14.86 14.86 0 0 1 1.65 2.55 8.88 8.88 0 0 1 .7 2.85l14.3-.15a27.86 27.86 0 0 0-.9-5.1zm-13.4 6.15a10.31 10.31 0 0 1-.75 3.6 8.08 8.08 0 0 1-1.05 1.95l15.45-.15a19 19 0 0 0 .6-5.1c.05-.15-14.2-.3-14.25-.3zm13.4-6.15l-15.75-.15a14.86 14.86 0 0 1 1.65 2.55 8.88 8.88 0 0 1 .7 2.85l14.3-.15a27.86 27.86 0 0 0-.9-5.1zm-13.4 6.15a10.31 10.31 0 0 1-.75 3.6 8.08 8.08 0 0 1-1.05 1.95l15.45-.15a19 19 0 0 0 .6-5.1c.05-.15-14.2-.3-14.25-.3zm13.4-6.15l-15.75-.15a14.86 14.86 0 0 1 1.65 2.55 8.88 8.88 0 0 1 .7 2.85l14.3-.15a27.86 27.86 0 0 0-.9-5.1zM30.6 30.15l-.3.3a10.77 10.77 0 0 1-3 2.1 9.75 9.75 0 0 1-7.5 0 8.37 8.37 0 0 1-3-2.1l-.45-.45-15.6-.3a25.85 25.85 0 0 0 1 3.15A31.74 31.74 0 0 0 3.4 36l40.8-.6c.45-.75.9-1.65 1.35-2.55.3-.9.6-1.65.9-2.55zM15 27.45a10.44 10.44 0 0 1-.75-3.75v-.15L0 23.4v.3a26.29 26.29 0 0 0 .75 6l15.45-.15a15 15 0 0 1-1.2-2.1zm30.45-12.9a22.58 22.58 0 0 0-1.65-3.3L3.9 10.7a30.19 30.19 0 0 0-2.1 3.7c-.3.9-.6 1.8-.9 2.55l16.2-.15a8.51 8.51 0 0 1 2.7-1.8 9.75 9.75 0 0 1 7.5 0 9.29 9.29 0 0 1 2.55 1.7l16.2-.15a4.25 4.25 0 0 0-.6-2zM0 23.4l14.25-.15A8.06 8.06 0 0 1 15 20.1a8.51 8.51 0 0 1 1.8-2.7L.9 17.1a21.32 21.32 0 0 0-.9 6.3zm46.5-5.7l-15.75-.15a14.86 14.86 0 0 1 1.65 2.55 8.88 8.88 0 0 1 .7 2.85l14.3-.15a27.86 27.86 0 0 0-.9-5.1zm-13.4 6.15a10.31 10.31 0 0 1-.75 3.6 8.08 8.08 0 0 1-1.05 1.95l15.45-.15a19 19 0 0 0 .6-5.1c.05-.15-14.2-.3-14.25-.3zm13.4-6.15l-15.75-.15a14.86 14.86 0 0 1 1.65 2.55 8.88 8.88 0 0 1 .7 2.85l14.3-.15a27.86 27.86 0 0 0-.9-5.1zm-13.4 6.15a10.31 10.31 0 0 1-.75 3.6 8.08 8.08 0 0 1-1.05 1.95l15.45-.15a19 19 0 0 0 .6-5.1c.05-.15-14.2-.3-14.25-.3zm13.4-6.15l-15.75-.15a14.86 14.86 0 0 1 1.65 2.55 8.88 8.88 0 0 1 .7 2.85l14.3-.15a27.86 27.86 0 0 0-.9-5.1zm-13.4 6.15a10.31 10.31 0 0 1-.75 3.6 8.08 8.08 0 0 1-1.05 1.95l15.45-.15a19 19 0 0 0 .6-5.1c.05-.15-14.2-.3-14.25-.3zm13.4-6.15l-15.75-.15a14.86 14.86 0 0 1 1.65 2.55 8.88 8.88 0 0 1 .7 2.85l14.3-.15a27.86 27.86 0 0 0-.9-5.1zm-13.4 6.15a10.31 10.31 0 0 1-.75 3.6 8.08 8.08 0 0 1-1.05 1.95l15.45-.15a19 19 0 0 0 .6-5.1c.05-.15-14.2-.3-14.25-.3zm13.4-6.15l-15.75-.15a14.86 14.86 0 0 1 1.65 2.55 8.88 8.88 0 0 1 .7 2.85l14.3-.15a27.86 27.86 0 0 0-.9-5.1zm-13.4 6.15a10.31 10.31 0 0 1-.75 3.6 8.08 8.08 0 0 1-1.05 1.95l15.45-.15a19 19 0 0 0 .6-5.1c.05-.15-14.2-.3-14.25-.3zm13.4-6.15l-15.75-.15a14.86 14.86 0 0 1 1.65 2.55 8.88 8.88 0 0 1 .7 2.85l14.3-.15a27.86 27.86 0 0 0-.9-5.1zm-13.4 6.15a10.31 10.31 0 0 1-.75 3.6 8.08 8.08 0 0 1-1.05 1.95l15.45-.15a19 19 0 0 0 .6-5.1c.05-.15-14.2-.3-14.25-.3zm13.4-6.15l-15.75-.15a14.86 14.86 0 0 1 1.65 2.55 8.88 8.88 0 0 1 .7 2.85l14.3-.15a27.86 27.86 0 0 0-.9-5.1zm-13.4 6.15a10.31 10.31 0 0 1-.75 3.6 8.08 8.08 0 0 1-1.05 1.95l15.45-.15a19 19 0 0 0 .6-5.1c.05-.15-14.2-.3-14.25-.3zm13.4-6.15l-15.75-.15a14.86 14.86 0 0 1 1.65 2.55 8.88 8.88 0 0 1 .7 2.85l14.3-.15a27.86 27.86 0 0 0-.9-5.1zm-13.4 6.15a10.31 10.31 0 0 1-.75 3.6 8.08 8.08 0 0 1-1.05 1.95l15.45-.15a19 19 0 0 0 .6-5.1c.05-.15-14.2-.3-14.25-.3zm13.4-6.15l-15.75-.15a14.86 14.86 0 0 1 1.65 2.55 8.88 8.88 0 0 1 .7 2.85l14.3-.15a27.86 27.86 0 0 0-.9-5.1zm-13.4 6.15a10.31 10.31 0 0 1-.75 3.6 8.08 8.08 0 0 1-1.05 1.95l15.45-.15a19 19 0 0 0 .6-5.1c.05-.15-14.2-.3-14.25-.3zm13.4-6.15l-15.75-.15a14.86 14.86 0 0 1 1.65 2.55 8.88 8.88 0 0 1 .7 2.85l14.3-.15a27.86 27.86 0 0 0-.9-5.1zm-13.4 6.15a10.31 10.31 0 0 1-.75 3.6 8.08 8.08 0 0 1-1.05 1.95l15.45-.15a19 19 0 0 0 .6-5.1c.05-.15-14.2-.3-14.25-.3zm13.4-6.15l-15.75-.15a14.86 14.86 0 0 1 1.65 2.55 8.88 8.88 0 0 1 .7 2.85l14.3-.15a27.86 27.86 0 0 0-.9-5.1zm-13.4 6.15a10.31 10.31 0 0 1-.75 3.6 8.08 8.08 0 0 1-1.05 1.95l15.45-.15a19 19 0 0 0 .6-5.1c.05-.15-14.2-.3-14.25-.3zM9.45 42.6a28.49 28.49 0 0 0 5.1 3 23.7 23.7 0 0 0 9.15 1.8 23.16 23.16 0 0 0 9.15-1.8 21.88 21.88 0 0 0 4.5-2.55zM3.6 36.15a23.12 23.12 0 0 0 3.45 4.35 12.1 12.1 0 0 0 2.05 1.8l29.7-.45a14.94 14.94 0 0 0 1.65-1.5 23.5 23.5 0 0 0 3-3.75c.05.15-39.85-.45-39.85-.45zM46.5 17.7l-15.75-.15a14.86 14.86 0 0 1 1.65 2.55 8.88 8.88 0 0 1 .7 2.85l14.3-.15a27.86 27.86 0 0 0-.9-5.1zm-13.4 6.15a10.31 10.31 0 0 1-.75 3.6 8.08 8.08 0 0 1-1.05 1.95l15.45-.15a19 19 0 0 0 .6-5.1c.05-.15-14.2-.3-14.25-.3zm13.4-6.15l-15.75-.15a14.86 14.86 0 0 1 1.65 2.55 8.88 8.88 0 0 1 .7 2.85l14.3-.15a27.86 27.86 0 0 0-.9-5.1zm-13.4 6.15a10.31 10.31 0 0 1-.75 3.6 8.08 8.08 0 0 1-1.05 1.95l15.45-.15a19 19 0 0 0 .6-5.1c.05-.15-14.2-.3-14.25-.3zM40.3 6.9a30 30 0 0 0-2.4-2.1l-28-.45a24.48 24.48 0 0 0-3 2.55 23.87 23.87 0 0 0-3 3.6l39-.6a21 21 0 0 0-2.55-3zm-7.2 16.95a10.31 10.31 0 0 1-.75 3.6 8.08 8.08 0 0 1-1.05 1.95l15.45-.15a19 19 0 0 0 .6-5.1c.05-.15-14.2-.3-14.2-.3zm15.3 19.2v2.65a21.64 21.64 0 0 0 3.6.75 26.73 26.73 0 0 0 3.9.6 45.72 45.72 0 0 0 4.8.3 21.73 21.73 0 0 0 7.35-1 13.6 13.6 0 0 0 4.8-2.85zM76.2 27.9a20.15 20.15 0 0 0-1.8-3.6L53.7 24a8.57 8.57 0 0 0 1.2 1.05 21.93 21.93 0 0 0 3.15 2.4 15.94 15.94 0 0 1 1.65 1.35l16.8-.15a3.85 3.85 0 0 1-.3-.75zM48.45 11.25c0 .6-.15 1.05-.15 1.65a22.47 22.47 0 0 0 .3 3.3l17.1-.3a1.56 1.56 0 0 1-.75-1.2.91.91 0 0 1 .45-.9 1.3 1.3 0 0 1 .9-.45 2.92 2.92 0 0 1 1.2-.15h2.4c.45 0 .9.15 1.2.15s.9.15 1.2.15v-1.8zm21-10.8c-.9-.15-1.8-.15-2.85-.3A23.22 23.22 0 0 0 63.3 0a18.39 18.39 0 0 0-5.85.9 16 16 0 0 0-4.8 2.4.57.57 0 0 0-.3.3l19.95-.3V.9c-.9-.15-1.8-.3-2.85-.45zM51 4.95a13 13 0 0 0-1.5 2.4 12.76 12.76 0 0 0-.9 2.55l23.7-.3V5.25zm20.1 15.6c-1.05-.9-2.1-1.8-2.85-2.55l-.15-.15-18.9-.15a.52.52 0 0 0 .15.3 14.3 14.3 0 0 0 2.4 3.9l.6.6 20.55-.3a18 18 0 0 1-1.8-1.65zm5.85 10.2L61.1 30.6a1.9 1.9 0 0 1 .15.9q0 2.25-3.15 2.25a25.42 25.42 0 0 1-3.45-.15 16.82 16.82 0 0 1-3.15-.6 24 24 0 0 1-3.15-.75v3.15l28.5-.45c0-.6.15-1.2.15-1.95a5.68 5.68 0 0 0-.05-2.25zm-28.5 6v4.95l26.25-.3a11.36 11.36 0 0 0 1.4-2.7c.15-.45.3-1.05.45-1.5.1-.15-28.1-.45-28.1-.45zm60.9-35.7h-9.9l-.6 1.8 11.1-.15zm-16.8 10.8l-15.3-.15 1.35 4.2 15.3-.15-1.35-3.9zm18.3-6l-12.9-.15-1.2 3.75 15.3-.15c-.15-.15-1.2-3.45-1.2-3.45zm2.1 6.3l-17.1-.3-1.2 3.75 19.5-.3-1.2-3.15zm-33.6 6l1.35 4.2 47.55-.6.85-2.85c0-.15-49.75-.75-49.75-.75zm26.7 19.35l1.2 3.45 14.7-.15 1-3zm-22.5-6.6l1.35 4.05 18.75-.3.75-2.1.7 2.15 18.9-.3.9-3c.05.1-41.35-.5-41.35-.5zm24.55 13.05l.75 2.25h11.25l.75-2.1zm-20.35-.25l.9 2.55H99.9l.75-2.4zm-2.1-6.45L87 41.3l14.55-.15 1.2-3.6zm-4.2-12.75l1.35 4 43.3-.6.9-2.85zM119.7 1.1l-.45 1.5 15.3-.15.45-1.35h-15.3zm-2.55 7.95l15.3-.15.9-2.7L118.2 6zm-1 3.3l-1 3.15 15.3-.15.9-2.85zm-25.7-6.8l-15.3-.15 1.35 4.35 15.15-.15a31.93 31.93 0 0 0-1.2-4.05zm-1.5-4.5h-15.3l.75 2.1L89.55 3l-.6-1.95zM137.96 36.28l-2.06-8.08h1.1l1 4.09c.24 1 .46 2 .6 2.79.13-.8.38-1.76.66-2.81l1.08-4.08h1.09l1 4.1c.23 1 .44 1.92.56 2.77.17-.89.4-1.79.65-2.79l1.07-4.08h1.07l-2.29 8.08h-1.09l-1-4.21a24.14 24.14 0 0 1-.53-2.64 25.39 25.39 0 0 1-.62 2.64l-1.15 4.21h-1.09zM146.94 33.57a1.86 1.86 0 0 0 2 2 3.81 3.81 0 0 0 1.61-.3l.18.75a4.7 4.7 0 0 1-1.93.36 2.7 2.7 0 0 1-2.86-2.93c0-1.75 1-3.13 2.72-3.13a2.46 2.46 0 0 1 2.4 2.73 4 4 0 0 1 0 .49h-4.08zm3.09-.75a1.5 1.5 0 0 0-1.46-1.72 1.75 1.75 0 0 0-1.62 1.72h3.08zM152.96 33.57a1.86 1.86 0 0 0 2 2 3.81 3.81 0 0 0 1.61-.3l.18.75a4.71 4.71 0 0 1-1.93.36 2.7 2.7 0 0 1-2.85-2.93c0-1.75 1-3.13 2.72-3.13a2.46 2.46 0 0 1 2.4 2.73 4 4 0 0 1 0 .49h-4.08zm3.09-.75a1.5 1.5 0 0 0-1.46-1.72 1.75 1.75 0 0 0-1.62 1.72h3.13zM159.42 33.14c.14-.2.35-.46.52-.66l1.7-2h1.27l-2.24 2.39 2.55 3.42h-1.28l-2-2.78-.54.6v2.18h-1v-8.52h1v5.37zM164.6 33.57a1.86 1.86 0 0 0 2 2 3.82 3.82 0 0 0 1.61-.3l.18.75a4.69 4.69 0 0 1-1.93.36 2.7 2.7 0 0 1-2.85-2.93c0-1.75 1-3.13 2.72-3.13a2.46 2.46 0 0 1 2.4 2.73 4.05 4.05 0 0 1 0 .49h-4.13zm3.09-.75a1.5 1.5 0 0 0-1.46-1.72 1.75 1.75 0 0 0-1.62 1.72h3.08zM170.02 32.05v-1.57h.94l.06 1a2.13 2.13 0 0 1 1.92-1.09c.8 0 2.05.48 2.05 2.47v3.47h-1.05v-3.39c0-.94-.35-1.72-1.34-1.72a1.5 1.5 0 0 0-1.5 1.08 1.52 1.52 0 0 0-.07.49v3.49h-1.06v-4.23zM181.69 27.77v8.5h-.95v-1a2.15 2.15 0 0 1-2 1.14c-1.4 0-2.48-1.19-2.48-3 0-1.93 1.19-3.12 2.6-3.12a1.94 1.94 0 0 1 1.75.89v-3.41h1.06zm-1.06 5.07a1.9 1.9 0 0 0 0-.44 1.55 1.55 0 0 0-1.53-1.22c-1.09 0-1.74 1-1.74 2.24s.58 2.15 1.72 2.15a1.59 1.59 0 0 0 1.55-1.26 1.88 1.88 0 0 0 0-.46v-1zM183.3 35.21a2.78 2.78 0 0 0 1.39.42.94.94 0 0 0 1.13-.86c0-.5-.3-.78-1.08-1.07a1.86 1.86 0 0 1-1.54-1.64 1.79 1.79 0 0 1 2-1.7 2.91 2.91 0 0 1 1.43.36l-.26.77a2.26 2.26 0 0 0-1.19-.34.85.85 0 0 0-1 .79c0 .48.35.7 1.1 1a1.86 1.86 0 0 1 1.56 1.76c0 1-.79 1.74-2.17 1.74a3.31 3.31 0 0 1-1.63-.4zM143.54 14.03c0 2.78-1.69 4.26-3.75 4.26s-3.63-1.66-3.63-4.1 1.6-4.25 3.75-4.25 3.63 1.7 3.63 4.09zm-6.27.13c0 1.73.94 3.27 2.58 3.27s2.59-1.52 2.59-3.36c0-1.61-.84-3.29-2.58-3.29s-2.59 1.61-2.59 3.39zM144.87 14.25v-1.89h.95v1a2.28 2.28 0 0 1 2.06-1.13c1.4 0 2.46 1.19 2.46 3 0 2.09-1.27 3.12-2.64 3.12a2 2 0 0 1-1.79-.91v3.15h-1v-6.34zm1 1.55a2.43 2.43 0 0 0 0 .43 1.63 1.63 0 0 0 1.58 1.24c1.12 0 1.76-.91 1.76-2.24a1.89 1.89 0 0 0-1.73-2.16 1.68 1.68 0 0 0-1.59 1.31 1.71 1.71 0 0 0-.07.43v1zM152.28 15.45a1.86 1.86 0 0 0 2 2 3.82 3.82 0 0 0 1.61-.3l.21.77a4.7 4.7 0 0 1-1.93.36 2.7 2.7 0 0 1-2.85-2.93c0-1.75 1-3.13 2.72-3.13a2.46 2.46 0 0 1 2.4 2.73 4 4 0 0 1 0 .49h-4.08zm3.09-.75a1.5 1.5 0 0 0-1.46-1.72 1.75 1.75 0 0 0-1.61 1.72h3.08zM157.71 13.93v-1.57h.94l.06 1a2.14 2.14 0 0 1 1.92-1.09c.8 0 2.05.48 2.05 2.47v3.47h-1.05v-3.4c0-.94-.35-1.72-1.34-1.72a1.5 1.5 0 0 0-1.42 1.08 1.52 1.52 0 0 0-.07.49v3.49h-1.05v-4.22zM136.49 25.95a3.7 3.7 0 0 0 1.87.53 1.45 1.45 0 0 0 1.74-1.38c0-.76-.43-1.19-1.52-1.61-1.32-.47-2.13-1.15-2.13-2.29a2.33 2.33 0 0 1 2.61-2.2 3.67 3.67 0 0 1 1.79.4l-.29.85a3.21 3.21 0 0 0-1.54-.38 1.31 1.31 0 0 0-1.52 1.21c0 .76.49 1.13 1.61 1.56 1.37.53 2.06 1.19 2.06 2.37s-.92 2.33-2.83 2.33a4.18 4.18 0 0 1-2.06-.52zM147.84 24.27a2.84 2.84 0 0 1-2.89 3.08 2.76 2.76 0 0 1-2.78-3 2.83 2.83 0 0 1 2.88-3.08 2.75 2.75 0 0 1 2.79 3zm-4.61.06a1.81 1.81 0 1 0 3.53 0c0-1-.49-2.23-1.74-2.23s-1.78 1.13-1.78 2.23zM154.03 25.64v1.58h-.93v-.94a2.18 2.18 0 0 1-2 1.07c-.91 0-2-.5-2-2.54v-3.39h1.06v3.21c0 1.1.34 1.85 1.29 1.85a1.53 1.53 0 0 0 1.39-1 1.55 1.55 0 0 0 .1-.54v-3.52H154v4.22zM155.79 23.23v-1.81h.92v1.14a1.74 1.74 0 0 1 1.61-1.27 1.12 1.12 0 0 1 .3 0v1a1.56 1.56 0 0 0-.36 0 1.48 1.48 0 0 0-1.42 1.36 3 3 0 0 0 0 .49v3.1h-1v-4zM163.73 27.01a3.9 3.9 0 0 1-1.67.34 2.76 2.76 0 0 1-2.89-3 3 3 0 0 1 3.12-3.08 3.54 3.54 0 0 1 1.46.3l-.24.82a2.45 2.45 0 0 0-1.22-.28 2.19 2.19 0 0 0 0 4.37 3 3 0 0 0 1.3-.29zM165.48 24.51a1.86 1.86 0 0 0 2 2 3.82 3.82 0 0 0 1.61-.3l.18.75a4.7 4.7 0 0 1-1.93.36 2.7 2.7 0 0 1-2.85-2.93c0-1.75 1-3.13 2.72-3.13a2.46 2.46 0 0 1 2.4 2.73 4 4 0 0 1 0 .49h-4.08zm3.09-.75a1.5 1.5 0 0 0-1.47-1.72 1.75 1.75 0 0 0-1.62 1.72h3.08z"/></svg>