<?xml version="1.0"?>
<svg xmlns="http://www.w3.org/2000/svg" xmlns:xlink="http://www.w3.org/1999/xlink" viewBox="0 0 195.47 186.64" width="195.47" height="186.64"><defs><style>.cls-1,.cls-11{fill:#202021;}.cls-2{fill:#fff;}.cls-3{fill:#b8e986;}.cls-10,.cls-4{fill:#90796b;}.cls-12,.cls-4,.cls-7,.cls-8{opacity:0.2;}.cls-11,.cls-13,.cls-14,.cls-4,.cls-7,.cls-8{isolation:isolate;}.cls-5{opacity:0.28;}.cls-6{fill:#be1622;}.cls-7{fill:url(#radial-gradient);}.cls-8{fill:url(#radial-gradient-2);}.cls-14,.cls-9{opacity:0.8;}.cls-11{opacity:0.94;}.cls-13{fill:none;stroke:#000;stroke-miterlimit:10;stroke-width:0.5px;opacity:0.7;}.cls-14{fill:#bb7d74;}</style><radialGradient id="radial-gradient" cx="314.74" cy="-149.44" r="11.78" gradientTransform="matrix(0.92, 0, 0, -0.92, -218.9, -32.27)" gradientUnits="userSpaceOnUse"><stop offset="0" stop-color="#e30613"></stop><stop offset="0.12" stop-color="#e4262f"></stop><stop offset="0.34" stop-color="#e65f60"></stop><stop offset="0.55" stop-color="#e88b86"></stop><stop offset="0.74" stop-color="#e9aba2"></stop><stop offset="0.89" stop-color="#eabfb3"></stop><stop offset="1" stop-color="#eac6b9"></stop></radialGradient><radialGradient id="radial-gradient-2" cx="380.44" cy="-149.44" r="11.78" xlink:href="#radial-gradient"></radialGradient></defs><title>alivecarmen_bride</title><g id="Layer_1_copy" data-name="Layer 1 copy"><circle class="cls-1" cx="45.32" cy="112.7" r="13.78"></circle><circle class="cls-1" cx="44.45" cy="91.04" r="13.78"></circle><circle class="cls-1" cx="45.32" cy="70.2" r="13.78"></circle><circle class="cls-1" cx="55.14" cy="51.26" r="13.78"></circle><circle class="cls-1" cx="67.83" cy="38.71" r="13.78"></circle><circle class="cls-1" cx="87.01" cy="32.33" r="13.78"></circle><circle class="cls-1" cx="62.35" cy="134.99" r="13.78"></circle><circle class="cls-1" cx="76.14" cy="148.15" r="13.78"></circle><circle class="cls-1" cx="58.24" cy="148.15" r="13.78"></circle><circle class="cls-1" cx="49.85" cy="134.36" r="13.78"></circle><circle class="cls-1" cx="36.06" cy="125.35" r="13.78"></circle><circle class="cls-1" cx="36.06" cy="109.17" r="13.78"></circle><circle class="cls-1" cx="26.5" cy="95.39" r="13.78"></circle><circle class="cls-1" cx="30.67" cy="77.25" r="13.78"></circle><circle class="cls-1" cx="41.35" cy="88.81" r="13.78"></circle><circle class="cls-1" cx="36.06" cy="68.99" r="13.78"></circle><circle class="cls-1" cx="44.45" cy="46.11" r="13.78"></circle><circle class="cls-1" cx="36.06" cy="52.5" r="13.78"></circle><circle class="cls-1" cx="27.57" cy="67.05" r="13.78"></circle><circle class="cls-1" cx="31.72" cy="110.81" r="13.78"></circle><circle class="cls-1" cx="49.85" cy="141.54" r="13.78"></circle><circle class="cls-1" cx="67.8" cy="149.19" r="13.78"></circle><circle class="cls-1" cx="82.7" cy="151.38" r="13.78"></circle><circle class="cls-1" cx="68.93" cy="151.8" r="13.78"></circle><circle class="cls-1" cx="22.28" cy="79.47" r="13.78"></circle><circle class="cls-1" cx="22.28" cy="53.27" r="13.78"></circle><circle class="cls-1" cx="31.54" cy="37.48" r="13.78"></circle><circle class="cls-1" cx="49.85" cy="27.57" r="13.78"></circle><circle class="cls-1" cx="68.92" cy="18.51" r="13.78"></circle><circle class="cls-1" cx="48.57" cy="38.71" r="13.78"></circle><circle class="cls-1" cx="63.63" cy="31.23" r="13.78"></circle><circle class="cls-1" cx="17.39" cy="92.36" r="13.78"></circle><circle class="cls-1" cx="22.28" cy="109.94" r="13.78"></circle><circle class="cls-1" cx="13.78" cy="70.57" r="13.78"></circle><circle class="cls-1" cx="87.01" cy="24.93" r="13.78"></circle><circle class="cls-1" cx="150.15" cy="112.7" r="13.78"></circle><circle class="cls-1" cx="151.01" cy="91.04" r="13.78"></circle><circle class="cls-1" cx="150.15" cy="70.2" r="13.78"></circle><circle class="cls-1" cx="140.33" cy="51.26" r="13.78"></circle><circle class="cls-1" cx="127.64" cy="38.71" r="13.78"></circle><circle class="cls-1" cx="108.46" cy="32.33" r="13.78"></circle><circle class="cls-1" cx="133.11" cy="134.99" r="13.78"></circle><circle class="cls-1" cx="119.33" cy="148.15" r="13.78"></circle><circle class="cls-1" cx="137.23" cy="148.15" r="13.78"></circle><circle class="cls-1" cx="145.62" cy="134.36" r="13.78"></circle><circle class="cls-1" cx="159.41" cy="125.35" r="13.78"></circle><circle class="cls-1" cx="159.41" cy="109.17" r="13.78"></circle><circle class="cls-1" cx="168.97" cy="95.39" r="13.78"></circle><circle class="cls-1" cx="164.8" cy="77.25" r="13.78"></circle><circle class="cls-1" cx="154.12" cy="88.81" r="13.78"></circle><circle class="cls-1" cx="159.41" cy="68.99" r="13.78"></circle><circle class="cls-1" cx="151.01" cy="46.11" r="13.78"></circle><circle class="cls-1" cx="159.41" cy="52.5" r="13.78"></circle><circle class="cls-1" cx="167.9" cy="67.05" r="13.78"></circle><circle class="cls-1" cx="163.75" cy="110.81" r="13.78"></circle><circle class="cls-1" cx="145.62" cy="141.59" r="13.78"></circle><circle class="cls-1" cx="127.66" cy="149.19" r="13.78"></circle><circle class="cls-1" cx="112.77" cy="151.38" r="13.78"></circle><circle class="cls-1" cx="126.55" cy="151.81" r="13.78"></circle><circle class="cls-1" cx="173.19" cy="79.47" r="13.78"></circle><circle class="cls-1" cx="173.19" cy="53.27" r="13.78"></circle><circle class="cls-1" cx="163.93" cy="37.48" r="13.78"></circle><circle class="cls-1" cx="145.62" cy="27.57" r="13.78"></circle><circle class="cls-1" cx="126.55" cy="18.51" r="13.78"></circle><circle class="cls-1" cx="146.9" cy="38.71" r="13.78"></circle><circle class="cls-1" cx="131.84" cy="31.23" r="13.78"></circle><circle class="cls-1" cx="178.08" cy="92.36" r="13.78"></circle><circle class="cls-1" cx="173.19" cy="109.94" r="13.78"></circle><circle class="cls-1" cx="181.68" cy="70.57" r="13.78"></circle><circle class="cls-1" cx="115.52" cy="31.99" r="20.84"></circle><polygon class="cls-2" points="65.83 186.64 65.83 171.92 85.67 158.06 115.14 158.06 135.16 171.71 135.16 186.64 65.83 186.64"></polygon><path class="cls-3" d="M114.83,156.07V121.23h-29v36c0,6.43,6.53,11.64,14.57,11.64s14.57-5.21,14.57-11.64A9.39,9.39,0,0,0,114.83,156.07Z"></path><path class="cls-4" d="M85.81,140.57v9.66c3.45,6,8.72,9.84,14.63,9.84s11-3.69,14.43-9.49v-10Z"></path><g class="cls-5"><path class="cls-6" d="M87.05,150.24a1,1,0,0,1,.23-.13,1.82,1.82,0,0,1,.33,0,1.77,1.77,0,0,0,.56-.09.54.54,0,0,1,.43,0c.17.06.32.12.48,0s.17,0,.26-.06a3.68,3.68,0,0,0,.58-.07c.16,0,.18,0,.21.14s0,.19.06.29h.06a1.22,1.22,0,0,0,0-.27c0-.13,0-.2.17-.21s.5-.13.75,0h.11l0,.16c.07-.31.48-.33.75,0V150l.2.07h.11c.28,0,.4.13.38.41v.13l.16-.12.2.45a.81.81,0,0,1,1-.1l-.22.24h0l.18-.11c.13-.09.2-.06.25.09a.31.31,0,0,0,.09.11l.11.06c.28.2.28.27,0,.48l-.11.12c.2,0,.32-.27.5-.12s.28.21.23.37c.1.12.19.21.26.31a4.1,4.1,0,0,1,.56.86c.07.18.2.31.26.49a4.16,4.16,0,0,0,.24.47c.12.23.24.45.34.68v.29l-.28-.07a.18.18,0,0,1-.1-.07c-.14-.26-.41-.33-.64-.45l-.18-.11.14-.14c-.18,0-.41.07-.56,0s-.38-.15-.34-.42a.46.46,0,0,1-.58-.26c-.11-.26.23-.31.36-.53l-.3.16a.56.56,0,0,1-.75,0l.24-.52c-.25.23-.44.62-.89.32l.28-.59h0l-.21.33c0,.08-.08.16-.13.24a.62.62,0,0,1-.17.11,1.19,1.19,0,0,1-.08-.2v-.12a1.76,1.76,0,0,1-.3.24h-.22a.67.67,0,0,1,0-.2c.06-.17.14-.32.21-.49s0-.12.06-.18h0l-.12.16-.28.51c-.09.16-.18.16-.28,0s-.19-.24-.28-.37a.6.6,0,0,1-.07-.32,1.61,1.61,0,0,1,.1-.36l-.29.31-.12-.3h0l-.33-.17a2.53,2.53,0,0,0-.37-.18c-.27-.07-.28-.07-.26-.34a.22.22,0,0,0,0-.16c0,.09-.09.18-.12.27s-.09.18-.21.13a.19.19,0,0,1-.15-.22s0,0,0,0a1,1,0,0,0,0-.25c-.36.47-.38.48-.54.25-.21.06-.22,0-.26-.17s0-.16-.08-.28l-.13.18a.91.91,0,0,0-.07.14.48.48,0,0,1-.52-.32,1.66,1.66,0,0,0-.31-.12.69.69,0,0,1-.39-.08,1.45,1.45,0,0,1-.26-.17Z"></path><path class="cls-6" d="M93.54,156.38v-.28c-.18.41-.6.39-.94.54v-.18a2.91,2.91,0,0,1-.33.26c-.16.1-.23.06-.28-.15l-.29.07c-.2,0-.25,0-.19-.2s.07-.19.11-.32c-.19.16-.2.51-.53.44a.25.25,0,0,1-.27-.28c-.48,0-.64-.13-.52-.53-.16.23-.31.34-.53.18s0-.26,0-.43l-.15.11c-.08,0-.21.08-.24,0a.34.34,0,0,1-.06-.26,1.33,1.33,0,0,1,.13-.33h0l-.13.23c-.1.16-.22.19-.31,0s-.58-.55-.65-1a.26.26,0,0,0-.09-.16.53.53,0,0,1-.15-.57c-.18.08-.22,0-.2-.16a.32.32,0,0,0-.14-.36c-.06,0-.08-.14-.1-.22s-.13-.43-.18-.65a1,1,0,0,1,0-.25c-.18-.36-.35-.7-.52-1v-.13h.25a3.86,3.86,0,0,1,.43.5.35.35,0,0,0,.11.1c.28.09.34.25.18.5a.21.21,0,0,0,0,.11c.26-.26.52-.12.78,0a1.64,1.64,0,0,0,.51.13v.07l-.25.12h.14a3.91,3.91,0,0,1,.48.05c.07,0,.12.1.22.19a.46.46,0,0,1,.46.2,1.52,1.52,0,0,0,.35.23c.12.08.16.18,0,.31l-.31.28,0,.06a1.33,1.33,0,0,1,.19-.14,1.2,1.2,0,0,1,.37-.15c.17,0,.24.09.2.26h.28c.2,0,.24.09.18.28s-.09.24-.13.36a.31.31,0,0,0,0,.19c.19-.16.18-.42.29-.62.32.07.34.1.32.48.13-.08,0-.36.25-.34a1.13,1.13,0,0,1,.39.17h0l.56.06h0a.62.62,0,0,1,.23.07c.06,0,.08.12.12.19h0l.11-.26a3.89,3.89,0,0,1,.42.19c.14.08.06.1.09.15.23-.12.27-.12.47.07h0l.63.26a.36.36,0,0,1,.24.11.44.44,0,0,0,.46.14,1.69,1.69,0,0,1,.45,0,.11.11,0,0,1,0,.22,7.3,7.3,0,0,1-.79.26.15.15,0,0,1-.12-.08c-.12.27-.38.23-.61.27l-.26.08-.13.07-1,.29Zm-2.61-.24h0l.28-.61h0Zm1.74-1.74h-.08v.49h.08Z"></path><path class="cls-6" d="M90.94,156.14l.29-.61h0l-.28.61Z"></path><path class="cls-6" d="M92.68,154.4v.49H92.6v-.49Z"></path></g><path class="cls-3" d="M121.05,55.78c-10.18-3.63-18-.68-18-.68h-.49l-.54-.18-.54.18h-.43s-7.79-3-18,.68c-25.62,9.14-20.37,46.79-12.58,73.37s55.39,26.58,63.17,0S146.71,64.93,121.05,55.78Z"></path><path class="cls-3" d="M71.47,56.33c4.27-3.32,7.74-.62,7.74-.62s-5,22.33-5,44.21c0,26.43,13,46.14,12.76,46.14-5.8,0-19.09-10.56-20.73-22.7C62.94,99.08,60.73,64.69,71.47,56.33Z"></path><circle class="cls-7" cx="71.4" cy="106.14" r="10.87"></circle><circle class="cls-8" cx="131.84" cy="106.14" r="10.87"></circle><circle class="cls-1" cx="83.81" cy="45.11" r="13.78"></circle><circle class="cls-1" cx="77.41" cy="52.5" r="13.78"></circle><circle class="cls-1" cx="65.83" cy="55.42" r="13.78"></circle><circle class="cls-1" cx="56.24" cy="76.71" r="13.78"></circle><circle class="cls-1" cx="51.14" cy="95.92" r="13.78"></circle><circle class="cls-1" cx="51.14" cy="105.56" r="13.78"></circle><circle class="cls-1" cx="54.24" cy="116.21" r="13.78"></circle><circle class="cls-1" cx="126.55" cy="52.5" r="13.78"></circle><circle class="cls-1" cx="134.25" cy="55.42" r="13.78"></circle><circle class="cls-1" cx="143.84" cy="76.71" r="13.78"></circle><circle class="cls-1" cx="150.15" cy="106.14" r="13.78"></circle><circle class="cls-1" cx="100.79" cy="48.63" r="13.78"></circle><circle class="cls-1" cx="98.98" cy="13.78" r="13.78"></circle><circle class="cls-1" cx="83.81" cy="17.44" r="13.78"></circle><circle class="cls-1" cx="116.27" cy="18.55" r="13.78"></circle><circle class="cls-1" cx="148.94" cy="95.92" r="13.78"></circle><circle class="cls-1" cx="147.84" cy="116.21" r="13.78"></circle><g class="cls-9"><path class="cls-10" d="M98.87,113.62a6,6,0,0,1-3-.28c-.54-.42-.27-1.73.64-1.65a5,5,0,0,1,2.33,1.14C99.05,113.07,99.05,113.51,98.87,113.62Z"></path><path class="cls-10" d="M101.12,113.62a6,6,0,0,0,3-.28c.54-.42.27-1.73-.64-1.65a5,5,0,0,0-2.33,1.14C100.88,113.07,100.91,113.51,101.12,113.62Z"></path></g><path class="cls-11" d="M83.45,83.74a12.31,12.31,0,0,0-1.92-.26l-1-.06c-.33,0-.67,0-1,.07a12.31,12.31,0,0,0-2,.26c-.64.17-1.29.3-1.9.51a16.32,16.32,0,0,0-1.75.66c-.54.26-1.07.48-1.56.7-.95.48-1.75.91-2.3,1.23l-.87.52a11.57,11.57,0,0,1,2.5-2.77,11.91,11.91,0,0,1,1.48-1.08,12.78,12.78,0,0,1,1.81-1,14.23,14.23,0,0,1,2.1-.76,14.73,14.73,0,0,1,2.3-.39,9.29,9.29,0,0,1,1.18,0l1.17.1a11.38,11.38,0,0,1,4.13,1.33,8.2,8.2,0,0,1,1.55,1,7,7,0,0,1,1.18,1c.32.33.58.64.79.88.43.5.65.79.65.79s-.35-.16-.92-.46c-.28-.15-.63-.33-1-.55a11.15,11.15,0,0,0-1.32-.6,11,11,0,0,0-1.56-.61"></path><path class="cls-11" d="M123,83.74a12.31,12.31,0,0,0-1.92-.26l-1-.06c-.33,0-.67,0-1,.07a12.31,12.31,0,0,0-2,.26c-.64.17-1.29.3-1.9.51a16.32,16.32,0,0,0-1.75.66c-.54.26-1.07.48-1.56.7-1,.48-1.75.91-2.3,1.23l-.87.52a11.57,11.57,0,0,1,2.5-2.77,11.91,11.91,0,0,1,1.48-1.08,12.78,12.78,0,0,1,1.81-1,14.23,14.23,0,0,1,2.1-.76,14.73,14.73,0,0,1,2.3-.39,9.29,9.29,0,0,1,1.18,0l1.17.1a11.38,11.38,0,0,1,4.13,1.33,8.2,8.2,0,0,1,1.55,1,7,7,0,0,1,1.18,1c.32.33.58.64.79.88.43.5.65.79.65.79s-.35-.16-.92-.46c-.28-.15-.63-.33-1-.55a11.15,11.15,0,0,0-1.32-.6,11,11,0,0,0-1.56-.61"></path><circle class="cls-11" cx="82.66" cy="91.89" r="5.24"></circle><g class="cls-12"><circle class="cls-2" cx="81.39" cy="89.25" r="1.78"></circle></g><circle class="cls-11" cx="118.55" cy="91.89" r="5.24"></circle><path class="cls-4" d="M73.74,95a6,6,0,0,0,.57.42,6.44,6.44,0,0,0,.72.4c.29.13.62.28,1,.43a9.8,9.8,0,0,0,1.2.37,10.52,10.52,0,0,0,1.38.27c.48,0,1,.09,1.5.1a13.57,13.57,0,0,0,1.56-.07,11.38,11.38,0,0,0,1.54-.2,12.59,12.59,0,0,0,1.48-.32c.47-.14.94-.24,1.36-.39l1.19-.44c.75-.26,1.33-.57,1.76-.74l.66-.29.08.17s-.18.23-.52.59c-.18.18-.39.4-.65.62a5.7,5.7,0,0,1-.91.71c-.35.24-.73.49-1.16.73a10.27,10.27,0,0,1-1.39.64,9.63,9.63,0,0,1-1.58.49,13.87,13.87,0,0,1-1.71.29,17,17,0,0,1-1.75,0,4.12,4.12,0,0,1-.86-.1c-.28,0-.56-.09-.83-.16A7.58,7.58,0,0,1,76.86,98a7.32,7.32,0,0,1-1.26-.69A6.42,6.42,0,0,1,74,95.86a3.46,3.46,0,0,1-.32-.52,1.11,1.11,0,0,1-.09-.19Z"></path><path class="cls-4" d="M73.43,89a9.88,9.88,0,0,1,2.18-1.37,14.27,14.27,0,0,1,2.46-.92,12.31,12.31,0,0,1,1.46-.33c.5-.1,1-.13,1.54-.2a11.6,11.6,0,0,1,1.56,0,15.16,15.16,0,0,1,1.51.17,9.43,9.43,0,0,1,1.39.35,8.22,8.22,0,0,1,1.19.48c.36.19.66.38.94.54a5.49,5.49,0,0,1,.65.52c.34.31.52.49.52.49l-.06.1-.6-.31a6.44,6.44,0,0,0-.7-.34l-1-.34c-.35-.12-.75-.18-1.16-.29a12.89,12.89,0,0,0-1.31-.19,17.31,17.31,0,0,0-2.88,0,26.1,26.1,0,0,0-5.33,1,23.7,23.7,0,0,0-2.33.8Z"></path><path class="cls-4" d="M111.48,95a6,6,0,0,0,.57.42,6.44,6.44,0,0,0,.72.4c.29.13.62.28,1,.43a9.8,9.8,0,0,0,1.2.37,10.52,10.52,0,0,0,1.38.27c.48,0,1,.09,1.5.1a13.57,13.57,0,0,0,1.56-.07,11.38,11.38,0,0,0,1.54-.2,12.59,12.59,0,0,0,1.48-.32c.47-.14.94-.24,1.36-.39l1.19-.44c.75-.26,1.33-.57,1.76-.74l.66-.29.08.17s-.18.23-.52.59c-.18.18-.39.4-.65.62a5.7,5.7,0,0,1-.91.71c-.35.24-.73.49-1.16.73a10.27,10.27,0,0,1-1.39.64,9.63,9.63,0,0,1-1.58.49,13.87,13.87,0,0,1-1.71.29,17,17,0,0,1-1.75,0,4.12,4.12,0,0,1-.86-.1c-.28,0-.56-.09-.83-.16A7.58,7.58,0,0,1,114.6,98a7.32,7.32,0,0,1-1.26-.69,6.42,6.42,0,0,1-1.56-1.47,3.46,3.46,0,0,1-.32-.52,1.11,1.11,0,0,1-.09-.19Z"></path><path class="cls-4" d="M111.31,89a9.88,9.88,0,0,1,2.18-1.37,14.27,14.27,0,0,1,2.46-.92,12.31,12.31,0,0,1,1.46-.33c.5-.1,1-.13,1.54-.2a11.6,11.6,0,0,1,1.56,0,13.2,13.2,0,0,1,1.54.18,9.43,9.43,0,0,1,1.39.35,8.22,8.22,0,0,1,1.19.48c.36.19.66.38.94.54a5.49,5.49,0,0,1,.65.52c.34.31.52.49.52.49l-.06.1-.6-.31a6.44,6.44,0,0,0-.7-.34l-.95-.34c-.35-.12-.75-.18-1.16-.29a12.89,12.89,0,0,0-1.31-.19,17.31,17.31,0,0,0-2.88,0,26.1,26.1,0,0,0-5.33,1,23.7,23.7,0,0,0-2.33.8Z"></path><g class="cls-12"><circle class="cls-2" cx="117.27" cy="89.25" r="1.78"></circle></g><path class="cls-13" d="M73.74,95a6,6,0,0,0,.57.42,6.44,6.44,0,0,0,.72.4c.29.13.62.28,1,.43a9.8,9.8,0,0,0,1.2.37,10.52,10.52,0,0,0,1.38.27c.48,0,1,.09,1.5.1a13.57,13.57,0,0,0,1.56-.07,11.38,11.38,0,0,0,1.54-.2,12.59,12.59,0,0,0,1.48-.32c.47-.14.94-.24,1.36-.39l1.19-.44c.75-.26,1.33-.57,1.76-.74l.66-.29"></path><path class="cls-13" d="M111.48,95a6,6,0,0,0,.57.42,6.44,6.44,0,0,0,.72.4c.29.13.62.28,1,.43a9.8,9.8,0,0,0,1.2.37,10.52,10.52,0,0,0,1.38.27c.48,0,1,.09,1.5.1a13.57,13.57,0,0,0,1.56-.07,11.38,11.38,0,0,0,1.54-.2,12.59,12.59,0,0,0,1.48-.32c.47-.14.94-.24,1.36-.39l1.19-.44c.75-.26,1.33-.57,1.76-.74l.66-.29"></path></g><g id="Layer_7" data-name="Layer 7"><path class="cls-14" d="M110.28,126.07a.25.25,0,0,0-.35,0,.18.18,0,0,0-.05.07,2.07,2.07,0,0,1-.79.71,20,20,0,0,1-4.28-2.39,2.88,2.88,0,0,0-3.25,0,1.45,1.45,0,0,1-1,.37h0a1.47,1.47,0,0,1-1.06-.37,2.88,2.88,0,0,0-3.25,0,20,20,0,0,1-4.28,2.39,2,2,0,0,1-.78-.71.25.25,0,0,0-.33-.13.18.18,0,0,0-.07,0,.41.41,0,0,0-.07.49,2.4,2.4,0,0,0,1.94,1.17h.1c1-.08,1.89-.21,2.82-.38a16.68,16.68,0,0,1,4.93-.4h.11a16.68,16.68,0,0,1,4.93.4c.93.17,1.87.3,2.82.38h.1a2.42,2.42,0,0,0,1.94-1.17A.4.4,0,0,0,110.28,126.07Z"></path><path class="cls-14" d="M106.35,128.76c-.89.42-1.69,1-2.32,1.31a8.92,8.92,0,0,1-3.8.84,9.39,9.39,0,0,1-3.8-.84c-.62-.35-1.43-.89-2.32-1.31-1.13.62-1.8,1.41-1.8,2.27,0,2,3.55,5,7.92,5s7.92-3,7.92-5A2.81,2.81,0,0,0,106.35,128.76Z"></path></g><g id="peluca_con_fondo"><path class="cls-2" d="M151.48,97.17a8.09,8.09,0,0,0,3.13-5.81c.2-1.9-.7-5.36-.26-7.74a12.53,12.53,0,0,0,3.06.46,14.64,14.64,0,0,0,4.75-1,7.94,7.94,0,0,0,5.41-6.52c.68-3.85-.27-8.18-.94-12-.46-2.56-1.79-6.53-1.69-9.6,6.51.9,16.61,8.59,19.06-1.43.79-3.23-.1-6.54-.93-9.79a13.79,13.79,0,0,0-5.73-3.62,14,14,0,0,0,.26-2.69,13.7,13.7,0,0,0-2.88-8.41,7.39,7.39,0,0,0-1.48,1.9c-1.54,2.81-1.46,6.53-1.05,9.6.26,2,1.19,4.47,1.71,6.85l-1.59-.51c-1.47-.51-2.92-1.09-4.42-1.48-2.85-.72-6.7-1.42-9.39.3-5.88,3.75-2.73,15.23-1.73,20.69.21,1.12,1.71,6.23.94,6.94-1.13,1-2.31-.09-3.61-.23-3-.33-5.71.32-7.43,3.1s-2.32,7.42-2.28,10.77c0,.77.08,1.55.16,2.32-1.81.89-4.38.08-6.08-.52a5,5,0,0,0-1.84-.29l.44.26a13.61,13.61,0,0,0-1.77,9.73,4.4,4.4,0,0,0,.5.21C140.72,100.44,147.11,100.48,151.48,97.17Z"></path><path class="cls-2" d="M55.45,90.09c.08-.74.14-1.49.16-2.24,0-3.22-.48-7.56-2.27-10.37s-4.38-3.3-7.4-3c-1.3.13-2.48,1.23-3.6.22-.76-.68.73-5.6.94-6.68,1-5.26,4.14-16.31-1.72-19.92-2.68-1.65-6.52-1-9.36-.28-1.49.37-2.94.93-4.39,1.42l-1.6.49c.53-2.29,1.45-4.7,1.71-6.59.4-2.95.49-6.53-1-9.25-1.33-2.35-3.68-3.52-6.38-4.08a13.69,13.69,0,0,0-2.59,8,13.38,13.38,0,0,0,.13,1.8h.38A18.19,18.19,0,0,0,18,41.85c-.55,4.5-3,9.24-1.88,13.83,2.43,9.65,12.5,2.24,19,1.38.1,3-1.22,6.78-1.68,9.24-.67,3.65-1.61,7.81-.94,11.52a7.73,7.73,0,0,0,5.39,6.28,14.69,14.69,0,0,0,4.73.94,12.84,12.84,0,0,0,3-.44c.44,2.29-.46,5.62-.26,7.45a7.76,7.76,0,0,0,3.12,5.6c4.35,3.18,10.71,3.14,15.61,1.48a5.69,5.69,0,0,0,.66-.28,13.39,13.39,0,0,0,.25-2.56,13.73,13.73,0,0,0-1.93-7,4.93,4.93,0,0,0-1.63.29C59.81,90.17,57.25,91,55.45,90.09Z"></path></g></svg>