<?xml version="1.0"?>

<svg width="316" height="266" viewBox="0 0 316 266" version="1.1" xmlns="http://www.w3.org/2000/svg" xmlns:xlink="http://www.w3.org/1999/xlink">  <title>Shape</title> <desc>Created with Sketch.</desc> <defs></defs> <g id="Page-1" stroke="none" stroke-width="1" fill="none" fill-rule="evenodd"> <path d="M67,107.16258 C64.1,104.252735 60.2,102.647303 56.1,102.647303 C52,102.647303 48.1,104.252735 45.2,107.16258 L4.5,148.000754 C-1.5,154.021124 -1.5,163.754055 4.5,169.774425 L54.6,220.044512 C54.7333333,220.178297 68.4666667,233.991701 95.8,261.484723 C98.7,264.394568 102.6,266 106.7,266 C110.8,266 114.7,264.394568 117.6,261.484723 L311.2,67.2274613 C314.1,64.317616 315.7,60.4043757 315.7,56.2904564 C315.7,52.1765372 314.1,48.2632969 311.2,45.3534515 L270.5,4.51527725 C264.5,-1.50509242 254.8,-1.50509242 248.8,4.51527725 L106.8,146.997359 L67,107.16258 Z" id="Shape" fill="#749F27" fill-rule="nonzero"></path> </g>
</svg>