<?xml version="1.0"?>

<svg width="102" height="78" viewBox="0 0 102 78" version="1.1" xmlns="http://www.w3.org/2000/svg" xmlns:xlink="http://www.w3.org/1999/xlink">  <title>wecodesign_logo</title> <desc>Created with Sketch.</desc> <defs></defs> <g id="Page-1" stroke="none" stroke-width="1" fill="none" fill-rule="evenodd"> <g id="wecodesign_logo" transform="translate(1.000000, 1.000000)"> <path d="M73,0 L73,50 C73,53.5 71.2,56.9 68.3,58.9 C65.4,56.9 63.6,53.5 63.6,50 L63.6,0 L36.6,0 L36.6,50 C36.6,53.5 34.8,56.9 31.9,58.9 C29,56.9 27.2,53.5 27.2,50 L27.2,0 L0,0 L0,50 C0,64.2 11.5,75.7 25.7,75.7 L37.9,75.7 C42.1,75.7 46.3,74.6 50.1,72.6 C53.8,74.6 58,75.7 62.3,75.7 L74.5,75.7 C88.7,75.7 100.2,64.2 100.2,50 L100.2,0 L73,0 Z" id="white" stroke="#FFFFFF" fill="#FFFFFF"></path> <g id="Group" fill="#EA586F"> <g id="logo-portrait" fill-rule="nonzero"> <path d="M73,0.2 L73,50.2 C73,53.7 71.2,57.1 68.3,59.1 C65.4,57.1 63.6,53.7 63.6,50.2 L63.6,0.2 L36.6,0.2 L36.6,50.2 C36.6,53.7 34.8,57.1 31.9,59.1 C29,57.1 27.2,53.7 27.2,50.2 L27.2,0.2 L0,0.2 L0,50.2 C0,64.4 11.5,75.9 25.7,75.9 L37.9,75.9 C42.1,75.9 46.3,74.8 50.1,72.8 C53.8,74.8 58,75.9 62.3,75.9 L74.5,75.9 C88.7,75.9 100.2,64.4 100.2,50.2 L100.2,0.2 L73,0.2 Z M39.9,71.5 L42.8,72.6 C42.2,72.7 41.6,72.9 41,72.9 L38.9,72.1 C39.3,71.9 39.6,71.7 39.9,71.5 L39.9,71.5 Z M40.8,70.9 C41.1,70.7 41.4,70.5 41.7,70.2 L45.7,71.7 C45.2,71.9 44.8,72 44.3,72.2 L40.8,70.9 L40.8,70.9 Z M42.3,69.7 C42.6,69.5 42.8,69.3 43.1,69 L48,70.8 C47.6,71 47.2,71.2 46.8,71.3 L42.3,69.7 L42.3,69.7 Z M43.8,68.4 C44,68.2 44.3,67.9 44.5,67.7 L50,69.7 C49.7,69.9 49.3,70.1 49,70.3 L43.8,68.4 L43.8,68.4 Z M45,67 C45.2,66.8 45.4,66.5 45.6,66.3 L51.7,68.5 C51.4,68.7 51.1,68.9 50.8,69.1 L45,67 L45,67 Z M52.5,67.8 L46.2,65.5 C46.4,65.2 46.6,65 46.8,64.7 L53.3,67.1 C53,67.4 52.7,67.6 52.5,67.8 L52.5,67.8 Z M53.9,66.5 L47.2,64.1 C47.4,63.8 47.5,63.6 47.7,63.3 L54.6,65.8 C54.4,66.1 54.2,66.3 53.9,66.5 L53.9,66.5 Z M55.2,65.2 L48.1,62.6 C48.3,62.3 48.4,62.1 48.5,61.8 L55.8,64.5 C55.6,64.7 55.4,64.9 55.2,65.2 L55.2,65.2 Z M56.4,63.8 L48.9,61 C49,60.7 49.2,60.5 49.3,60.2 L56.9,63 C56.7,63.2 56.5,63.5 56.4,63.8 Z M57.4,62.3 L49.6,59.5 C49.7,59.2 49.8,58.9 49.9,58.6 L57.8,61.5 C57.7,61.7 57.5,62 57.4,62.3 L57.4,62.3 Z M59.5,60.6 L59.4,60.6 L59.4,60.6 C59.3,60.6 59.3,60.6 59.2,60.6 L59.2,60.6 C59.1,60.6 59,60.6 58.9,60.6 C58.8,60.6 58.8,60.6 58.7,60.7 C58.6,60.7 58.5,60.8 58.5,60.8 L50.3,57.8 C50.4,57.5 50.5,57.2 50.6,56.9 L61.5,60.9 C60.7,60.9 60.1,60.8 59.5,60.6 L59.5,60.6 Z M63.6,60.9 L50.7,56.2 C50.8,55.9 50.8,55.6 50.9,55.3 L65.3,60.6 C64.7,60.7 64.2,60.8 63.6,60.9 L63.6,60.9 Z M51.4,49.9 L61.3,53.5 C61.4,53.9 61.5,54.2 61.6,54.6 L51.4,50.9 C51.4,50.7 51.4,50.4 51.4,50.2 L51.4,49.9 L51.4,49.9 Z M53.4,2.9 L60.8,5.6 L60.8,6.6 L51.3,3.2 L51.3,3 L53.4,3 L53.4,2.9 Z M60.8,3.7 L60.8,4.7 L55.8,2.9 L58.5,2.9 L60.8,3.7 L60.8,3.7 Z M60.8,7.4 L60.8,8.4 L51.3,5 L51.3,4 L60.8,7.4 Z M60.8,9.2 L60.8,10.2 L51.3,6.8 L51.3,5.8 L60.8,9.2 Z M60.8,11.1 L60.8,12.1 L51.3,8.7 L51.3,7.7 L60.8,11.1 L60.8,11.1 Z M60.8,12.9 L60.8,13.9 L51.3,10.5 L51.3,9.5 L60.8,12.9 Z M60.8,14.8 L60.8,15.8 L51.3,12.4 L51.3,11.4 L60.8,14.8 L60.8,14.8 Z M60.8,16.6 L60.8,17.6 L51.3,14.2 L51.3,13.2 L60.8,16.6 L60.8,16.6 Z M60.8,18.4 L60.8,19.4 L51.4,16 L51.4,15 L60.8,18.4 L60.8,18.4 Z M60.8,20.3 L60.8,21.3 L51.3,17.9 L51.3,16.9 C51.4,16.8 60.8,20.3 60.8,20.3 Z M60.8,22.1 L60.8,23.1 L51.3,19.7 L51.3,18.7 L60.8,22.1 L60.8,22.1 Z M60.8,23.9 L60.8,24.9 L51.3,21.5 L51.3,20.5 L60.8,23.9 L60.8,23.9 Z M60.8,25.8 L60.8,26.8 L51.3,23.4 L51.3,22.4 L60.8,25.8 L60.8,25.8 Z M60.8,27.6 L60.8,28.6 L51.3,25.2 L51.3,24.2 C51.4,24.2 60.8,27.6 60.8,27.6 Z M60.8,29.5 L60.8,30.5 L51.4,27 L51.4,26 L60.8,29.5 L60.8,29.5 Z M60.8,31.3 L60.8,32.3 L51.3,28.9 L51.3,27.9 L60.8,31.3 L60.8,31.3 Z M60.8,33.1 L60.8,34.1 L51.3,30.7 L51.3,29.7 L60.8,33.1 L60.8,33.1 Z M60.8,35 L60.8,36 L51.3,32.6 L51.3,31.6 L60.8,35 L60.8,35 Z M60.8,36.8 L60.8,37.8 L51.3,34.4 L51.3,33.4 L60.8,36.8 L60.8,36.8 Z M60.8,38.6 L60.8,39.6 L51.3,36.2 L51.3,35.2 L60.8,38.6 L60.8,38.6 Z M60.8,40.5 L60.8,41.5 L51.4,38 L51.4,37 L60.8,40.5 L60.8,40.5 Z M60.8,42.3 L60.8,43.3 L51.3,39.9 L51.3,38.9 L60.8,42.3 L60.8,42.3 Z M60.8,44.2 L60.8,45.2 L51.3,41.8 L51.3,40.8 L60.8,44.2 L60.8,44.2 Z M60.8,46 L60.8,47 L51.3,43.6 L51.3,42.6 L60.8,46 L60.8,46 Z M60.8,47.8 L60.8,48.8 L51.3,45.4 L51.3,44.4 L60.8,47.8 L60.8,47.8 Z M60.8,49.7 L60.8,50.4 C60.8,50.5 60.8,50.6 60.8,50.7 L51.3,47.2 L51.3,46.2 L60.8,49.7 L60.8,49.7 Z M60.9,51.6 C60.9,51.9 61,52.3 61.1,52.6 L51.4,49.1 L51.4,48.1 L60.9,51.6 Z M62,55.6 C62.2,56 62.4,56.4 62.6,56.8 L51.2,52.7 C51.2,52.4 51.3,52.1 51.3,51.8 L62,55.6 L62,55.6 Z M63.3,57.9 C63.6,58.4 64,58.8 64.4,59.3 L51,54.4 C51.1,54.1 51.1,53.8 51.1,53.5 L63.3,57.9 L63.3,57.9 Z M24.3,3.6 L24.3,4.6 L19.6,2.9 L22.3,2.9 L24.3,3.6 L24.3,3.6 Z M24.3,5.4 L24.3,6.4 L14.9,3 L14.9,2.9 L17.3,2.9 L24.3,5.4 L24.3,5.4 Z M24.3,7.3 L24.3,8.3 L14.8,4.9 L14.8,3.9 C14.9,3.8 24.3,7.3 24.3,7.3 Z M24.3,9.1 L24.3,10.1 L14.8,6.7 L14.8,5.7 L24.3,9.1 L24.3,9.1 Z M24.3,10.9 L24.3,11.9 L14.8,8.5 L14.8,7.5 L24.3,10.9 L24.3,10.9 Z M24.3,12.8 L24.3,13.8 L14.8,10.4 L14.8,9.4 C14.9,9.4 24.3,12.8 24.3,12.8 Z M24.3,14.6 L24.3,15.6 L14.8,12.2 L14.8,11.2 L24.3,14.6 L24.3,14.6 Z M24.3,16.5 L24.3,17.5 L14.9,14 L14.9,13 L24.3,16.5 L24.3,16.5 Z M24.3,18.3 L24.3,19.3 L14.8,15.9 L14.8,14.9 C14.9,14.9 24.3,18.3 24.3,18.3 Z M24.3,20.1 L24.3,21.1 L14.8,17.7 L14.8,16.7 L24.3,20.1 L24.3,20.1 Z M24.3,22 L24.3,23 L14.8,19.6 L14.8,18.6 L24.3,22 L24.3,22 Z M24.3,23.8 L24.3,24.8 L14.8,21.4 L14.8,20.4 L24.3,23.8 L24.3,23.8 Z M24.3,25.7 L24.3,26.7 L14.8,23.3 L14.8,22.3 L24.3,25.7 L24.3,25.7 Z M24.3,27.5 L24.3,28.5 L14.9,25 L14.9,24 L24.3,27.5 L24.3,27.5 Z M24.3,29.3 L24.3,30.3 L14.8,26.9 L14.8,25.9 L24.3,29.3 L24.3,29.3 Z M24.3,31.2 L24.3,32.2 L14.8,28.8 L14.8,27.8 L24.3,31.2 L24.3,31.2 Z M24.3,33 L24.3,34 L14.8,30.6 L14.8,29.6 L24.3,33 Z M24.3,34.9 L24.3,35.9 L14.8,32.5 L14.8,31.5 L24.3,34.9 L24.3,34.9 Z M24.3,36.7 L24.3,37.7 L14.8,34.3 L14.8,33.3 L24.3,36.7 L24.3,36.7 Z M24.3,38.5 L24.3,39.5 L14.8,36.1 L14.8,35.1 L24.3,38.5 L24.3,38.5 Z M24.3,40.4 L24.3,41.4 L14.8,38 L14.8,37 L24.3,40.4 L24.3,40.4 Z M24.3,42.2 L24.3,43.2 L14.8,39.8 L14.8,38.8 L24.3,42.2 L24.3,42.2 Z M24.3,44 L24.3,45 L14.8,41.6 L14.8,40.6 L24.3,44 L24.3,44 Z M24.3,45.9 L24.3,46.9 L14.8,43.5 L14.8,42.5 L24.3,45.9 Z M24.3,47.7 L24.3,48.7 L14.8,45.3 L14.8,44.3 L24.3,47.7 L24.3,47.7 Z M24.3,49.6 L24.3,50.4 C24.3,50.5 24.3,50.5 24.3,50.6 L14.8,47.2 L14.8,46.2 L24.3,49.6 L24.3,49.6 Z M24.4,51.4 C24.4,51.8 24.5,52.1 24.5,52.4 L14.8,48.9 L14.8,47.9 L24.4,51.4 L24.4,51.4 Z M24.7,53.4 C24.8,53.8 24.9,54.1 25,54.5 L14.9,50.8 C14.9,50.6 14.9,50.4 14.9,50.2 L14.9,49.8 L24.7,53.4 L24.7,53.4 Z M25.4,55.5 C25.6,55.9 25.8,56.3 26,56.7 L15.2,52.8 C15.1,52.4 15.1,52.1 15,51.8 C15,51.7 25.4,55.5 25.4,55.5 Z M26.7,57.8 C27,58.3 27.4,58.7 27.8,59.2 L16,54.8 C15.8,54.4 15.7,54 15.5,53.7 L26.7,57.8 L26.7,57.8 Z M19,58.7 L25.3,61 C22.9,60.9 20.8,60 19,58.7 L19,58.7 Z M27.4,60.8 L17.6,57.2 C17.2,56.8 16.9,56.3 16.6,55.9 L29,60.4 C28.4,60.6 27.9,60.7 27.4,60.8 L27.4,60.8 Z M25.7,73.1 C13,73.1 2.7,62.8 2.7,50.1 L2.7,2.9 L12.2,2.9 L12.2,50.2 C12.2,57.7 18.3,63.7 25.7,63.7 C28.1,63.7 30.4,63.1 32.5,61.9 L33.6,61.2 C37.1,58.7 39.2,54.7 39.3,50.4 L39.3,2.9 L48.8,2.9 L48.8,50.2 C48.8,60.7 41.7,69.8 31.6,72.4 C29.6,72.9 27.6,73.1 25.7,73.1 L25.7,73.1 Z M37.2,73.1 C37.5,73 37.8,72.8 38.1,72.6 L39.3,73 C38.8,73 38.4,73.1 37.9,73.1 L37.2,73.1 L37.2,73.1 Z M62.2,73.1 C59,73.1 55.7,72.4 52.7,71.1 C55.5,69.1 58,66.5 59.8,63.5 C60.6,63.6 61.4,63.7 62.2,63.7 C64.6,63.7 66.9,63.1 69,61.9 L70.1,61.2 C73.6,58.7 75.7,54.7 75.8,50.4 L75.8,2.9 L85.3,2.9 L85.3,50.2 C85.3,60.7 78.2,69.8 68.1,72.4 C66,72.9 64.1,73.1 62.2,73.1 L62.2,73.1 Z M74.3,73.1 L74,73.1 L73.8,73 C74.2,72.8 74.5,72.6 74.9,72.4 L76.4,73 C75.7,73.1 75,73.1 74.3,73.1 L74.3,73.1 Z M78.1,72.8 L75.7,71.9 C76,71.7 76.4,71.5 76.7,71.3 L79.8,72.4 C79.3,72.6 78.7,72.7 78.1,72.8 L78.1,72.8 Z M81.2,72.1 L77.5,70.8 C77.8,70.6 78.1,70.4 78.4,70.1 L82.6,71.6 C82.1,71.8 81.6,71.9 81.2,72.1 L81.2,72.1 Z M83.7,71.1 L79.1,69.4 C79.4,69.2 79.6,68.9 79.9,68.7 L84.9,70.5 C84.4,70.8 84,71 83.7,71.1 L83.7,71.1 Z M85.8,70.1 L80.5,68.2 C80.7,68 81,67.7 81.2,67.5 L86.8,69.5 C86.4,69.7 86.1,69.9 85.8,70.1 L85.8,70.1 Z M87.6,68.9 L81.7,66.8 C81.9,66.5 82.1,66.3 82.3,66 L88.4,68.2 C88.2,68.5 87.9,68.7 87.6,68.9 L87.6,68.9 Z M89.2,67.6 L82.9,65.3 C83.1,65.1 83.3,64.8 83.4,64.5 L90,66.9 C89.7,67.2 89.5,67.4 89.2,67.6 L89.2,67.6 Z M90.6,66.3 L83.8,63.8 C84,63.5 84.1,63.3 84.3,63 L91.3,65.5 C91.1,65.8 90.9,66.1 90.6,66.3 Z M91.9,64.9 L84.8,62.3 C84.9,62 85.1,61.7 85.2,61.5 L92.5,64.2 C92.3,64.4 92.1,64.7 91.9,64.9 Z M93,63.5 L85.5,60.8 C85.6,60.5 85.7,60.2 85.9,59.9 L93.5,62.7 C93.4,63 93.2,63.2 93,63.5 L93,63.5 Z M94,62 L86.2,59.2 C86.3,58.9 86.4,58.6 86.5,58.3 L94.5,61.2 C94.3,61.5 94.1,61.8 94,62 L94,62 Z M94.8,60.5 L86.7,57.5 C86.8,57.2 86.9,56.9 86.9,56.6 L95.1,59.6 C95.1,59.9 95,60.2 94.8,60.5 L94.8,60.5 Z M95.5,58.9 L87.1,55.8 C87.2,55.5 87.2,55.2 87.3,54.9 L95.8,58 C95.8,58.4 95.7,58.6 95.5,58.9 L95.5,58.9 Z M96.1,57.3 L87.5,54.2 C87.5,53.9 87.6,53.6 87.6,53.3 L96.4,56.5 C96.3,56.7 96.2,57 96.1,57.3 L96.1,57.3 Z M96.6,55.6 L87.7,52.4 C87.7,52.1 87.7,51.8 87.8,51.5 L96.8,54.8 C96.8,55 96.7,55.3 96.6,55.6 L96.6,55.6 Z M97,53.9 L87.8,50.6 C87.8,50.5 87.8,50.3 87.8,50.2 L87.8,49.7 L97.1,53.1 C97.1,53.3 97,53.6 97,53.9 L97,53.9 Z M97.2,52.2 L87.8,48.8 L87.8,47.8 L97.2,51.2 C97.2,51.5 97.2,51.9 97.2,52.2 L97.2,52.2 Z M97.3,50.2 C97.3,50.3 97.3,50.3 97.3,50.4 L87.8,47 L87.8,46 L97.3,49.4 L97.3,50.2 L97.3,50.2 Z M97.3,48.5 L87.8,45.1 L87.8,44.1 L97.3,47.5 L97.3,48.5 L97.3,48.5 Z M97.3,46.7 L87.8,43.3 L87.8,42.3 L97.3,45.7 L97.3,46.7 L97.3,46.7 Z M97.3,44.8 L87.8,41.4 L87.8,40.4 L97.3,43.8 L97.3,44.8 L97.3,44.8 Z M97.3,43 L87.8,39.6 L87.8,38.6 L97.3,42 L97.3,43 L97.3,43 Z M97.3,41.2 L87.8,37.8 L87.8,36.8 L97.3,40.2 L97.3,41.2 L97.3,41.2 Z M97.3,39.3 L87.8,35.9 L87.8,34.9 L97.3,38.3 L97.3,39.3 L97.3,39.3 Z M97.3,37.5 L87.8,34.1 L87.8,33.1 L97.3,36.5 L97.3,37.5 L97.3,37.5 Z M97.3,35.7 L87.8,32.3 L87.8,31.3 L97.3,34.7 L97.3,35.7 L97.3,35.7 Z M97.3,33.8 L87.8,30.4 L87.8,29.4 L97.3,32.8 L97.3,33.8 L97.3,33.8 Z M97.3,32 L87.8,28.6 L87.8,27.6 L97.3,31 L97.3,32 Z M97.3,30.1 L87.8,26.7 L87.8,25.7 L97.3,29.1 C97.3,29.2 97.3,30.1 97.3,30.1 Z M97.3,28.3 L87.8,24.9 L87.8,23.9 L97.3,27.3 L97.3,28.3 L97.3,28.3 Z M97.3,26.5 L87.8,23.1 L87.8,22.1 L97.3,25.5 L97.3,26.5 Z M97.3,24.6 L87.8,21.2 L87.8,20.2 L97.3,23.6 L97.3,24.6 L97.3,24.6 Z M97.3,22.8 L87.8,19.4 L87.8,18.4 L97.3,21.8 L97.3,22.8 L97.3,22.8 Z M97.3,20.9 L87.8,17.4 L87.8,16.4 L97.3,19.8 L97.3,20.9 L97.3,20.9 Z M97.3,19.1 L87.8,15.7 L87.8,14.7 L97.3,18.1 C97.3,18.1 97.3,19.1 97.3,19.1 Z M97.3,17.3 L87.8,13.9 L87.8,12.9 L97.3,16.3 L97.3,17.3 Z M97.3,15.4 L87.8,12 L87.8,11 L97.3,14.4 L97.3,15.4 L97.3,15.4 Z M97.3,13.6 L87.8,10.2 L87.8,9.2 L97.3,12.6 L97.3,13.6 L97.3,13.6 Z M97.3,11.7 L87.8,8.3 L87.8,7.3 L97.3,10.7 C97.3,10.8 97.3,11.7 97.3,11.7 Z M97.3,9.9 L87.8,6.5 L87.8,5.5 L97.3,8.9 L97.3,9.9 L97.3,9.9 Z M97.3,8.1 L87.8,4.7 L87.8,3.7 L97.3,7.1 L97.3,8.1 Z M97.3,6.2 L88.1,2.8 L90.8,2.8 L97.4,5.2 L97.3,6.2 L97.3,6.2 Z M97.3,4.4 L93.1,2.9 L95.8,2.9 L97.3,3.5 L97.3,4.4 L97.3,4.4 Z" id="Shape"></path> </g> </g> </g> </g>
</svg>