<?xml version="1.0"?>

<svg width="266" height="266" viewBox="0 0 266 266" version="1.1" xmlns="http://www.w3.org/2000/svg" xmlns:xlink="http://www.w3.org/1999/xlink">  <title>Shape</title> <desc>Created with Sketch.</desc> <defs></defs> <g id="Page-1" stroke="none" stroke-width="1" fill="none" fill-rule="evenodd"> <path d="M66.9,5.80218127 C64,2.90109064 60.1,1.30048891 56,1.30048891 C51.9,1.30048891 48,2.90109064 45.1,5.80218127 L4.5,46.6175254 C-1.5,52.6197819 -1.5,62.3234299 4.5,68.3256863 L69.8,133.650244 L4.5,198.974803 C1.6,201.875893 0,205.77736 0,209.878902 C0,213.980444 1.6,217.88191 4.5,220.783001 L45.2,261.498308 C48.2,264.499436 52.1,266 56.1,266 C60,266 64,264.499436 67,261.498308 L132.3,196.17375 L197.6,261.498308 C200.5,264.399398 204.4,266 208.5,266 C212.6,266 216.5,264.399398 219.4,261.498308 L260.1,220.783001 C266.1,214.780745 266.1,205.077097 260.1,199.07484 L194.8,133.750282 L261.5,67.0251974 C264.4,64.1241068 266,60.2226401 266,56.1210982 C266,52.0195562 264.4,48.1180895 261.5,45.2169989 L220.8,4.50169237 C214.8,-1.50056412 205.1,-1.50056412 199.1,4.50169237 L132.3,71.226777 L66.9,5.80218127 Z" id="Shape" fill="#D0021B" fill-rule="nonzero"></path> </g>
</svg>