<svg xmlns="http://www.w3.org/2000/svg" viewBox="0 0 400 400">
  <path d="M281.3 60.4v177c0 12.5-6.4 24.5-16.7 31.6-10.4-7.1-16.7-19-16.7-31.6v-177h-95.7v177c0 12.5-6.3 24.5-16.7 31.6-10.3-7.1-16.7-19-16.7-31.6v-177H23v177c0 50.1 40.8 90.9 90.9 90.9h43c14.9 0 29.8-3.8 43-10.8 13.2 7.1 28 10.8 43.1 10.8h43c50.1 0 90.9-40.8 90.9-90.9v-177h-95.6zM164.4 313l10.3 3.7c-2.1.5-4.2.9-6.3 1.2l-7.5-2.7c1.2-.8 2.4-1.5 3.5-2.2zm2.9-2.1c1-.8 2.1-1.5 3.1-2.3l14.2 5.2c-1.6.6-3.3 1.2-5 1.6l-12.3-4.5zm5.6-4.4c1-.8 1.9-1.6 2.8-2.4l17.2 6.3c-1.4.7-2.8 1.4-4.2 1.9l-15.8-5.8zm5.1-4.7l2.5-2.5 19.5 7.1-3.6 2.1-18.4-6.7zm4.5-4.8c.8-.9 1.5-1.8 2.2-2.6l21.4 7.8c-1 .8-2.1 1.6-3.2 2.3l-20.4-7.5zm26.3 3l-22.2-8.1c.7-.9 1.3-1.8 2-2.7l23.1 8.4c-1 .8-2 1.6-2.9 2.4zm5.1-4.6l-23.8-8.7c.6-.9 1.2-1.9 1.7-2.8l24.5 8.9c-.7.9-1.5 1.7-2.4 2.6zm4.6-4.9l-25.1-9.2c.5-.9 1-1.9 1.5-2.9l25.8 9.4c-.8 1-1.5 1.9-2.2 2.7zm4-5l-26.3-9.6c.4-1 .9-1.9 1.3-2.9l26.9 9.8c-.6.9-1.2 1.8-1.9 2.7zm3.5-5.2l-27.4-10c.4-1 .8-2 1.1-3.1l28 10.2c-.5 1-1.1 1.9-1.7 2.9zm7.5-5.8l-.4-.1H232.3c-.3 0-.6 0-1 .1-.2.1-.4.1-.7.2-.3.1-.6.2-.9.4l-29.1-10.6c.3-1 .7-2.1 1-3.1l38.7 14.1c-2.4-.2-4.6-.5-6.8-1zm14.6.8l-45.8-16.7c.3-1 .5-2.1.7-3.2l51.1 18.6c-2 .5-4 1-6 1.3zm-43.3-38.8l35 12.7c.3 1.3.7 2.6 1.2 3.9L204.7 240c0-.9.1-1.7.1-2.6v-.9zM212.2 70l26.1 9.5V83l-33.5-12.2V70h7.4zm26.1 3v3.5L220.6 70h9.5l8.2 3zm0 13v3.5l-33.5-12.2v-3.5L238.3 86zm0 6.5V96l-33.5-12.2v-3.5l33.5 12.2zm0 6.5v3.5l-33.5-12.2v-3.5L238.3 99zm0 6.5v3.4l-33.5-12.2v-3.5l33.5 12.3zm0 6.5v3.4l-33.5-12.2v-3.5l33.5 12.3zm0 6.5v3.4l-33.5-12.2v-3.5l33.5 12.3zm0 6.5v3.5l-33.5-12.2v-3.5l33.5 12.2zm0 6.6v3.5l-33.5-12.2v-3.5l33.5 12.2zm0 6.5v3.5l-33.5-12.2V126l33.5 12.1zm0 6.5v3.5l-33.5-12.2v-3.5l33.5 12.2zm0 6.5v3.5l-33.5-12.2v-3.5l33.5 12.2zm0 6.5v3.5l-33.5-12.2v-3.5l33.5 12.2zm0 6.5v3.4l-33.5-12.1v-3.5l33.5 12.2zm0 6.5v3.4l-33.5-12.2v-3.5l33.5 12.3zm0 6.5v3.5l-33.5-12.2v-3.5l33.5 12.2zm0 6.5v3.5l-33.5-12.2v-3.4l33.5 12.1zm0 6.5v3.5l-33.5-12.2V178l33.5 12.1zm0 6.5v3.5l-33.5-12.2v-3.5l33.5 12.2zm0 6.5v3.5l-33.5-12.2V191l33.5 12.1zm0 6.5v3.4l-33.5-12.2v-3.5l33.5 12.3zm0 6.6v3.4l-33.5-12.2V204l33.5 12.2zm0 6.5v3.4l-33.5-12.2v-3.4l33.5 12.2zm0 6.5v3.5l-33.5-12.2V217l33.5 12.2zm0 6.5v2.4c0 .4.1.8.1 1.2l-33.5-12.2v-3.4l33.4 12zm.2 6.6c.2 1.2.3 2.4.6 3.7l-34.3-12.5V230l33.7 12.3zm3.9 14.4c.7 1.4 1.4 2.9 2.2 4.2l-40.3-14.7.3-3.3 37.8 13.8zm4.7 8.2c1.2 1.7 2.5 3.3 3.9 4.9l-47.5-17.3c.2-1.1.4-2.2.5-3.3l43.1 15.7zm-138-192.3V76l-16.5-6h9.5l7 2.6zm0 6.5v3.4L75.7 70.3V70h8.5l24.9 9.1zm0 6.5V89L75.7 76.8v-3.5l33.4 12.3zm0 6.5v3.5L75.7 83.3v-3.4l33.4 12.2zm0 6.5v3.5L75.7 89.8v-3.4l33.4 12.2zm0 6.5v3.5L75.7 96.3v-3.4l33.4 12.2zm0 6.5v3.5l-33.5-12.2v-3.5l33.5 12.2zm0 6.5v3.5l-33.5-12.2v-3.5l33.5 12.2zm0 6.5v3.5l-33.5-12.2v-3.5l33.5 12.2zm0 6.5v3.4l-33.5-12.2v-3.5l33.5 12.3zm0 6.5v3.5l-33.5-12.2v-3.5l33.5 12.2zm0 6.5v3.5l-33.5-12.2v-3.5l33.5 12.2zm0 6.5v3.5l-33.5-12.2v-3.4l33.5 12.1zm0 6.5v3.5l-33.5-12.2V145l33.5 12.1zm0 6.6v3.5L75.6 155v-3.4l33.5 12.1zm0 6.5v3.5l-33.5-12.2V158l33.5 12.2zm0 6.5v3.4L75.7 168v-3.5l33.4 12.2zm0 6.5v3.4l-33.5-12.2V171l33.5 12.2zm0 6.5v3.4L75.7 181v-3.4l33.4 12.1zm0 6.5v3.5l-33.5-12.2V184l33.5 12.2zm0 6.5v3.5L75.7 194v-3.5l33.4 12.2zm0 6.5v3.5l-33.5-12.2v-3.4l33.5 12.1zm0 6.5v3.5L75.7 207v-3.5l33.4 12.2zm0 6.5v3.5l-33.5-12.2V210l33.5 12.2zm0 6.5v3.5L75.7 220v-3.5l33.4 12.2zm0 6.6v2.8c0 .2.1.5.1.7l-33.5-12.2v-3.5l33.4 12.2zm.3 6.5c.1 1.3.3 2.4.5 3.6L75.7 233v-3.5l33.7 12.3zm1.1 7c.3 1.3.7 2.6 1.1 3.9l-35.9-13.1c0-.7-.1-1.4-.1-2.2v-1.3l34.9 12.7zm2.6 7.4c.6 1.5 1.3 2.9 2.1 4.2l-38.4-13.9c-.3-1.3-.5-2.5-.7-3.7l37 13.4zm4.5 8.2c1.2 1.7 2.4 3.3 3.8 4.9L79.5 254c-.6-1.3-1.2-2.7-1.7-4.1l39.8 14.5zm-27.2 3.1l22.2 8.1c-8.4-.3-16-3.3-22.2-8.1zm29.4 7.7l-34.7-12.6c-1.3-1.5-2.5-3.1-3.5-4.7l44 16c-1.9.5-3.8.9-5.8 1.3zm-5.9 43.5c-44.8 0-81.3-36.5-81.3-81.3V70H66v167.4c0 26.4 21.5 47.9 47.9 47.9 8.4 0 16.6-2.2 24-6.5l3.8-2.5c12.3-8.8 19.8-23.1 20.1-38.2V70h33.5v167.4c0 37.2-25.1 69.5-61 78.7-6.7 1.7-13.5 2.6-20.4 2.6zm40.7 0c1-.5 2.1-1.1 3.1-1.7l4.2 1.5c-1.6.1-3.2.2-4.9.2h-2.4zm88.5 0c-11.5 0-23-2.5-33.5-7.2 10.1-7.1 18.7-16.4 25.1-27 2.8.5 5.6.8 8.4.8 8.4 0 16.6-2.2 24-6.5l3.8-2.5c12.3-8.8 19.8-23.1 20-38.2V70h33.5v167.4c0 37.2-25.1 69.5-61 78.7-6.6 1.7-13.4 2.6-20.3 2.6zm43 0h-1.3l-.6-.2c1.3-.7 2.5-1.4 3.8-2.1l5.4 2c-2.4.2-4.8.3-7.3.3zm13.5-1.2l-8.4-3c1.2-.7 2.3-1.5 3.4-2.2l11 4c-2 .5-4 .9-6 1.2zm10.8-2.5l-13-4.7c1-.8 2-1.5 3.1-2.4l14.8 5.4c-1.7.6-3.3 1.2-4.9 1.7zm8.7-3.3l-16.2-5.9 2.7-2.4 17.6 6.4c-1.3.5-2.7 1.2-4.1 1.9zm7.5-3.9l-18.7-6.8c.8-.9 1.6-1.7 2.4-2.6l19.8 7.2c-1.1.8-2.3 1.6-3.5 2.2zm6.5-4.1l-20.7-7.5 2.1-2.7 21.7 7.9c-1 .8-2.1 1.6-3.1 2.3zm5.6-4.4l-22.4-8.2c.6-.9 1.3-1.8 1.9-2.7l23.3 8.4c-.9.8-1.8 1.7-2.8 2.5zm5.1-4.7l-23.9-8.7c.6-.9 1.1-1.9 1.7-2.8l24.7 9c-.9.8-1.6 1.7-2.5 2.5zm4.5-4.9l-25.3-9.2c.5-1 1-1.9 1.5-2.9l25.9 9.4-2.1 2.7zm3.9-5.1l-26.5-9.6c.4-1 .8-2 1.3-3l27.1 9.8c-.6 1-1.2 1.9-1.9 2.8zm3.5-5.2l-27.6-10.1c.4-1 .7-2 1.1-3l28.2 10.3c-.6.9-1.1 1.8-1.7 2.8zm3-5.4L330 263.5c.3-1 .6-2.1.9-3.1l29.2 10.6c-.5 1-.9 2-1.4 3zm2.5-5.6l-29.6-10.8c.2-1.1.5-2.1.7-3.2l30.2 11c-.4 1-.8 2-1.3 3zm2.2-5.7l-30.6-11.2c.2-1 .3-2.2.4-3.3l31.1 11.3c-.3 1.1-.6 2.1-.9 3.2zm1.7-6l-31.5-11.5c.1-1.1.2-2.2.2-3.4l32 11.7c-.2 1.1-.5 2.2-.7 3.2zm1.2-6l-32.4-11.8v-3.4l32.8 11.9c-.1 1.1-.2 2.2-.4 3.3zm.8-6.2l-33.2-12.1V229l33.4 12.1c0 1.1-.1 2.3-.2 3.4zm.3-7.1v.7l-33.5-12.2v-3.5l33.5 12.2v2.8zm0-5.8l-33.5-12.2v-3.5l33.5 12.2v3.5zm0-6.5l-33.5-12.2v-3.5l33.5 12.2v3.5zm0-6.6l-33.5-12.2v-3.5l33.5 12.2v3.5zm0-6.4l-33.5-12.2v-3.5l33.5 12.2v3.5zm0-6.6l-33.5-12.2v-3.5l33.5 12.2v3.5zm0-6.5l-33.5-12.2v-3.5l33.5 12.2v3.5zm0-6.5l-33.5-12.2v-3.4l33.5 12.2v3.4zm0-6.5l-33.5-12.2v-3.4l33.5 12.2v3.4zm0-6.5l-33.5-12.2v-3.5l33.5 12.2v3.5zm0-6.5l-33.5-12.2v-3.5l33.5 12.2v3.5zm0-6.5l-33.5-12.2v-3.5l33.5 12.2v3.5zm0-6.5l-33.5-12.2v-3.5l33.5 12.2v3.5zm0-6.5l-33.5-12.2v-3.5l33.5 12.2v3.5zm0-6.5l-33.5-12.2v-3.5l33.5 12.2v3.5zm0-6.5l-33.5-12.2v-3.4l33.5 12.2v3.4zm0-6.5l-33.5-12.2v-3.4l33.5 12.2v3.4zm0-6.5l-33.5-12.2v-3.4l33.5 12.2v3.4zm0-6.6l-33.5-12.2v-3.5l33.5 12.2v3.5zm0-6.5l-33.5-12.2v-3.5l33.5 12.2v3.5zm0-6.5l-33.5-12.2v-3.5l33.5 12.2v3.5zm0-6.5l-33.5-12.2v-3.5l33.5 12.2v3.5zm0-6.5l-33.5-12.2v-3.5l33.5 12.2v3.5zm0-6.5l-33.5-12.2v-3.5l33.5 12.2v3.5zm0-6.5L334.7 70h9.5l23.2 8.5v3.4zm0-6.5L352.6 70h9.5l5.3 1.9v3.5z" fill="#ea576e"/>
</svg>
