<?xml version="1.0" encoding="utf-8"?>
<!-- Generator: Adobe Illustrator 19.0.0, SVG Export Plug-In . SVG Version: 6.00 Build 0)  -->
<svg version="1.1" id="Capa_1" xmlns="http://www.w3.org/2000/svg" xmlns:xlink="http://www.w3.org/1999/xlink" x="0px" y="0px"
	 viewBox="-285 408.9 24 24" style="enable-background:new -285 408.9 24 24;" xml:space="preserve">
<path d="M-265.9,422.1c-0.7,0-1.3,0.2-1.8,0.4c-0.2-0.4-0.4-0.7-0.4-0.9c0-0.3-0.1-0.5,0-0.8s0.2-0.8,0.2-0.9c0,0,0-0.2-0.4-0.2
	s-0.7,0.1-0.8,0.2c0,0.1-0.1,0.3-0.2,0.6c-0.1,0.4-0.8,1.7-1.2,2.3c-0.1-0.3-0.3-0.5-0.3-0.7c0-0.3-0.1-0.5,0-0.8s0.2-0.8,0.2-0.9
	c0,0,0-0.2-0.4-0.2s-0.7,0.1-0.8,0.2c0,0.1-0.1,0.4-0.2,0.6s-1.1,2.4-1.3,3c-0.1,0.3-0.2,0.5-0.3,0.7c-0.1,0.2,0,0,0,0
	c-0.1,0.1-0.1,0.2-0.1,0.2l0,0c-0.1,0.1-0.1,0.2-0.1,0.2s-0.1-0.3,0-0.6c0.1-0.8,0.5-1.9,0.5-2c0,0,0.1-0.2-0.2-0.3
	c-0.3-0.1-0.4,0.1-0.4,0.1v0.1c0,0,0.3-1.3-0.6-1.3c-0.6,0-1.4,0.6-1.8,1.2c-0.2,0.1-0.8,0.4-1.3,0.7c-0.2,0.1-0.4,0.2-0.6,0.4l0,0
	c-1.1-1.2-3.2-2-3.1-3.6c0-0.6,0.2-2.1,4-4c3.1-1.5,5.5-1.1,5.9-0.2c0.6,1.3-1.3,3.8-4.5,4.1c-1.2,0.1-1.8-0.3-2-0.5
	s-0.2-0.2-0.3-0.2c-0.1,0.1,0,0.2,0,0.3c0.1,0.2,0.5,0.7,1.1,0.9c0.6,0.2,2,0.3,3.7-0.4c1.9-0.7,3.4-2.8,3-4.5
	c-0.4-1.8-3.4-2.3-6.1-1.4c-1.6,0.6-3.4,1.5-4.7,2.7c-1.5,1.4-1.8,2.7-1.7,3.2c0.4,1.8,2.9,3,3.9,3.9c-0.1,0-0.1,0.1-0.1,0.1
	c-0.5,0.2-2.4,1.3-2.9,2.3c-0.5,1.2,0.1,2.1,0.5,2.2c1.3,0.4,2.6-0.3,3.4-1.4c0.7-1.1,0.6-2.5,0.3-3.1l0,0l0.4-0.2
	c0.3-0.2,0.5-0.3,0.7-0.4c-0.1,0.3-0.2,0.7-0.3,1.3c-0.1,0.7,0.2,1.6,0.6,1.9c0.2,0.2,0.4,0.2,0.5,0.2c0.4,0,0.6-0.4,0.8-0.8
	c0.3-0.5,0.5-1.1,0.5-1.1s-0.3,1.6,0.5,1.6c0.3,0,0.6-0.4,0.7-0.6l0,0l0,0v-0.1l0,0c0.1-0.2,0.4-0.7,0.8-1.4c0.5-1,1-2.2,1-2.2
	s0,0.3,0.2,0.8c0.1,0.3,0.3,0.6,0.4,0.9c-0.1,0.2-0.2,0.3-0.2,0.3l0,0c-0.1,0.1-0.2,0.3-0.3,0.4c-0.4,0.5-0.9,1-0.9,1.2
	c-0.1,0.2-0.1,0.3,0.1,0.4c0.1,0.1,0.3,0.1,0.5,0.1c0.4,0,0.6-0.1,0.7-0.2c0.2-0.1,0.4-0.2,0.6-0.3c0.4-0.3,0.6-0.7,0.6-1.2
	c0-0.3-0.1-0.6-0.2-0.9c0-0.1,0.1-0.1,0.1-0.2c0.6-0.9,1.1-1.9,1.1-1.9s0,0.3,0.2,0.8c0.1,0.3,0.2,0.5,0.4,0.8
	c-0.6,0.5-0.9,1-1.1,1.4c-0.2,0.7-0.1,1,0.3,1c0.2,0,0.4,0,0.5-0.1c0.2-0.1,0.4-0.2,0.7-0.3c0.4-0.3,0.8-0.7,0.7-1.2
	c0-0.2-0.1-0.5-0.2-0.7c0.5-0.2,1.1-0.3,1.9-0.2c1.7,0.2,2.1,1.3,2,1.7c-0.1,0.5-0.4,0.7-0.6,0.8c-0.1,0.1-0.2,0.1-0.1,0.2
	c0,0.1,0.1,0.1,0.2,0.1s0.9-0.4,0.9-1.2C-263.1,423.3-264.1,422.1-265.9,422.1L-265.9,422.1z M-279.3,426.6
	c-0.6,0.6-1.4,0.9-1.7,0.7c-0.4-0.2-0.2-1.1,0.5-1.8c0.4-0.4,1-0.8,1.4-1c0.1-0.1,0.2-0.1,0.4-0.2l0,0c0,0,0.1,0,0.1-0.1
	C-278.4,425.1-278.7,426-279.3,426.6L-279.3,426.6z M-275.1,423.8c-0.2,0.5-0.6,1.7-0.9,1.7c-0.2-0.1-0.4-1,0-1.9
	c0.2-0.5,0.5-1,0.7-1.3c0.3-0.4,0.7-0.5,0.7-0.3C-274.5,422.1-275,423.5-275.1,423.8z M-271.6,425.4c-0.1,0-0.2,0.1-0.2,0.1v-0.1
	c0,0,0.4-0.5,0.6-0.7c0.1-0.1,0.2-0.3,0.3-0.4l0,0C-270.8,424.9-271.4,425.3-271.6,425.4z M-269,424.8c-0.1,0-0.1-0.2,0.2-0.6
	c0.1-0.2,0.3-0.5,0.6-0.8c0,0.1,0.1,0.2,0.1,0.3C-268.2,424.4-268.7,424.7-269,424.8z"/>
</svg>
