<svg xmlns="http://www.w3.org/2000/svg" viewBox="171.8 -87.8 200 200"><path d="M329.5 21.2c-5.6 0-10.4 1.4-14.5 3.4-1.5-3-3-5.6-3.3-7.5-.3-2.3-.6-3.6-.3-6.3s1.9-6.5 1.9-6.8c0-.3-.3-1.7-3.6-1.7-3.2 0-6 .6-6.3 1.5s-.9 2.8-1.3 4.8c-.6 2.9-6.4 13.3-9.8 18.8-1.1-2.1-2-4-2.2-5.5-.3-2.3-.6-3.6-.3-6.3s1.9-6.5 1.9-6.8c0-.3-.3-1.7-3.6-1.7-3.2 0-6 .6-6.3 1.5-.3.8-.7 2.8-1.3 4.8-.7 1.9-8.5 19.3-10.5 23.8-1 2.3-1.9 4.2-2.6 5.4-.7 1.3 0 .1-.1.2-.6 1.1-.9 1.7-.9 1.7-.4.8-.9 1.5-1.1 1.5-.2 0-.5-2.1.1-5 1.2-6 4-15.4 3.9-15.8 0-.2.5-1.8-1.8-2.7-2.3-.8-3.1.6-3.3.6-.2 0-.3.5-.3.5s2.5-10.6-4.8-10.6c-4.6 0-11 5-14.2 9.6-2 1.1-6.3 3.4-10.8 5.9-1.7.9-3.5 1.9-5.2 2.8l-.3-.4c-8.9-9.5-25.5-16.3-24.8-29.1.3-4.7 1.9-16.9 31.8-31.8 24.5-12.2 44.1-8.8 47.5-1.4 4.8 10.6-10.5 30.4-35.9 33.2-9.7 1.1-14.8-2.7-16.1-4.1-1.3-1.5-1.5-1.5-2-1.3-.8.4-.3 1.8 0 2.5.8 2 3.9 5.5 9.2 7.2 4.7 1.5 16 2.4 29.8-2.9 15.4-6 27.4-22.5 23.9-36.4-3.6-14.1-27-18.7-49.1-10.9-13.2 4.7-27.4 12-37.7 21.6C193-10.9 191.1-1 191.9 3.1c2.8 14.7 23.1 24.3 31.3 31.4-.4.2-.8.4-1.1.6-4.1 2-19.5 10.1-23.4 18.7-4.4 9.7.7 16.7 4.1 17.6 10.4 2.9 21.1-2.3 26.9-10.9 5.8-8.6 5.1-19.8 2.4-24.8l-.1-.2 3.2-1.9c2.1-1.2 4.1-2.3 5.9-3.3-1 2.7-1.7 5.9-2.1 10.6-.4 5.5 1.8 12.6 4.8 15.4 1.3 1.2 2.9 1.3 3.8 1.3 3.4 0 5-2.8 6.7-6.3 2.1-4.2 4-9 4-9s-2.3 13 4.1 13c2.3 0 4.7-3 5.8-4.6 0 0 .1-.1.2-.3.3-.4.4-.6.4-.6v-.1c.9-1.6 3-5.3 6.2-11.5 4-7.9 7.9-17.9 7.9-17.9s.4 2.4 1.5 6.4c.7 2.4 2.2 5 3.3 7.5-.9 1.3-1.5 2.1-1.5 2.1-.8 1-1.6 2.1-2.5 3.1-3.2 3.8-7 8.2-7.5 9.4-.6 1.5-.5 2.6.7 3.4.8.6 2.3.8 3.9.6 2.9-.2 4.9-.9 5.9-1.3 1.6-.6 3.3-1.4 5.1-2.7 3.1-2.3 5-5.6 4.8-10-.1-2.4-.9-4.8-1.8-7 .3-.4.6-.8.8-1.3 4.9-7.2 8.8-15.2 8.8-15.2s.4 2.4 1.5 6.4c.6 2 1.8 4.3 2.8 6.4-4.6 3.8-7.5 8.2-8.5 11-1.8 5.3-.4 7.7 2.3 8.3 1.2.3 3-.3 4.3-.9 1.6-.5 3.6-1.4 5.4-2.8 3.1-2.3 6.1-5.5 6-9.9-.1-2-.6-4-1.3-5.8 3.9-1.6 9-2.6 15.5-1.8 13.9 1.6 16.7 10.3 16.1 13.9-.5 3.6-3.4 5.6-4.4 6.3-1 .6-1.3.8-1.2 1.3.1.7.6.6 1.4.5 1.2-.2 7.3-3 7.6-9.7.2-8.1-7.9-17.4-22.4-17.3zM222.2 57.3c-4.6 5-11.1 6.9-13.8 5.3-3-1.7-1.8-9.1 3.8-14.5 3.4-3.3 7.9-6.3 10.8-8.1.7-.4 1.7-1 2.8-1.7.2-.1.3-.2.3-.2.2-.1.5-.3.7-.4 2.3 7.6.3 14.3-4.6 19.6zm33.6-22.8c-1.6 3.9-5 13.9-7 13.4-1.8-.5-2.8-8.1-.3-15.6 1.3-3.8 3.9-8.3 5.5-10 2.5-2.8 5.3-3.8 6-2.6.7 1.5-3.2 12.3-4.2 14.8zm27.7 13.2c-.7.3-1.3.6-1.6.4-.2-.1.3-.6.3-.6s3.5-3.7 4.8-5.4c.8-1 1.7-2.2 2.7-3.5v.4c.1 4.5-4.2 7.5-6.2 8.7zm21.4-4.9c-.5-.4-.4-1.5 1.3-5.2.7-1.4 2.2-3.8 4.8-6.1.3.9.5 1.8.5 2.7-.1 5.7-4.1 7.8-6.6 8.6z"/></svg>