<?xml version="1.0" encoding="utf-8"?>
<!-- Generator: Adobe Illustrator 19.0.0, SVG Export Plug-In . SVG Version: 6.00 Build 0)  -->
<svg version="1.1" id="Capa_1" xmlns="http://www.w3.org/2000/svg" xmlns:xlink="http://www.w3.org/1999/xlink" x="0px" y="0px"
	 viewBox="-285 408.9 24 24" style="enable-background:new -285 408.9 24 24;" xml:space="preserve">
<path d="M-280,411.9h14c1.1,0,2,0.9,2,2v14c0,1.1-0.9,2-2,2h-14c-1.1,0-2-0.9-2-2v-14C-282,412.8-281.1,411.9-280,411.9
	 M-278.1,424.3c-0.9,0-1.7,0.8-1.7,1.7c0,0.9,0.8,1.7,1.7,1.7s1.7-0.8,1.7-1.7C-276.4,425.1-277.2,424.3-278.1,424.3 M-279.9,418.6
	v2.3c3.8,0,6.9,3.1,6.9,6.9h2.3C-270.7,422.7-274.8,418.6-279.9,418.6 M-279.9,414v2.3c6.3,0,11.4,5.1,11.4,11.4h2.3
	C-266.1,420.2-272.3,414-279.9,414z"/>
</svg>
