<?xml version="1.0" encoding="utf-8"?>
<!-- Generator: Adobe Illustrator 19.0.0, SVG Export Plug-In . SVG Version: 6.00 Build 0)  -->
<svg version="1.1" id="Capa_1" xmlns="http://www.w3.org/2000/svg" xmlns:xlink="http://www.w3.org/1999/xlink" x="0px" y="0px"
	 viewBox="-285 408.9 24 24" style="enable-background:new -285 408.9 24 24;" xml:space="preserve">
<style type="text/css">
	.st0{fill:#FFFFFF;}
</style>
<path d="M-265,410.9h-16c-1.1,0-2,0.9-2,2v16c0,1.1,0.9,2,2,2h16c1.1,0,2-0.9,2-2v-16C-263,411.8-263.9,410.9-265,410.9z"/>
<path class="st0" d="M-279.4,423.1h1.2v5.3h8.9v-5.3h1.2v6.4h-11.3L-279.4,423.1 M-270.5,427.3h-6.7V426h6.7V427.3 M-270.6,425.2
	l-6.7-0.5l0.1-1.3l6.7,0.5L-270.6,425.2 M-270.5,423.5l-6.4-1.7l0.4-1.3l6.4,1.7L-270.5,423.5 M-270.1,421.5l-5.8-3.4l0.7-1.2
	l5.8,3.3L-270.1,421.5 M-269.2,420l-3.9-5.4l1.1-0.8l3.9,5.4L-269.2,420 M-267.9,419.1l-0.8-6.7l1.3-0.1l0.8,6.7L-267.9,419.1z"/>
</svg>
