<?xml version="1.0" encoding="utf-8"?>
<!-- Generator: Adobe Illustrator 19.0.0, SVG Export Plug-In . SVG Version: 6.00 Build 0)  -->
<svg version="1.1" id="Capa_1" xmlns="http://www.w3.org/2000/svg" xmlns:xlink="http://www.w3.org/1999/xlink" x="0px" y="0px"
	 viewBox="-285 408.9 24 24" style="enable-background:new -285 408.9 24 24;" xml:space="preserve">
<style type="text/css">
	.st0{fill:#FFFFFF;}
</style>
<path d="M-265,410.9h-16c-1.1,0-2,0.9-2,2v16c0,1.1,0.9,2,2,2h16c1.1,0,2-0.9,2-2v-16C-263,411.8-263.9,410.9-265,410.9z"/>
<path class="st0" d="M-278.9,426.9c0,0.5,0.4,0.9,0.9,0.9h10.2c0.5,0,0.9-0.4,0.9-0.9c0-0.2-0.1-0.3-0.2-0.5l-5-8.6v-3.7h-1.7v3.7
	l-5,8.6C-278.8,426.5-278.9,426.7-278.9,426.9 M-278,429.4c-1.4,0-2.6-1.1-2.6-2.6c0-0.5,0.2-1,0.4-1.4l4.7-8.1v-1.5
	c-0.5,0-0.9-0.4-0.9-0.9V414c0-0.9,0.8-1.7,1.7-1.7h3.4c0.9,0,1.7,0.8,1.7,1.7v0.9c0,0.5-0.4,0.9-0.9,0.9v1.5l4.7,8.1
	c0.3,0.4,0.4,0.9,0.4,1.4c0,1.4-1.1,2.6-2.6,2.6H-278 M-272,424.3l1.1-1.1l1.6,2.8h-7.3l2.3-3.9L-272,424.3 M-272.5,420.9
	c0.2,0,0.4,0.2,0.4,0.4s-0.2,0.4-0.4,0.4c-0.2,0-0.4-0.2-0.4-0.4S-272.7,420.9-272.5,420.9z"/>
</svg>
