<?xml version="1.0" encoding="utf-8"?>
<!-- Generator: Adobe Illustrator 19.0.0, SVG Export Plug-In . SVG Version: 6.00 Build 0)  -->
<svg version="1.1" id="Capa_1" xmlns="http://www.w3.org/2000/svg" xmlns:xlink="http://www.w3.org/1999/xlink" x="0px" y="0px"
	 viewBox="-285 408.9 24 24" style="enable-background:new -285 408.9 24 24;" xml:space="preserve">
<style type="text/css">
	.st0{fill:#FFFFFF;}
</style>
<path d="M-265,410.9h-16c-1.1,0-2,0.9-2,2v16c0,1.1,0.9,2,2,2h16c1.1,0,2-0.9,2-2v-16C-263,411.8-263.9,410.9-265,410.9z"/>
<path class="st0" d="M-265.8,422.3l-2-1.3l2-1.3 M-272.5,427.8v-3.6l3.4-2.2l2.7,1.8 M-273.3,422.8l-2.7-1.8l2.7-1.8l2.7,1.8
	 M-274.1,427.8l-6.1-4l2.7-1.8l3.4,2.2 M-280.8,419.7l2,1.3l-2,1.3 M-274.1,414.2v3.6l-3.4,2.2l-2.7-1.8 M-272.5,414.2l6.1,4
	l-2.7,1.8l-3.4-2.2 M-264.3,418.1L-264.3,418.1L-264.3,418.1c0-0.1,0-0.1,0-0.2l0,0l0,0c0,0,0,0,0-0.1l0,0c0,0,0,0,0-0.1l0,0l0,0
	l0,0l0,0l0,0l0,0l-8.2-5.5c-0.3-0.2-0.6-0.2-0.9,0l-8.2,5.5l0,0l0,0l0,0l0,0l0,0l0,0c0,0,0,0,0,0.1l0,0c0,0,0,0,0,0.1l0,0l0,0
	c0,0,0,0,0,0.1c0,0,0,0,0,0.1l0,0v0.1v5.5v0.1l0,0c0,0,0,0,0,0.1c0,0,0,0,0,0.1l0,0l0,0c0,0,0,0,0,0.1l0,0c0,0,0,0,0,0.1l0,0l0,0
	l0,0l0,0l0,0l0,0l8.2,5.5c0.1,0.1,0.3,0.1,0.4,0.1c0.1,0,0.3,0,0.4-0.1l8.2-5.5l0,0l0,0l0,0l0,0l0,0l0,0c0,0,0,0,0-0.1l0,0
	c0,0,0,0,0-0.1l0,0l0,0v-0.1c0,0,0,0,0-0.1l0,0v-0.1v-5.5C-264.3,418.2-264.3,418.2-264.3,418.1z"/>
</svg>
