<?xml version="1.0" encoding="utf-8"?>
<!-- Generator: Adobe Illustrator 19.0.0, SVG Export Plug-In . SVG Version: 6.00 Build 0)  -->
<svg version="1.1" id="Capa_1" xmlns="http://www.w3.org/2000/svg" xmlns:xlink="http://www.w3.org/1999/xlink" x="0px" y="0px"
	 viewBox="0 0 24 24" style="enable-background:new 0 0 24 24;" xml:space="preserve">
<style type="text/css">
	.st0{fill:#343434;}
	.st1{fill:#FFFFFF;}
</style>
<rect id="XMLID_18_" class="st0" width="24" height="24"/>
<g>
	<polygon id="XMLID_17_" class="st1" points="14.7,6.2 9.3,6.2 12,9.3 	"/>
	<polygon id="XMLID_16_" class="st1" points="12.5,10.3 12.5,13.3 14.8,13.3 14.8,7.8 12.5,10.3 	"/>
	<polygon id="XMLID_15_" class="st1" points="11.5,10.3 9.2,7.8 9.2,13.3 11.5,13.3 	"/>
	<rect id="XMLID_14_" x="15.9" y="6.2" class="st1" width="0.1" height="7.1"/>
	<rect id="XMLID_13_" x="8" y="6.2" class="st1" width="0.1" height="7.1"/>
	<path class="st1" d="M7.5,17.8h0.4v-0.2H7.7l-0.5-1.2c0.2-0.1,0.4-0.4,0.4-0.6v-0.6c0-0.4-0.3-0.7-0.7-0.7H6.2v0.1h0.1v3H6.2v0H6.1
		l-0.7-3h0.1v-0.1H5.1v0.1h0.1l-0.7,3H4.4v0H4.3v-3h0.1v-0.1H4v0.1H4l-0.7,1.1l-0.7-1.1h0.1v-0.1H2.4v0.1h0.1v3H2.4v0.2h0.4v-0.2
		H2.7v-2.9l0.7,1.2l0.7-1.2v2.9H4v0.2h0.4v0h0.4v-0.2H4.6l0.3-1.1h0.8l0.3,1.1H5.8v0.2h0.4v0h0.4v-0.2H6.5v-1.2h0.4
		c0.1,0,0.1,0,0.2,0l0.5,1.2H7.5V17.8z M4.9,16.4l0.3-1.5l0.3,1.5H4.9z M6.9,16.3H6.5v-1.7h0.4c0.2,0,0.3,0.1,0.4,0.2
		c0.1,0.1,0.2,0.3,0.2,0.4v0.6c0,0.1-0.1,0.3-0.2,0.4C7.2,16.3,7,16.3,6.9,16.3z"/>
	<path class="st1" d="M11.2,14.6h0.1v2.7l-1.2-2.7h0.1v-0.1H9.9h0H9.5h0H7.7v0.3h0.2v-0.1h0.7v3H8.4v0.2h0.4v-0.2H8.7v-3h0.7v0.1
		h0.2v-0.1h0.1v3H9.5v0.2h0.4h0h0.4v-0.2h-0.1v-2.8l1.2,2.8h-0.1v0.2h0.4v-0.2h-0.1v-3h0.1v-0.1h-0.4V14.6z M10,17.6H9.9h0H9.7v-3
		h0.1h0H10V17.6z"/>
	<path class="st1" d="M13.2,15.5h0.1v-0.2H13v0.2h0.1v0.5h-0.7c-0.3,0-0.6-0.3-0.6-0.6v-0.3c0-0.3,0.3-0.6,0.6-0.6h0.5v-0.1h-0.5
		c-0.4,0-0.7,0.3-0.7,0.7v0.3c0,0.3,0.2,0.5,0.4,0.6c-0.2,0.1-0.4,0.4-0.4,0.6v0.3c0,0.4,0.3,0.7,0.7,0.7h0.2c0.4,0,0.7-0.3,0.7-0.7
		v-0.9h0.3v-0.1h-0.3V15.5z M13.1,17.1c0,0.3-0.3,0.6-0.6,0.6h-0.2c-0.3,0-0.6-0.3-0.6-0.6v-0.3c0-0.3,0.3-0.6,0.6-0.6h0.7V17.1z"/>
	<polygon id="XMLID_5_" class="st1" points="14.1,16.5 14.9,14.6 15,14.6 15,14.4 14.7,14.4 14.7,14.6 14.7,14.6 14,16.3 13.3,14.6 
		13.4,14.6 13.4,14.4 13,14.4 13,14.6 13.2,14.6 14,16.5 14,17.6 13.8,17.6 13.8,17.8 14.2,17.8 14.2,17.6 14.1,17.6 	"/>
	<path class="st1" d="M15.8,14.4h-0.2c-0.4,0-0.7,0.3-0.7,0.7v1.9c0,0.4,0.3,0.7,0.7,0.7h0.2c0.4,0,0.7-0.3,0.7-0.7v-1.9
		C16.5,14.8,16.2,14.4,15.8,14.4z M16.4,17.1c0,0.3-0.3,0.6-0.6,0.6h-0.2c-0.3,0-0.6-0.3-0.6-0.6v-1.9c0-0.3,0.3-0.6,0.6-0.6h0.2
		c0.3,0,0.6,0.3,0.6,0.6V17.1z"/>
	<path id="XMLID_2_" class="st1" d="M19.7,14.6h0.1v2.7l-1.2-2.7h0.1v-0.1h-0.4h0H18v0.1h0.1v2.5c0,0.3-0.3,0.6-0.6,0.6h-0.2
		c-0.3,0-0.6-0.3-0.6-0.6v-2.5h0.1v-0.1h-0.4v0.1h0.1v2.5c0,0.4,0.3,0.7,0.7,0.7h0.2c0.4,0,0.7-0.3,0.7-0.7v-2.5h0.1h0h0.1v3h-0.1
		v0.2h0.4v-0.2h-0.1v-2.8l1.2,2.8h-0.1v0.2h0.4v-0.2H20v-3h0.1v-0.1h-0.4V14.6z"/>
	<path id="XMLID_1_" class="st1" d="M21,16.4v-0.1h-0.1v0.4H21v-0.1h0.5v1.1h-0.6c-0.2,0-0.3-0.1-0.4-0.2c-0.1-0.1-0.2-0.3-0.2-0.4
		v-1.9c0-0.1,0.1-0.3,0.2-0.4c0.1-0.1,0.3-0.2,0.4-0.2h0.5v0.1h0.2v-0.3h-0.6c-0.4,0-0.7,0.3-0.7,0.7v1.9c0,0.4,0.3,0.7,0.7,0.7h0.8
		v-1.4H21z"/>
</g>
</svg>
