<?xml version="1.0" encoding="utf-8"?>
<!-- Generator: Adobe Illustrator 19.0.0, SVG Export Plug-In . SVG Version: 6.00 Build 0)  -->
<svg version="1.1" id="Capa_1" xmlns="http://www.w3.org/2000/svg" xmlns:xlink="http://www.w3.org/1999/xlink" x="0px" y="0px"
	 viewBox="0 0 24 24" style="enable-background:new 0 0 24 24;" xml:space="preserve">
<style type="text/css">
	.st0{fill:#343434;}
	.st1{fill:#FFFFFF;}
</style>
<rect id="XMLID_11_" class="st0" width="24" height="24"/>
<g id="XMLID_22_">
	<path id="XMLID_44_" class="st1" d="M9.9,12.6H8.7v0.3h0.2v1.7c0,0.1,0.1,0.2,0.2,0.2H10c0.1,0,0.2-0.1,0.2-0.2v-0.3H9.9v0.1
		c0,0,0,0.1-0.1,0.1H9.3c0,0-0.1,0-0.1-0.1v-0.6h0.7v-0.3H9.2v-0.7h0.6c0,0,0.1,0,0.1,0.1V13h0.3v-0.3C10.1,12.6,10.1,12.6,9.9,12.6
		"/>
	<path id="XMLID_43_" class="st1" d="M11.3,12.5c-0.6,0-1.1,0.5-1.1,1.1c0,0.7,0.5,1.1,1,1.1c0.4,0,0.7-0.3,0.7-0.3l0,0
		c0,0,0,0,0,0.1v0.1h0.3v-0.9c0-0.1-0.1-0.2-0.2-0.2h-0.3v0.3h0.1c0,0,0.1,0,0.1,0.1v0.2c0,0-0.2,0.3-0.6,0.3
		c-0.4,0-0.8-0.3-0.8-0.8c0-0.5,0.3-0.8,0.8-0.8c0.3,0,0.6,0.2,0.6,0.2l0.2-0.2C12.1,12.8,11.8,12.5,11.3,12.5"/>
	<path id="XMLID_40_" class="st1" d="M13.5,12.6h-0.3l-0.7,1.8c0,0,0,0.1-0.1,0.1h0v0.3h0.2c0.2,0,0.2,0,0.3-0.2l0.2-0.4h0.8
		l0.2,0.4c0,0.1,0.1,0.2,0.3,0.2h0.2v-0.3h0c0,0-0.1,0-0.1-0.1L13.5,12.6z M13.1,13.8l0.2-0.6c0-0.1,0.1-0.3,0.1-0.3h0
		c0,0,0,0.2,0.1,0.3l0.2,0.6H13.1z"/>
	<path id="XMLID_39_" class="st1" d="M16.6,12.6h-0.3c-0.1,0-0.2,0.1-0.2,0.2v1.1c0,0.1,0,0.3,0,0.3l0,0c0,0-0.1-0.2-0.2-0.3
		L15,12.6h-0.3v1.8c0,0,0,0.1-0.1,0.1h-0.1v0.3h0.3c0.1,0,0.2-0.1,0.2-0.2v-1.2c0-0.1,0-0.3,0-0.3l0,0c0,0,0.1,0.2,0.2,0.3l0.9,1.3
		h0.3v-1.8c0,0,0-0.1,0.1-0.1h0.1L16.6,12.6L16.6,12.6z"/>
	<path id="XMLID_38_" class="st1" d="M18.4,12.6H17c-0.1,0-0.2,0-0.2,0.2V13H17v-0.1c0,0,0-0.1,0.1-0.1h0.4v1.9h0.3v-1.9h0.4
		c0,0,0.1,0,0.1,0.1V13h0.3v-0.3C18.6,12.6,18.5,12.6,18.4,12.6"/>
	<polygon id="XMLID_37_" class="st1" points="19.5,12.6 18.8,12.6 18.8,12.8 19,12.8 19,14.4 18.8,14.4 18.8,14.7 19.5,14.7 
		19.5,14.4 19.3,14.4 19.3,12.8 19.5,12.8 	"/>
	<path id="XMLID_34_" class="st1" d="M20.8,12.6h-0.3l-0.7,1.8c0,0,0,0.1-0.1,0.1h0v0.3h0.2c0.2,0,0.2,0,0.3-0.2l0.2-0.4H21l0.2,0.4
		c0,0.1,0.1,0.2,0.3,0.2h0.2v-0.3h0c0,0-0.1,0-0.1-0.1L20.8,12.6z M20.3,13.8l0.2-0.6c0-0.1,0.1-0.3,0.1-0.3h0c0,0,0,0.2,0.1,0.3
		l0.2,0.6H20.3z"/>
	<path id="XMLID_31_" class="st1" d="M9.4,11.2c0.2,0,0.3-0.1,0.3-0.3c0-0.2-0.1-0.3-0.3-0.3H9.1v0.6H9.4L9.4,11.2z M8.8,10.6H8.7
		v-0.2h0.7c0.3,0,0.5,0.2,0.5,0.5c0,0.3-0.2,0.4-0.3,0.4l0,0c0,0,0,0,0.1,0.1l0.2,0.4c0,0,0.1,0,0.1,0h0V12H9.9
		c-0.1,0-0.2,0-0.2-0.1l-0.2-0.4c0-0.1-0.1-0.1-0.2-0.1H9.1V12H8.9L8.8,10.6L8.8,10.6z"/>
	<path id="XMLID_30_" class="st1" d="M10.2,10.7C10.2,10.6,10.2,10.6,10.2,10.7l-0.1,0v-0.2h0.2c0.1,0,0.1,0,0.1,0.1v0.9
		c0,0.2,0.1,0.4,0.4,0.4s0.4-0.1,0.4-0.4v-0.9c0-0.1,0-0.1,0.1-0.1h0.2v0.2h-0.1c0,0,0,0,0,0v0.8c0,0.3-0.2,0.6-0.6,0.6
		c-0.4,0-0.6-0.2-0.6-0.6L10.2,10.7L10.2,10.7z"/>
	<path id="XMLID_27_" class="st1" d="M12.3,11.2c0.2,0,0.3-0.1,0.3-0.3c0-0.2-0.1-0.3-0.3-0.3H12v0.6H12.3L12.3,11.2z M11.8,10.6
		h-0.1v-0.2h0.7c0.3,0,0.5,0.2,0.5,0.5s-0.2,0.5-0.5,0.5H12V12h-0.2L11.8,10.6L11.8,10.6z"/>
	<path id="XMLID_24_" class="st1" d="M13.8,11.8c0.3,0,0.6-0.3,0.6-0.6c0-0.3-0.3-0.6-0.6-0.6c-0.3,0-0.6,0.3-0.6,0.6
		C13.2,11.5,13.5,11.8,13.8,11.8 M13.8,10.4c0.5,0,0.8,0.3,0.8,0.8S14.2,12,13.8,12c-0.5,0-0.8-0.4-0.8-0.8S13.3,10.4,13.8,10.4"/>
	<path id="XMLID_23_" class="st1" d="M10.5,15.4v0.4c0,0.1-0.1,0.2-0.2,0.2H8.5c-0.1,0-0.2-0.1-0.2-0.2V11c0-0.4-0.2-0.6-0.6-0.6
		H6.9v0.8h0.4c0.1,0,0.2,0.1,0.2,0.2v0.8c-0.2,0.2-0.8,0.7-1.8,0.7c-1.3,0-2.3-1-2.3-2.5C3.4,9,4.4,8,5.7,8c1.1,0,1.8,0.6,1.8,0.6
		l0.5-0.7c0,0-0.8-0.8-2.3-0.8c-1.8,0-3.2,1.4-3.2,3.2c0,2,1.4,3.3,3.1,3.3c1,0,1.7-0.5,1.9-0.7v3.2c0,0.4,0.2,0.6,0.6,0.6h2.7
		c0.4,0,0.6-0.2,0.6-0.6v-0.8H10.5L10.5,15.4z"/>
</g>
</svg>
