<svg id="Capa_1" xmlns="http://www.w3.org/2000/svg" viewBox="0 0 200 200"><style>.st0{fill:#222222;} .st1{fill:#FFFFFF;} .st2{fill:none;}</style><path class="st0" d="M0 0h200v200H0V0z"/><path class="st1" d="M129.6 84.8H119v-3.3h6.8c1.5 0 2.7-1.2 2.7-2.7v-.1c0-1.5-1.2-2.7-2.7-2.7H119v-2.8h6.8c1.5 0 2.7-1.2 2.7-2.7v-.1c0-1.5-1.2-2.7-2.7-2.7h-22.1c.2-2.3.9-6.3 3.1-7.8.7-.5 1.6-.7 2.3-.5.2.7.9 1.2 1.6 1 .7-.2 1.2-.9 1-1.6-.2-.7-.9-1.2-1.6-1-.2.1-.5.2-.7.4-1.2-.2-2.4 0-3.4.7-2.6 1.8-3.4 6.3-3.6 8.9h-3.9c-.2-2.6-1-7-3.6-8.9-1-.7-2.3-.9-3.4-.7-.5-.5-1.4-.6-2-.1-.5.5-.6 1.4-.1 2 .5.5 1.4.6 2 .1.2-.2.3-.4.4-.7.8-.2 1.6.1 2.3.5 2.1 1.5 2.8 5.5 3.1 7.8h-23c-1.5 0-2.7 1.2-2.7 2.7v.1c0 1.5 1.2 2.7 2.7 2.7h7.3v2.8h-7.3c-1.5 0-2.7 1.2-2.7 2.7v.1c0 1.5 1.2 2.7 2.7 2.7h7.3v3.3H70c-1.7 0-3.1 1.3-3.1 3.1v.1c0 1.7 1.4 3.1 3.1 3.1h1.4v5.9c0 1.8 1.4 3.2 3.2 3.2h.1c1.8 0 3.2-1.5 3.2-3.2V91h3.4v3.7c0 1 .9 1.9 1.9 1.9 1 0 1.9-.9 1.9-1.9v-3.6h30v3.6c0 1 .9 1.9 1.9 1.9 1 0 1.9-.9 1.9-1.9v-3.6h2.9V97c0 1.8 1.4 3.2 3.2 3.2h.1c1.8 0 3.2-1.5 3.2-3.2v-5.9h1.3c1.7 0 3.1-1.4 3.1-3.1v-.1c0-1.7-1.4-3.1-3.1-3.1zm-14.5 0h-30v-3.3h30v3.3zm0-8.7h-30v-2.8h30v2.8z"/><path class="st2" d="M91.7 136c3.4 0 4.9-1.7 4.9-5.3 0-3.6-1.6-5.3-4.9-5.3-1.9 0-3.6.9-4.6 2.4v4.2c0 3.4 2.9 4 4.6 4zm18.4-10.7c-2.7 0-4.5 1.3-4.9 3.7h9.3c-.1-2.5-1.6-3.7-4.4-3.7zm-37 0c-2.7 0-4.5 1.3-4.9 3.7h9.3c-.1-2.5-1.6-3.7-4.4-3.7zM36.9 136c3.4 0 4.9-1.7 4.9-5.3 0-3.6-1.6-5.3-4.9-5.3-1.9 0-3.6.9-4.6 2.4v4.2c0 3.4 2.9 4 4.6 4zm18.4-10.7c-2.7 0-4.5 1.3-4.9 3.7h9.3c-.1-2.5-1.6-3.7-4.4-3.7z"/><path class="st1" d="M28.9 132c0 4.2 3 6.7 8 6.7 5.4 0 8.3-2.9 8.3-8.1 0-5.2-2.8-8.1-8.1-8.1-1.7 0-3.4.5-4.8 1.5v-8.1l-3.4-1.6V132zm3.4-4.2c1-1.6 2.7-2.5 4.6-2.4 3.3 0 4.9 1.7 4.9 5.3 0 3.6-1.6 5.3-4.9 5.3-1.7 0-4.6-.5-4.6-3.9v-4.3zm23-5.3c-5.2 0-8.4 2.9-8.4 8.1 0 5.3 3.1 8.1 8.8 8.1 2.3.1 4.5-.5 6.3-1.9.4-.2.5-.6.6-1.1-.1-.8-.8-1.4-1.6-1.4-.3 0-.6.1-.9.2-1.3.9-2.8 1.3-4.3 1.3-3.1 0-5.1-1.6-5.3-4.2h10.6c2 0 2-1.6 2-2.5 0-1-.4-6.6-7.8-6.6zm-4.9 6.5c.4-2.3 2.1-3.7 4.9-3.7 2.7 0 4.2 1.2 4.4 3.7h-9.3zm22.7-6.5c-5.3 0-8.4 3-8.4 8.1 0 5.3 3.1 8.1 8.8 8.1 2.3.1 4.5-.5 6.3-1.9.4-.2.5-.6.6-1.1-.1-.8-.8-1.4-1.6-1.4-.3 0-.6.1-.9.2-1.3.9-2.8 1.3-4.3 1.3-3.1 0-5.1-1.6-5.3-4.2h10.6c2 0 2-1.6 2-2.5 0-1-.4-6.6-7.8-6.6zm-4.8 6.5c.4-2.3 2.1-3.7 4.9-3.7 2.7 0 4.2 1.2 4.4 3.7h-9.3zm15.5 3c0 4.2 3 6.7 8 6.7 5.4 0 8.3-2.9 8.3-8.1 0-5.2-2.8-8.1-8.1-8.1-1.7 0-3.4.5-4.8 1.5v-8.1l-3.4-1.6V132zm3.4-4.2c1-1.6 2.7-2.5 4.6-2.4 3.3 0 4.9 1.7 4.9 5.3 0 3.6-1.6 5.3-4.9 5.3-1.7 0-4.6-.5-4.6-3.9v-4.3zm22.9-5.3c-5.3 0-8.4 3-8.4 8.1 0 5.3 3.1 8.1 8.8 8.1 2.3.1 4.5-.5 6.3-1.9.4-.2.5-.6.6-1.1-.1-.8-.8-1.4-1.6-1.4-.3 0-.6.1-.9.2-1.3.9-2.8 1.3-4.4 1.3-3.1 0-5.1-1.6-5.3-4.2h10.7c2 0 2-1.6 2-2.5.1-1-.3-6.6-7.8-6.6zm-4.8 6.5c.4-2.3 2.1-3.7 4.9-3.7 2.7 0 4.2 1.2 4.4 3.7h-9.3zm23.5-6.5c-1.6-.1-3.3.5-4.6 1.5-.2-.8-.9-1.3-1.7-1.3-.9-.1-1.6.5-1.7 1.4v13c.2.9 1 1.6 2 1.5.8-.1 1.3-.7 1.5-1.5v-7.8c0-2.7 1.5-4 4.6-4 3.4 0 4.1 1.5 4.1 3.8v8.1c.2.9 1 1.6 2 1.5.8-.1 1.3-.7 1.5-1.5v-8.6c-.2-4-2.7-6.1-7.7-6.1zm23.6 11.9c-.3 0-.7.1-1 .3-1.3.9-2.7 1.3-4.2 1.3-3.4 0-4.9-1.7-4.9-5.3 0-3.6 1.6-5.3 4.9-5.3 2.3 0 3.3.9 3.8 1.3.3.3.8.5 1.3.5.8.1 1.5-.5 1.6-1.3 0-.3-.2-.7-.4-.9-.3-.4-2.3-2.3-6.3-2.3-5.4 0-8.4 2.9-8.4 8.1s3 8.1 8.4 8.1c2.2.1 4.3-.5 6.1-1.8.4-.2.7-.7.7-1.2-.1-.9-.8-1.5-1.6-1.5zm19.6 9v-14.9c0-4.1-2.5-6.1-7.5-6.1-1.6-.1-3.3.5-4.6 1.5v-8.1l-3.4-1.6V137c.2.9 1 1.6 2 1.5.8-.1 1.3-.7 1.5-1.5v-7.8c0-2.7 1.5-4 4.6-4 3.4 0 4.1 1.5 4.1 3.8v13l3.4 1.6-.1-.2z"/></svg>