<svg id="Capa_1" xmlns="http://www.w3.org/2000/svg" viewBox="88 -88 200 200"><style>.st0{fill:#222222;} .st1{fill:#F0F0F0;}</style><path class="st0" d="M88-88h200v200H88z"/><path class="st1" d="M170.8 16.8h-10.4V19h1.6v14c0 1.1.5 1.6 1.6 1.6h7.9c1.1 0 1.6-.5 1.6-1.6v-2.2h-2.3v1.1c0 .4-.2.6-.6.6H165c-.3 0-.6-.2-.6-.6v-5.2h6.2v-2.2h-6.2v-5.6h5.1c.4 0 .6.2.6.6v1.1h2.3v-2.2c0-1.1-.4-1.6-1.6-1.6m11.6-.3c-5.1 0-9 4-9 9.1 0 5.5 3.9 9.3 8.6 9.3 3.5 0 5.5-2.2 5.5-2.2v1.9h2.2v-7.2c0-1.1-.5-1.6-1.6-1.6h-2.3V28h1.1c.4 0 .6.2.6.6v1.8s-1.9 2.2-5.1 2.2c-3.6 0-6.4-2.8-6.4-6.9 0-3.9 2.8-6.8 6.4-6.8 2.9 0 4.9 1.7 4.9 1.7l1.4-1.8c.1-.1-2-2.3-6.3-2.3m18.4.3h-2.6l-5.6 15c-.1.4-.4.6-.8.6h-.4v2.2h1.4c1.3 0 1.7-.3 2.1-1.5l1.3-3.6h6.5l1.3 3.6c.4 1.2.8 1.5 2.1 1.5h1.4v-2.2h-.3c-.4 0-.7-.1-.8-.6l-5.6-15zm-4 10.6l1.9-5.4c.3-.9.7-2.5.7-2.5h.1s.4 1.6.7 2.5l1.9 5.4h-5.3zm29.6-10.6h-2.5c-1.2 0-1.6.5-1.6 1.6V28c0 1 .2 2.4.2 2.4s-.8-1.5-1.5-2.4l-7.9-11.2h-2.3v15c0 .4-.2.6-.6.6h-1.1v2.2h2.5c1.1 0 1.6-.5 1.6-1.6v-9.7c0-1-.2-2.4-.2-2.4s.8 1.5 1.5 2.4l7.9 11.2h2.3v-15c0-.4.2-.6.6-.6h1.1v-2.1zm15.3 0h-12.2c-1.1 0-1.5.4-1.5 1.5v2.3h2.2v-1.1c0-.4.2-.6.6-.6h3.6v15.6h2.5V18.9h3.6c.4 0 .6.2.6.6v1.1h2.2v-2.3c-.1-1.1-.5-1.5-1.6-1.5m8.9 0h-5.9V19h1.7v13.4h-1.7v2.2h5.9v-2.2h-1.8V19h1.8m10.9-2.2h-2.6l-5.6 15c-.2.4-.4.6-.8.6h-.4v2.2h1.4c1.3 0 1.7-.3 2.1-1.5l1.3-3.6h6.5l1.3 3.6c.4 1.2.8 1.5 2.1 1.5h1.4v-2.2h-.4c-.4 0-.7-.1-.8-.6l-5.5-15zm-4 10.6l1.9-5.4c.3-.9.7-2.5.7-2.5h.1s.4 1.6.7 2.5l1.9 5.4h-5.3zM165.9 5c1.4 0 2.2-.9 2.2-2.4s-.8-2.3-2.2-2.3h-2.4V5h2.4zM161.6.3h-1.2v-1.6h5.7c2.3 0 3.9 1.4 3.9 3.8 0 2.2-1.4 3.3-2.3 3.5 0 0 .3.2.6.6l1.6 3.1c.2.4.5.4.9.4h.2v1.6h-.9c-1 0-1.4-.1-1.8-1l-1.8-3.5c-.3-.6-.6-.7-1.3-.7h-1.7v5.2h-1.8L161.6.3zm11.3.5c0-.3-.1-.4-.4-.4h-.8v-1.6h1.9c.8 0 1.2.4 1.2 1.2v7.2c0 2 1.2 3.1 3.1 3.1s3.1-1.2 3.1-3.1V0c0-.8.4-1.2 1.2-1.2h1.8V.4h-.8c-.3 0-.4.1-.4.4v6.5c0 2.8-2 4.8-5 4.8s-5-1.9-5-4.8l.1-6.5zm17.8 4.6c1.5 0 2.5-1 2.5-2.6s-.9-2.5-2.5-2.5h-2.4v5l2.4.1zM186.5.3h-1.2v-1.6h5.8c2.4 0 4.1 1.6 4.1 4.1s-1.7 4.1-4.1 4.1h-2.7v4.8h-1.8L186.5.3zm16.4 10c2.6 0 4.8-2.2 4.8-5.1 0-2.8-2.1-4.9-4.8-4.9-2.6 0-4.8 2.1-4.8 4.9 0 2.9 2.1 5.1 4.8 5.1m0-11.8c3.8 0 6.7 2.9 6.7 6.7s-2.9 6.8-6.7 6.8c-3.8 0-6.7-3-6.7-6.8s2.9-6.7 6.7-6.7"/><path class="st1" d="M175.2 40.8v3.4c0 1.1-.6 1.7-1.6 1.7h-14.7c-1 0-1.6-.6-1.6-1.7V3.4c0-3.4-1.4-4.9-4.7-4.9h-7.5v6.6h3.2c1 0 1.6.5 1.6 1.7v6.3c-1.4 1.4-6.7 6.2-14.9 6.2-10.9 0-19.4-8.3-19.4-20.6 0-11.8 8.6-20.3 19.3-20.3 8.9 0 14.7 5.1 14.7 5.1l4.3-5.5s-6.3-6.5-19.1-6.5c-15.3 0-27 12-27 27.2 0 16.5 11.8 27.7 26.1 27.7 8.7 0 14.3-4.3 16.1-5.9v27.1c0 3.4 1.4 4.9 4.7 4.9h22.5c3.3 0 4.7-1.4 4.7-4.9v-6.8h-6.7z"/></svg>