<svg xmlns="http://www.w3.org/2000/svg" viewBox="171.8 -87.8 200 200"><path d="M294.4-35.9h-45.1L271.7-10M276.1-1.6v24.8H295v-46.3L276.2-1.7M267.4-1.6l-18.9-21.5v46.3h18.9M303.9-35.9h1.2v59.1h-1.2zM238.4-35.9h1.2v59.1h-1.2zM234 60.4h3.2v-1.3H236l-3.9-10.4c1.8-1.1 3-3 3-5.1v-5.1c0-3.3-2.7-5.9-6-5.9h-5.7v1.2h1V59h-2l-5.8-25.2h.8v-1.2h-3.2v1.2h.8L209.2 59h-2V33.8h1v-1.2H205v1.2h.4l-5.4 8.9-5.4-8.9h.4v-1.2h-3.2v1.2h1v25.3h-1v1.3h3.2v-1.3h-1V35.3l6 9.8 6-9.8v23.9h-1v1.3H211.3v-1.3h-.8l2.1-9.4h6.3l2.2 9.4h-.8v1.3H226.6v-1.3h-1v-9.6h3.4c.6 0 1.2-.1 1.8-.3l3.8 9.9h-.6v1.2zm-21.1-11.9l2.9-12.6 2.9 12.6h-5.8zm16.2-.2h-3.4V33.9h3.4c1.3 0 2.4.5 3.3 1.4.8.8 1.4 2.1 1.4 3.3v5.1c0 1.2-.5 2.5-1.4 3.3-.8.8-2 1.3-3.3 1.3zM265.3 33.9h1v22.9l-9.7-22.9h.6v-1.2h-21.3v2.2h1.3v-1h5.6v25.2h-1v1.3h3.3v-1.3h-1V33.9h5.6v1h1.3v-1h.9v25.2h-1.1v1.3h6.5v-1.3h-1v-23l9.8 23h-.6v1.3h3.2v-1.3h-1V33.9h1v-1.2h-3.2v1.2zm-10.4 25.2H253V33.9h1.9v25.2zM282 41.6h1v-1.3h-3.2v1.3h1V46h-6.2c-2.6 0-4.7-2.1-4.7-4.7v-2.8c0-2.6 2.1-4.7 4.7-4.7h4.2v-1.2h-4.2c-3.3 0-5.9 2.6-5.9 5.9v2.8c0 2.3 1.3 4.3 3.3 5.3-2 1-3.3 3-3.3 5.3v2.5c0 3.3 2.7 5.9 5.9 5.9h1.5c3.3 0 6-2.7 6-5.9v-7.1h2.6V46H282v-4.4zm-1.2 12.8c0 2.6-2.1 4.7-4.7 4.7h-1.5c-2.6 0-4.7-2.1-4.7-4.7v-2.5c0-2.6 2.1-4.7 4.7-4.7h6.2v7.2z"/><path d="M289.4 49.4l6.5-15.5h1.2v-1.3h-3.3v1.3h.8l-5.9 13.7-5.8-13.7h.7v-1.3h-3.2v1.3h1.1l6.6 15.5v9.7h-1v1.3h3.2v-1.3h-.9"/><path d="M303.3 32.6h-1.4c-3.3 0-6 2.7-6 5.9v15.9c0 3.3 2.7 5.9 6 5.9h1.4c3.3 0 6-2.7 6-5.9V38.5c0-3.2-2.7-5.9-6-5.9zm4.7 21.8c0 2.6-2.1 4.7-4.7 4.7h-1.4c-2.6 0-4.8-2.1-4.8-4.7V38.5c0-2.6 2.1-4.7 4.7-4.7h1.4c2.6 0 4.7 2.1 4.7 4.7v15.9zM335.8 33.9h1v22.9l-9.7-22.9h.6v-1.2h-6.4v1.2h1v20.6c0 2.6-2.1 4.7-4.7 4.7h-1.4c-2.6 0-4.7-2.1-4.7-4.7V33.9h1v-1.2h-3.2v1.2h1v20.6c0 3.3 2.7 5.9 6 5.9h1.4c3.3 0 6-2.7 6-5.9V33.9h1.9v25.2h-1v1.3h3.2v-1.3h-1v-23l9.8 23h-.6v1.3h3.2v-1.3h-1V33.9h1v-1.2H336v1.2z"/><path d="M346.5 48.6v-1h-1.2v3.2h1.2v-1h4v9.3h-5.4c-1.3 0-2.5-.5-3.4-1.4-.8-.8-1.4-2.2-1.4-3.3V38.5c0-1.2.5-2.5 1.4-3.3.9-.9 2.1-1.4 3.4-1.4h3.9v1h1.3v-2.2h-5.2c-3.3 0-6 2.7-6 5.9v15.9c0 3.3 2.7 5.9 6 5.9h6.6V48.6h-5.2z"/></svg>