<svg xmlns="http://www.w3.org/2000/svg" viewBox="171.8 -87.8 200 200"><path d="M254.6 17h-10.4v2.2h1.6v14c0 1.1.5 1.6 1.6 1.6h7.9c1.1 0 1.6-.5 1.6-1.6V31h-2.3v1.1c0 .4-.2.6-.6.6h-5.2c-.3 0-.6-.2-.6-.6v-5.2h6.2v-2.2h-6.2v-5.6h5.1c.4 0 .6.2.6.6v1.1h2.3v-2.2c0-1.1-.4-1.6-1.6-1.6M266.2 16.7c-5.1 0-9 4-9 9.1 0 5.5 3.9 9.3 8.6 9.3 3.5 0 5.5-2.2 5.5-2.2V34.8h2.2v-7.2c0-1.1-.5-1.6-1.6-1.6h-2.3v2.2h1.1c.4 0 .6.2.6.6v1.8s-1.9 2.2-5.1 2.2c-3.6 0-6.4-2.8-6.4-6.9 0-3.9 2.8-6.8 6.4-6.8 2.9 0 4.9 1.7 4.9 1.7l1.4-1.8c.1-.1-2-2.3-6.3-2.3M284.6 17H282l-5.6 15c-.1.4-.4.6-.8.6h-.4v2.2h1.4c1.3 0 1.7-.3 2.1-1.5l1.3-3.6h6.5l1.3 3.6c.4 1.2.8 1.5 2.1 1.5h1.4v-2.2h-.3c-.4 0-.7-.1-.8-.6l-5.6-15zm-4 10.6l1.9-5.4c.3-.9.7-2.5.7-2.5h.1s.4 1.6.7 2.5l1.9 5.4h-5.3zM310.2 17h-2.5c-1.2 0-1.6.5-1.6 1.6v9.6c0 1 .2 2.4.2 2.4s-.8-1.5-1.5-2.4L296.9 17h-2.3v15c0 .4-.2.6-.6.6h-1.1v2.2h2.5c1.1 0 1.6-.5 1.6-1.6v-9.7c0-1-.2-2.4-.2-2.4s.8 1.5 1.5 2.4l7.9 11.2h2.3v-15c0-.4.2-.6.6-.6h1.1V17zM325.5 17h-12.2c-1.1 0-1.5.4-1.5 1.5v2.3h2.2v-1.1c0-.4.2-.6.6-.6h3.6v15.6h2.5V19.1h3.6c.4 0 .6.2.6.6v1.1h2.2v-2.3c-.1-1.1-.5-1.5-1.6-1.5M334.4 17h-5.9v2.2h1.7v13.4h-1.7v2.2h5.9v-2.2h-1.8V19.2h1.8M345.3 17h-2.6l-5.6 15c-.2.4-.4.6-.8.6h-.4v2.2h1.4c1.3 0 1.7-.3 2.1-1.5l1.3-3.6h6.5l1.3 3.6c.4 1.2.8 1.5 2.1 1.5h1.4v-2.2h-.4c-.4 0-.7-.1-.8-.6l-5.5-15zm-4 10.6l1.9-5.4c.3-.9.7-2.5.7-2.5h.1s.4 1.6.7 2.5l1.9 5.4h-5.3zM249.7 5.2c1.4 0 2.2-.9 2.2-2.4s-.8-2.3-2.2-2.3h-2.4v4.7h2.4zM245.4.5h-1.2v-1.6h5.7c2.3 0 3.9 1.4 3.9 3.8 0 2.2-1.4 3.3-2.3 3.5 0 0 .3.2.6.6l1.6 3.1c.2.4.5.4.9.4h.2v1.6h-.9c-1 0-1.4-.1-1.8-1l-1.8-3.5c-.3-.6-.6-.7-1.3-.7h-1.7v5.2h-1.8L245.4.5zM256.7 1c0-.3-.1-.4-.4-.4h-.8V-1h1.9c.8 0 1.2.4 1.2 1.2v7.2c0 2 1.2 3.1 3.1 3.1 1.9 0 3.1-1.2 3.1-3.1V.2c0-.8.4-1.2 1.2-1.2h1.8V.6h-.8c-.3 0-.4.1-.4.4v6.5c0 2.8-2 4.8-5 4.8s-5-1.9-5-4.8V1h.1zM274.5 5.6c1.5 0 2.5-1 2.5-2.6s-.9-2.5-2.5-2.5h-2.4v5h2.4v.1zM270.3.5h-1.2v-1.6h5.8c2.4 0 4.1 1.6 4.1 4.1s-1.7 4.1-4.1 4.1h-2.7v4.8h-1.8V.5h-.1zM286.7 10.5c2.6 0 4.8-2.2 4.8-5.1 0-2.8-2.1-4.9-4.8-4.9-2.6 0-4.8 2.1-4.8 4.9 0 2.9 2.1 5.1 4.8 5.1m0-11.8c3.8 0 6.7 2.9 6.7 6.7s-2.9 6.8-6.7 6.8c-3.8 0-6.7-3-6.7-6.8s2.9-6.7 6.7-6.7"/><path d="M259 41v3.4c0 1.1-.6 1.7-1.6 1.7h-14.7c-1 0-1.6-.6-1.6-1.7V3.6c0-3.4-1.4-4.9-4.7-4.9h-7.5v6.6h3.2c1 0 1.6.5 1.6 1.7v6.3c-1.4 1.4-6.7 6.2-14.9 6.2-10.9 0-19.4-8.3-19.4-20.6 0-11.8 8.6-20.3 19.3-20.3 8.9 0 14.7 5.1 14.7 5.1l4.3-5.5s-6.3-6.5-19.1-6.5c-15.3 0-27 12-27 27.2 0 16.5 11.8 27.7 26.1 27.7 8.7 0 14.3-4.3 16.1-5.9v27.1c0 3.4 1.4 4.9 4.7 4.9H261c3.3 0 4.7-1.4 4.7-4.9V41H259z"/></svg>