<svg id="Capa_1" xmlns="http://www.w3.org/2000/svg" viewBox="35 8 200 200"><style>.st0{fill:#222222;} .st1{fill:#FFFFFF;}</style><path class="st0" d="M35 8h200v200H35V8z"/><path id="XMLID_16_" class="st1" d="M149 109.1c-.3 3.4-1.7 5.1-4.2 5.1-.5 0-1.1-.1-1.6-.3-.5-.1-.9-.3-1.3-.5l.8-9.8c.3 0 .7-.1 1.1-.1h1.3c1.5 0 2.5.5 3.2 1.5.6 1 .8 2.3.7 4.1m5.4-.2c.1-1.5 0-2.9-.3-4.1-.4-1.2-.9-2.2-1.7-3.2-.8-.8-1.7-1.6-2.9-2-1.2-.5-2.5-.7-4.1-.7-.7 0-1.3 0-2.1.1-.7 0-1.5.1-2.1.3l-2 .4c-.7.1-1.2.3-1.7.4l-2.2 25.1h5.4l.7-7.1c.5.3 1.2.5 1.8.7s1.3.3 2.1.3c1.3 0 2.5-.3 3.7-.7 1.1-.5 2-1.2 2.8-2 .8-.9 1.5-1.8 1.8-3.2.4-1.5.7-2.8.8-4.3"/><path id="XMLID_15_" class="st1" d="M135.4 99.8c-.7-.3-1.5-.5-2.5-.7-1.1-.3-2.1-.3-3.3-.3-.5 0-.9 0-1.5.1-.8 2.2-1.8 4.8-2.2 5.9-.7 1.6-1.3 3.2-1.8 4.6.1.1.3.3.5.3.7.4 1.5.7 2.2.9 1.1.4 1.8.8 2.4 1.1.5.3.8.7.7 1.2 0 .5-.3.9-.7 1.2-.7.3-1.3.3-2.4.3-.9 0-1.8-.1-2.8-.3-.7-.1-1.2-.3-1.8-.5-.1.4-.3.8-.5 1.1-.5 1.2-1.1 2.2-1.5 3 .4.1 1.1.4 2 .7 1.1.3 2.5.4 4.2.4 2.6 0 4.6-.5 6.1-1.5 1.5-.9 2.4-2.4 2.5-4.2.1-.8 0-1.5-.1-2.1-.1-.7-.4-1.2-.8-1.6-.4-.5-.9-.9-1.7-1.3-.8-.4-1.7-.8-2.8-1.3-.5-.3-1.1-.4-1.3-.7-.4-.1-.7-.4-.8-.5-.3-.1-.4-.3-.4-.5 0-.1-.1-.4 0-.5.1-.9.9-1.5 2.6-1.5.9 0 1.7.1 2.5.3.7.1 1.3.4 2 .5l1.2-4.1z"/><path id="XMLID_12_" class="st1" d="M169.1 108.8c-.1 1.7-.5 3-1.3 4-.8.9-1.7 1.5-2.9 1.5s-2.1-.5-2.8-1.5c-.5-.9-.8-2.2-.7-4 .1-1.7.7-2.9 1.3-4 .8-.9 1.7-1.5 3-1.5 1.2 0 2.1.5 2.8 1.5.4 1.1.7 2.4.6 4m5.5 0c.1-1.5 0-2.9-.3-4.1-.4-1.2-.9-2.2-1.6-3.2-.8-.9-1.7-1.6-2.8-2-1.3-.4-2.5-.7-3.8-.7s-2.6.3-3.8.7c-1.2.5-2.2 1.2-3.2 2-.9.9-1.7 2-2.2 3.3-.5 1.2-.9 2.6-1.1 4.1-.1 1.5 0 2.9.3 4.1.4 1.2.9 2.2 1.6 3.2.8.9 1.7 1.6 2.8 2 1.1.5 2.4.7 3.7.7 1.5 0 2.8-.3 4-.7 1.2-.5 2.2-1.2 3.2-2 .9-.9 1.6-2 2.1-3.2.6-1.3 1-2.6 1.1-4.2"/><path id="XMLID_11_" class="st1" d="M189.1 99.7c-.3-.1-.7-.3-1.1-.3-.4-.1-.8-.1-1.2-.3-.4 0-.8-.1-1.2-.1h-1.1c-1.6 0-3 .1-4.5.4-1.3.3-2.5.7-3.6.9l-1.6 18.1h5.4l1.3-14.5c.3-.1.7-.1 1.1-.1.5 0 .9-.1 1.2-.1.8 0 1.5.1 2.1.1.7.1 1.2.3 1.7.4l1.5-4.5z"/><path id="XMLID_10_" class="st1" d="M189.4 110.6c-.1 1.2-.1 2.4 0 3.3.1 1.1.5 1.8.9 2.6.5.7 1.2 1.3 2.1 1.7.9.4 2.1.7 3.6.7 1.2 0 2.1-.1 2.9-.3.8-.1 1.6-.4 2.2-.7l-.4-4.2c-.5.1-1.1.4-1.7.4-.7.1-1.2.1-1.8.1-1.2 0-2-.4-2.4-1.1-.4-.7-.4-1.6-.4-2.8l.5-6.7h6.5l.4-4.5h-6.5l.5-5.5-5 .9-1.4 16.1z"/><path id="XMLID_9_" class="st1" d="M205.9 114.2l-2.8-.8-1.3 4.4c.4.1 1.2.4 2.2.7 1.1.3 2.5.4 4.2.4 2.6 0 4.6-.5 6.1-1.5 1.5-.9 2.4-2.4 2.5-4.2.1-.8 0-1.5-.1-2.1-.1-.7-.4-1.2-.8-1.6-.4-.5-.9-.9-1.7-1.3-.8-.4-1.7-.8-2.8-1.3-.5-.3-1.1-.4-1.3-.7-.4-.1-.7-.4-.8-.5-.3-.1-.4-.3-.4-.5 0-.1-.1-.4 0-.5.1-.9.9-1.5 2.6-1.5.9 0 1.7.1 2.5.3.7.1 1.3.4 2 .5l1.3-4.2c-.7-.3-1.5-.5-2.5-.7-1.1-.3-2.1-.3-3.3-.3-2.4 0-4.2.5-5.5 1.6-1.5 1.1-2.2 2.5-2.4 4.2-.1.9 0 1.7.1 2.4.3.7.5 1.2.9 1.7s.9.9 1.6 1.2c.7.4 1.5.7 2.2.9 1.1.4 1.8.8 2.4 1.1.5.3.8.7.7 1.2 0 .5-.3.9-.7 1.1s-1.2.3-2.1.3c-.9 0-1.9 0-2.8-.3"/><path id="XMLID_8_" class="st1" d="M62.8 118.4c1.5-2.4 2.9-5.3 4.5-8.5s3-6.7 4.5-10.6h-5.5c-.3.9-.7 2-1.1 3-.4 1.1-.8 2.2-1.3 3.3-.4 1.2-.9 2.2-1.3 3.3-.4 1.1-.9 2-1.3 2.9-.3-.9-.5-1.8-.8-2.9-.3-1.1-.5-2.1-.8-3.3-.3-1.1-.5-2.2-.7-3.3-.3-1.1-.5-2.1-.7-3h-5.7c.8 3.8 1.7 7.3 2.6 10.6 1.1 3.2 2 5.9 3 8.5h4.6z"/><path id="XMLID_7_" class="st1" d="M78.6 99.4h-5.4l-1.7 19h5.4l1.7-19z"/><path id="XMLID_6_" class="st1" d="M78.7 91.5c-.5-.5-1.3-.8-2.2-.8-.9 0-1.6.3-2.4.8-.7.5-1.1 1.3-1.2 2.4-.1.9.1 1.7.8 2.4.6.5 1.3.7 2.3.7s1.6-.3 2.4-.8c.7-.5 1.1-1.3 1.2-2.4.1-.9-.2-1.6-.9-2.3"/><path id="XMLID_3_" class="st1" d="M91.7 106.9h-7.1c.1-.4.3-.9.5-1.3.1-.4.4-.8.8-1.2.3-.4.7-.7 1.2-.8.4-.3.9-.3 1.6-.3s1.2.1 1.6.3c.4.3.8.5.9.8.3.4.4.7.5 1.2v1.3m5.1 1.8c.3-3.2-.3-5.7-1.7-7.3-1.5-1.6-3.4-2.5-6.2-2.5-1.2 0-2.2.3-3.4.7-1.2.4-2.1 1.1-3 1.8-.9.8-1.7 1.8-2.4 3.2-.7 1.3-1.1 2.8-1.2 4.5-.1 1.5 0 2.6.3 4 .3 1.2.8 2.2 1.6 3.2.8.9 1.7 1.6 2.9 2.1s2.6.8 4.4.8c.7 0 1.3 0 2-.1s1.3-.1 2-.3c.7-.1 1.2-.3 1.6-.4.5-.1.9-.3 1.2-.4l-.4-4.4c-.7.3-1.5.5-2.4.7-.9.1-2 .3-2.9.3-1.6 0-2.8-.3-3.6-.9-.9-.7-1.3-1.6-1.3-2.6h12.3c0-.3.1-.7.1-1.1 0-.7 0-1.1.1-1.3"/><path id="XMLID_2_" class="st1" d="M111.8 112.9c.4 1.8.8 3.6 1.3 5.4h4.2c.5-1.1 1.1-2.2 1.7-3.6.7-1.5 1.3-2.9 2-4.6s1.5-3.4 2.1-5.3c.8-1.7 1.5-3.6 2.1-5.4h-5.5c-.3.9-.5 1.8-.9 2.9-.3 1.1-.7 2.1-1.1 3.2-.4 1.1-.7 2.1-1.1 3.3l-1.2 3.2c-.3-1.1-.4-2.1-.7-3.3-.1-1.1-.4-2.2-.5-3.3-.1-1.1-.4-2.1-.5-3.2-.1-1.1-.3-2-.4-2.8h-4c-.3.9-.5 1.8-.9 2.8-.4 1.1-.7 2-1.1 3.2-.4 1.1-.8 2.1-1.2 3.3l-1.2 3.3c-.3-1.1-.4-2.1-.5-3.2-.1-1.1-.4-2.2-.5-3.3l-.4-3.2c-.1-1.1-.3-2-.4-2.9h-5.7l1.2 5.5c.4 1.8.8 3.6 1.2 5.3.4 1.7.8 3.2 1.2 4.6.4 1.5.8 2.6 1.1 3.6h4.2c.8-1.8 1.5-3.7 2.2-5.4.7-1.8 1.3-3.6 2-5.4.5 1.7.9 3.6 1.3 5.3"/></svg>