<svg id="Capa_1" xmlns="http://www.w3.org/2000/svg" viewBox="65 -65 200 200"><style>.st0{fill:#222222;} .st1{fill:#F0F0F0;}</style><path class="st0" d="M65-65h200v200H65V-65z"/><path class="st1" d="M165.1 35l-.2.1v-.2z"/><path class="st1" d="M165.1 34.8v.4l-.2-.2zM199.2-15.6V9.7l-23.1 19.2-.2.2-.2-.2-10.5-8.1-10.9 8.4-23.5-19.5v-25.3l23.5 18.8 10.9-8.1 10.7 8zM109.1 50l-4.4-10.6-4.4 10.6h8.8zm-14 7.1l8.6-20h2l8.6 20H112l-2.2-5.2H99.5l-2.2 5.2h-2.2zM125.2 38.9c-.7-.4-1.5-.5-2.5-.5-.5 0-1 .1-1.5.2-.5.2-1 .4-1.4.7-.4.3-.7.7-1 1.2-.3.5-.4 1-.4 1.7 0 .6.1 1.2.4 1.6.2.4.6.8 1 1.1.4.3.9.5 1.4.7.5.2 1.1.4 1.6.6.7.2 1.4.5 2.1.7.7.3 1.3.6 1.9 1 .6.4 1 1 1.4 1.6.4.6.5 1.5.5 2.5s-.2 1.9-.6 2.6c-.4.7-.9 1.3-1.5 1.8s-1.3.8-2.1 1c-.8.2-1.6.3-2.4.3-.6 0-1.2-.1-1.8-.2-.6-.1-1.2-.3-1.7-.6-.5-.2-1.1-.6-1.5-.9-.5-.4-.9-.8-1.2-1.3l1.8-1.3c.4.7 1 1.3 1.8 1.8s1.7.7 2.7.7c.5 0 1-.1 1.6-.2.5-.2 1-.4 1.4-.7.4-.3.8-.7 1-1.2.3-.5.4-1 .4-1.7s-.1-1.3-.4-1.7c-.3-.5-.6-.8-1.1-1.2-.5-.3-1-.6-1.5-.8l-1.8-.6c-.7-.2-1.3-.4-1.9-.7-.6-.3-1.2-.6-1.7-1s-.9-.9-1.2-1.6c-.3-.6-.5-1.4-.5-2.3 0-1 .2-1.8.6-2.5.4-.7.9-1.3 1.5-1.7.6-.5 1.3-.8 2.1-1 .8-.2 1.5-.3 2.2-.3 1.4 0 2.5.2 3.5.7 1 .5 1.7 1 2.2 1.7l-1.6 1.3c-.5-.7-1.1-1.2-1.8-1.5M145.9 55.3v1.8h-12.8v-20h12.4v1.8h-10.3v6.9h9.6v1.8h-9.6v7.7zM157.8 38.9c-.7-.4-1.5-.5-2.5-.5-.5 0-1 .1-1.5.2-.5.2-1 .4-1.4.7-.4.3-.7.7-1 1.2-.3.5-.4 1-.4 1.7 0 .6.1 1.2.4 1.6.2.4.6.8 1 1.1.4.3.9.5 1.4.7.5.2 1.1.4 1.6.6.7.2 1.4.5 2.1.7.7.3 1.3.6 1.9 1 .6.4 1 1 1.4 1.6.4.6.5 1.5.5 2.5s-.2 1.9-.6 2.6c-.4.7-.9 1.3-1.5 1.8s-1.3.8-2.1 1c-.8.2-1.6.3-2.4.3-.6 0-1.2-.1-1.8-.2-.6-.1-1.2-.3-1.7-.6-.5-.2-1.1-.6-1.5-.9-.5-.4-.9-.8-1.2-1.3l1.8-1.3c.4.7 1 1.3 1.8 1.8s1.7.7 2.7.7c.5 0 1-.1 1.6-.2.5-.2 1-.4 1.4-.7.4-.3.8-.7 1-1.2.3-.5.4-1 .4-1.7s-.1-1.3-.4-1.7c-.3-.5-.6-.8-1.1-1.2-.5-.3-1-.6-1.6-.8l-1.8-.6c-.7-.2-1.3-.4-1.9-.7-.6-.3-1.2-.6-1.7-1s-.9-.9-1.2-1.6c-.3-.6-.5-1.4-.5-2.3 0-1 .2-1.8.6-2.5.4-.7.9-1.3 1.5-1.7.6-.5 1.3-.8 2.1-1 .8-.2 1.5-.3 2.2-.3 1.4 0 2.5.2 3.5.7 1 .5 1.7 1 2.2 1.7l-1.6 1.3c-.4-.7-1-1.2-1.7-1.5M182.8 43.8c-.4-1.1-.9-2-1.6-2.8-.7-.8-1.6-1.4-2.6-1.9s-2.2-.7-3.5-.7c-1.3 0-2.4.2-3.5.7-1 .5-1.9 1.1-2.6 1.9-.7.8-1.3 1.7-1.6 2.8-.4 1.1-.6 2.2-.6 3.3 0 1.2.2 2.3.6 3.3.4 1.1.9 2 1.6 2.8.7.8 1.6 1.4 2.6 1.9s2.2.7 3.5.7c1.3 0 2.4-.2 3.5-.7 1-.5 1.9-1.1 2.6-1.9.7-.8 1.3-1.7 1.6-2.8.4-1.1.6-2.2.6-3.3-.1-1.2-.2-2.3-.6-3.3m1.9 7.5c-.5 1.3-1.3 2.4-2.2 3.3-.9.9-2 1.7-3.3 2.2-1.3.5-2.6.8-4.1.8-1.5 0-2.9-.3-4.1-.8-1.3-.5-2.4-1.3-3.3-2.2-.9-.9-1.7-2-2.2-3.3-.5-1.3-.8-2.7-.8-4.2s.3-2.9.8-4.2c.5-1.3 1.3-2.4 2.2-3.3.9-.9 2-1.7 3.3-2.2 1.3-.5 2.6-.8 4.1-.8 1.5 0 2.9.3 4.1.8 1.3.5 2.4 1.3 3.3 2.2.9.9 1.7 2 2.2 3.3.5 1.3.8 2.7.8 4.2s-.3 2.9-.8 4.2M195.3 46c1.6 0 2.9-.3 3.8-.9.9-.6 1.3-1.5 1.3-2.7 0-.7-.1-1.2-.4-1.7-.2-.5-.6-.8-1-1.1-.4-.3-1-.5-1.6-.6-.6-.1-1.3-.2-2.1-.2h-3.6V46h3.6zm-5.6 11.1v-20h5.9c1 0 1.9.1 2.7.3.8.2 1.6.5 2.2.9.6.4 1.1 1 1.4 1.7.3.7.5 1.5.5 2.5 0 .7-.1 1.4-.4 2-.3.6-.6 1.1-1.1 1.6-.5.4-1 .8-1.6 1.1-.6.3-1.3.4-2 .5l5.8 9.5h-2.5l-5.5-9.3h-3.4v9.3h-2zM219.3 55.3v1.8h-12.7v-20H219v1.8h-10.3v6.9h9.6v1.8h-9.6v7.7zM231.3 38.9c-.7-.4-1.5-.5-2.5-.5-.5 0-1 .1-1.5.2-.5.2-1 .4-1.4.7-.4.3-.7.7-1 1.2-.3.5-.4 1-.4 1.7 0 .6.1 1.2.4 1.6.2.4.6.8 1 1.1.4.3.9.5 1.4.7.5.2 1.1.4 1.6.6.7.2 1.4.5 2.1.7.7.3 1.3.6 1.9 1 .6.4 1 1 1.4 1.6.4.6.5 1.5.5 2.5s-.2 1.9-.6 2.6c-.4.7-.9 1.3-1.5 1.8s-1.3.8-2.1 1c-.8.2-1.6.3-2.4.3-.6 0-1.2-.1-1.8-.2-.6-.1-1.2-.3-1.7-.6-.5-.2-1.1-.6-1.5-.9-.5-.4-.9-.8-1.2-1.3l1.7-1.3c.4.7 1 1.3 1.8 1.8s1.7.7 2.8.7c.5 0 1-.1 1.6-.2.5-.2 1-.4 1.4-.7.4-.3.8-.7 1-1.2.3-.5.4-1 .4-1.7s-.1-1.3-.4-1.7c-.3-.5-.6-.8-1.1-1.2-.5-.3-1-.6-1.5-.8l-1.8-.6c-.7-.2-1.3-.4-1.9-.7-.6-.3-1.2-.6-1.7-1s-.9-.9-1.2-1.6c-.3-.6-.5-1.4-.5-2.3 0-1 .2-1.8.6-2.5.4-.7.9-1.3 1.5-1.7.6-.5 1.3-.8 2.1-1 .8-.2 1.5-.3 2.2-.3 1.4 0 2.5.2 3.5.7 1 .5 1.7 1 2.2 1.7l-1.6 1.3c-.5-.7-1.1-1.2-1.8-1.5M94.6 65.1v20h12.6v-4.2h-7.7V65.1zM123.9 72.6c-.3-.8-.7-1.4-1.2-1.9s-1.1-1-1.8-1.3c-.7-.3-1.5-.5-2.3-.5-.8 0-1.6.2-2.3.5-.7.3-1.3.7-1.8 1.3-.5.5-.9 1.2-1.2 1.9-.3.8-.4 1.6-.4 2.4 0 .9.1 1.7.4 2.5.3.8.7 1.4 1.2 2 .5.5 1.1 1 1.8 1.3.7.3 1.5.5 2.3.5.8 0 1.6-.2 2.3-.5.7-.3 1.3-.7 1.8-1.3.5-.5.9-1.2 1.2-2 .3-.8.4-1.6.4-2.5 0-.8-.2-1.6-.4-2.4m4.7 6.8c-.5 1.3-1.3 2.4-2.3 3.4-1 .9-2.1 1.6-3.5 2.2-1.3.5-2.8.8-4.3.8-1.6 0-3-.3-4.3-.8-1.3-.5-2.5-1.2-3.4-2.2-1-.9-1.7-2.1-2.3-3.4-.5-1.3-.8-2.8-.8-4.3 0-1.6.3-3 .8-4.3.5-1.3 1.3-2.4 2.3-3.3 1-.9 2.1-1.6 3.4-2.1 1.3-.5 2.8-.7 4.3-.7 1.6 0 3 .2 4.3.7 1.3.5 2.5 1.2 3.5 2.1 1 .9 1.7 2 2.3 3.3.5 1.3.8 2.7.8 4.3 0 1.5-.2 3-.8 4.3M154.5 65.1l-3.2 13.3h-.1l-3.6-13.3h-5L139 78.4h-.1l-3.1-13.3h-5.2l5.7 20h4.7l4-13.5h.1l3.9 13.5h4.8l5.7-20zM175.9 84.7c-1.3.6-2.8.9-4.5.9-1.5 0-3-.3-4.3-.8-1.3-.5-2.4-1.2-3.4-2.2-1-.9-1.7-2-2.3-3.3-.5-1.3-.8-2.7-.8-4.3 0-1.6.3-3 .8-4.3.6-1.3 1.3-2.4 2.3-3.3 1-.9 2.1-1.6 3.4-2.1 1.3-.5 2.7-.7 4.3-.7 1.4 0 2.8.3 4.2.7 1.4.5 2.5 1.2 3.3 2.2l-3.3 3.3c-.5-.6-1-1.1-1.8-1.4-.7-.3-1.5-.5-2.3-.5-.8 0-1.6.2-2.3.5-.7.3-1.3.7-1.8 1.3-.5.5-.9 1.2-1.2 1.9-.3.7-.4 1.6-.4 2.4 0 .9.1 1.7.4 2.5.3.8.7 1.4 1.2 1.9s1.1 1 1.8 1.3c.7.3 1.5.5 2.3.5 1 0 1.8-.2 2.5-.6.7-.4 1.3-.9 1.7-1.5l3.4 3.2c-.9 1.1-1.9 1.9-3.2 2.4M196.1 72.6c-.3-.8-.7-1.4-1.2-1.9s-1.1-1-1.8-1.3c-.7-.3-1.5-.5-2.3-.5-.8 0-1.6.2-2.3.5-.7.3-1.3.7-1.8 1.3-.5.5-.9 1.2-1.2 1.9-.3.8-.4 1.6-.4 2.4 0 .9.1 1.7.4 2.5.3.8.7 1.4 1.2 2 .5.5 1.1 1 1.8 1.3.7.3 1.5.5 2.3.5.8 0 1.6-.2 2.3-.5.7-.3 1.3-.7 1.8-1.3.5-.5.9-1.2 1.2-2 .3-.8.4-1.6.4-2.5 0-.8-.1-1.6-.4-2.4m4.8 6.8c-.5 1.3-1.3 2.4-2.3 3.4-1 .9-2.1 1.6-3.5 2.2-1.3.5-2.8.8-4.3.8-1.6 0-3-.3-4.3-.8-1.3-.5-2.5-1.2-3.4-2.2-1-.9-1.7-2.1-2.3-3.4-.5-1.3-.8-2.8-.8-4.3 0-1.6.3-3 .8-4.3.5-1.3 1.3-2.4 2.3-3.3 1-.9 2.1-1.6 3.4-2.1 1.3-.5 2.8-.7 4.3-.7 1.6 0 3 .2 4.3.7 1.3.5 2.5 1.2 3.5 2.1 1 .9 1.7 2 2.3 3.3.5 1.3.8 2.7.8 4.3 0 1.5-.3 3-.8 4.3M213.8 69.1c-.7-.3-1.3-.5-1.9-.5-.3 0-.6 0-1 .1l-.9.3c-.3.2-.5.4-.7.6-.2.3-.3.6-.3 1 0 .3.1.6.2.8.1.2.3.4.6.6.3.2.6.3 1 .5.4.1.8.3 1.3.4.7.2 1.4.5 2.1.7.7.3 1.4.6 2 1.1.6.5 1.1 1 1.5 1.7.4.7.6 1.5.6 2.5 0 1.1-.2 2.1-.6 3-.4.8-1 1.5-1.7 2.1-.7.5-1.5.9-2.5 1.2-.9.3-1.9.4-2.8.4-1.4 0-2.8-.2-4.1-.7-1.3-.5-2.4-1.2-3.3-2.1l3.2-3.2c.5.6 1.1 1.1 1.9 1.5.8.4 1.6.6 2.4.6.4 0 .7 0 1-.1.3-.1.6-.2.9-.4.3-.2.5-.4.6-.7.1-.3.2-.6.2-1s-.1-.7-.3-1c-.2-.3-.5-.5-.8-.7-.3-.2-.8-.4-1.3-.6-.5-.2-1.1-.4-1.8-.6-.6-.2-1.3-.5-1.9-.7-.6-.3-1.2-.6-1.6-1.1-.5-.4-.9-1-1.2-1.6-.3-.6-.4-1.4-.4-2.3 0-1.1.2-2.1.7-2.8.5-.8 1-1.4 1.8-1.9.7-.5 1.6-.9 2.5-1.1.9-.2 1.9-.4 2.8-.4 1.1 0 2.3.2 3.5.6 1.2.4 2.2 1 3.1 1.8l-3.1 3.2c-.5-.5-1-.9-1.7-1.2M219.3 65.1v4.2h5.6v15.8h4.8V69.3h5.7v-4.2z"/></svg>