<?xml version="1.0"?>

<svg width="694" height="439" viewBox="0 0 694 439" version="1.1" xmlns="http://www.w3.org/2000/svg" xmlns:xlink="http://www.w3.org/1999/xlink">  <title>triangle_opt</title> <desc>Created with Sketch.</desc> <defs></defs> <g id="Page-1" stroke="none" stroke-width="1" fill="none" fill-rule="evenodd"> <g id="triangle_opt" transform="translate(4.000000, 2.000000)"> <path d="M250,433.01 L0,0 L500,0 L250,433.01 Z M35,61 L464.56,61 L35,61 Z M71,123 L428.83,123 L71,123 Z M107,186 L392.22,186 L107,186 Z M143,248 L356.05,248 L143,248 Z M179,311 L319.88,311 L179,311 Z M215,373 L284.52,373 L215,373 Z" id="Shape" stroke="#B4EC51" stroke-width="4"></path> <path d="M461,61 L695.29,61" id="Shape" stroke="#B4EC51" stroke-width="2" stroke-dasharray="12.01486588"></path> <path d="M430,123 L695.45,123" id="Shape" stroke="#B4EC51" stroke-width="2" stroke-dasharray="12.34658813"></path> <path d="M393,186 L695.28,186" id="Shape" stroke="#B4EC51" stroke-width="2" stroke-dasharray="11.85396099"></path> <path d="M358,248 L695.72,248" id="Shape" stroke="#B4EC51" stroke-width="2" stroke-dasharray="12.28077221"></path> <path d="M321,311 L695.4,311" id="Shape" stroke="#B4EC51" stroke-width="2" stroke-dasharray="11.88569164"></path> <path d="M285,373 L694.96,373" id="Shape" stroke="#B4EC51" stroke-width="2" stroke-dasharray="12.23752213"></path> <polyline id="Shape" stroke="#B4EC51" stroke-width="2" stroke-dasharray="12.23752213" points="285 435 694.96 435 249.5 435"></polyline> <path d="M501,0 L694.9,0" id="Shape" stroke="#B4EC51" stroke-width="2" stroke-dasharray="12.50980377"></path> <path d="M575.688,409.396 C576.312003,409.396 576.869998,409.292001 577.362,409.084 C577.854002,408.875999 578.267998,408.584002 578.604,408.208 C578.940002,407.831998 579.197999,407.376003 579.378,406.84 C579.558001,406.303997 579.648,405.704003 579.648,405.04 L579.648,394.648 L582.876,394.648 L582.876,405.04 C582.876,406.072005 582.710002,407.025996 582.378,407.902 C582.045998,408.778004 581.570003,409.533997 580.95,410.17 C580.329997,410.806003 579.576004,411.301998 578.688,411.658 C577.799996,412.014002 576.800006,412.192 575.688,412.192 C574.567994,412.192 573.564004,412.014002 572.676,411.658 C571.787996,411.301998 571.034003,410.806003 570.414,410.17 C569.793997,409.533997 569.318002,408.778004 568.986,407.902 C568.653998,407.025996 568.488,406.072005 568.488,405.04 L568.488,394.648 L571.716,394.648 L571.716,405.028 C571.716,405.692003 571.805999,406.291997 571.986,406.828 C572.166001,407.364003 572.425998,407.821998 572.766,408.202 C573.106002,408.582002 573.521998,408.875999 574.014,409.084 C574.506002,409.292001 575.063997,409.396 575.688,409.396 Z M598.644,397.3 L593.412,397.3 L593.412,412 L590.184,412 L590.184,397.3 L584.952,397.3 L584.952,394.648 L598.644,394.648 L598.644,397.3 Z M604.164,412 L600.924,412 L600.924,394.648 L604.164,394.648 L604.164,412 Z M618.204,409.336 L618.204,412 L608.04,412 L608.04,394.648 L611.268,394.648 L611.268,409.336 L618.204,409.336 Z M623.748,412 L620.508,412 L620.508,394.648 L623.748,394.648 L623.748,412 Z M639.744,397.3 L634.512,397.3 L634.512,412 L631.284,412 L631.284,397.3 L626.052,397.3 L626.052,394.648 L639.744,394.648 L639.744,397.3 Z M645.264,412 L642.024,412 L642.024,394.648 L645.264,394.648 L645.264,412 Z M652.38,397.216 L652.38,402.028 L658.452,402.028 L658.452,404.512 L652.38,404.512 L652.38,409.42 L660.084,409.42 L660.084,412 L649.14,412 L649.14,394.648 L660.084,394.648 L660.084,397.216 L652.38,397.216 Z M672.18,397.804 C672.084,397.972001 671.982001,398.094 671.874,398.17 C671.765999,398.246 671.632001,398.284 671.472,398.284 C671.303999,398.284 671.122001,398.222001 670.926,398.098 C670.729999,397.973999 670.496001,397.836001 670.224,397.684 C669.951999,397.531999 669.634002,397.394001 669.27,397.27 C668.905998,397.145999 668.476002,397.084 667.98,397.084 C667.531998,397.084 667.140002,397.137999 666.804,397.246 C666.467998,397.354001 666.186001,397.503999 665.958,397.696 C665.729999,397.888001 665.560001,398.117999 665.448,398.386 C665.335999,398.654001 665.28,398.947998 665.28,399.268 C665.28,399.676002 665.393999,400.015999 665.622,400.288 C665.850001,400.560001 666.151998,400.791999 666.528,400.984 C666.904002,401.176001 667.331998,401.347999 667.812,401.5 C668.292002,401.652001 668.783997,401.813999 669.288,401.986 C669.792003,402.158001 670.283998,402.357999 670.764,402.586 C671.244002,402.814001 671.671998,403.101998 672.048,403.45 C672.424002,403.798002 672.725999,404.223997 672.954,404.728 C673.182001,405.232003 673.296,405.843996 673.296,406.564 C673.296,407.348004 673.162001,408.081997 672.894,408.766 C672.625999,409.450003 672.234003,410.045997 671.718,410.554 C671.201997,411.062003 670.572004,411.461999 669.828,411.754 C669.083996,412.046001 668.232005,412.192 667.272,412.192 C666.719997,412.192 666.176003,412.138001 665.64,412.03 C665.103997,411.921999 664.590002,411.768001 664.098,411.568 C663.605998,411.367999 663.144002,411.128001 662.712,410.848 C662.279998,410.567999 661.896002,410.256002 661.56,409.912 L662.508,408.364 C662.588,408.251999 662.691999,408.158 662.82,408.082 C662.948001,408.006 663.083999,407.968 663.228,407.968 C663.428001,407.968 663.643999,408.049999 663.876,408.214 C664.108001,408.378001 664.383998,408.559999 664.704,408.76 C665.024002,408.960001 665.397998,409.141999 665.826,409.306 C666.254002,409.470001 666.767997,409.552 667.368,409.552 C668.288005,409.552 668.999997,409.334002 669.504,408.898 C670.008003,408.461998 670.26,407.836004 670.26,407.02 C670.26,406.563998 670.146001,406.192001 669.918,405.904 C669.689999,405.615999 669.388002,405.374001 669.012,405.178 C668.635998,404.981999 668.208002,404.816001 667.728,404.68 C667.247998,404.543999 666.760002,404.396001 666.264,404.236 C665.767998,404.075999 665.280002,403.884001 664.8,403.66 C664.319998,403.435999 663.892002,403.144002 663.516,402.784 C663.139998,402.423998 662.838001,401.974003 662.61,401.434 C662.381999,400.893997 662.268,400.228004 662.268,399.436 C662.268,398.803997 662.393999,398.188003 662.646,397.588 C662.898001,396.987997 663.263998,396.456002 663.744,395.992 C664.224002,395.527998 664.815996,395.156001 665.52,394.876 C666.224004,394.595999 667.031995,394.456 667.944,394.456 C668.968005,394.456 669.911996,394.615998 670.776,394.936 C671.640004,395.256002 672.375997,395.703997 672.984,396.28 L672.18,397.804 Z" id="UTILITIES" fill="#B8E986"></path> <path d="M517.992,346.908 C518.168001,346.908 518.323999,346.975999 518.46,347.112 L519.732,348.492 C519.027996,349.364004 518.162005,350.031998 517.134,350.496 C516.105995,350.960002 514.872007,351.192 513.432,351.192 C512.143994,351.192 510.986005,350.972002 509.958,350.532 C508.929995,350.091998 508.052004,349.480004 507.324,348.696 C506.595996,347.911996 506.038002,346.976005 505.65,345.888 C505.261998,344.799995 505.068,343.612006 505.068,342.324 C505.068,341.019993 505.275998,339.826005 505.692,338.742 C506.108002,337.657995 506.693996,336.724004 507.45,335.94 C508.206004,335.155996 509.107995,334.546002 510.156,334.11 C511.204005,333.673998 512.363994,333.456 513.636,333.456 C514.900006,333.456 516.021995,333.663998 517.002,334.08 C517.982005,334.496002 518.815997,335.039997 519.504,335.712 L518.424,337.212 C518.36,337.308 518.278,337.392 518.178,337.464 C518.078,337.536 517.940001,337.572 517.764,337.572 C517.643999,337.572 517.520001,337.538 517.392,337.47 C517.263999,337.402 517.124001,337.318 516.972,337.218 C516.819999,337.117999 516.644001,337.008001 516.444,336.888 C516.243999,336.767999 516.012001,336.658001 515.748,336.558 C515.483999,336.458 515.178002,336.374 514.83,336.306 C514.481998,336.238 514.080002,336.204 513.624,336.204 C512.847996,336.204 512.138003,336.341999 511.494,336.618 C510.849997,336.894001 510.296002,337.293997 509.832,337.818 C509.367998,338.342003 509.008001,338.981996 508.752,339.738 C508.495999,340.494004 508.368,341.355995 508.368,342.324 C508.368,343.300005 508.505999,344.167996 508.782,344.928 C509.058001,345.688004 509.431998,346.327997 509.904,346.848 C510.376002,347.368003 510.931997,347.765999 511.572,348.042 C512.212003,348.318001 512.899996,348.456 513.636,348.456 C514.076002,348.456 514.473998,348.432 514.83,348.384 C515.186002,348.336 515.513998,348.260001 515.814,348.156 C516.114001,348.051999 516.397999,347.918001 516.666,347.754 C516.934001,347.589999 517.199999,347.388001 517.464,347.148 C517.544,347.076 517.628,347.018 517.716,346.974 C517.804,346.93 517.896,346.908 517.992,346.908 Z M538.128,342.324 C538.128,343.596006 537.918002,344.773995 537.498,345.858 C537.077998,346.942005 536.484004,347.879996 535.716,348.672 C534.947996,349.464004 534.024005,350.081998 532.944,350.526 C531.863995,350.970002 530.664007,351.192 529.344,351.192 C528.031993,351.192 526.836005,350.970002 525.756,350.526 C524.675995,350.081998 523.750004,349.464004 522.978,348.672 C522.205996,347.879996 521.608002,346.942005 521.184,345.858 C520.759998,344.773995 520.548,343.596006 520.548,342.324 C520.548,341.051994 520.759998,339.874005 521.184,338.79 C521.608002,337.705995 522.205996,336.768004 522.978,335.976 C523.750004,335.183996 524.675995,334.566002 525.756,334.122 C526.836005,333.677998 528.031993,333.456 529.344,333.456 C530.224004,333.456 531.051996,333.557999 531.828,333.762 C532.604004,333.966001 533.315997,334.253998 533.964,334.626 C534.612003,334.998002 535.193997,335.449997 535.71,335.982 C536.226003,336.514003 536.663998,337.107997 537.024,337.764 C537.384002,338.420003 537.657999,339.131996 537.846,339.9 C538.034001,340.668004 538.128,341.475996 538.128,342.324 Z M534.828,342.324 C534.828,341.371995 534.700001,340.518004 534.444,339.762 C534.187999,339.005996 533.824002,338.364003 533.352,337.836 C532.879998,337.307997 532.306003,336.904001 531.63,336.624 C530.953997,336.343999 530.192004,336.204 529.344,336.204 C528.495996,336.204 527.734003,336.343999 527.058,336.624 C526.381997,336.904001 525.806002,337.307997 525.33,337.836 C524.853998,338.364003 524.488001,339.005996 524.232,339.762 C523.975999,340.518004 523.848,341.371995 523.848,342.324 C523.848,343.276005 523.975999,344.129996 524.232,344.886 C524.488001,345.642004 524.853998,346.281997 525.33,346.806 C525.806002,347.330003 526.381997,347.731999 527.058,348.012 C527.734003,348.292001 528.495996,348.432 529.344,348.432 C530.192004,348.432 530.953997,348.292001 531.63,348.012 C532.306003,347.731999 532.879998,347.330003 533.352,346.806 C533.824002,346.281997 534.187999,345.642004 534.444,344.886 C534.700001,344.129996 534.828,343.276005 534.828,342.324 Z M559.788,333.648 L559.788,351 L556.944,351 L556.944,339.792 C556.944,339.343998 556.968,338.860003 557.016,338.34 L551.772,348.192 C551.523999,348.664002 551.144003,348.9 550.632,348.9 L550.176,348.9 C549.663997,348.9 549.284001,348.664002 549.036,348.192 L543.732,338.304 C543.756,338.568001 543.776,338.827999 543.792,339.084 C543.808,339.340001 543.816,339.575999 543.816,339.792 L543.816,351 L540.972,351 L540.972,333.648 L543.408,333.648 C543.552001,333.648 543.675999,333.652 543.78,333.66 C543.884001,333.668 543.978,333.688 544.062,333.72 C544.146,333.752 544.222,333.804 544.29,333.876 C544.358,333.948 544.424,334.043999 544.488,334.164 L549.684,343.8 C549.820001,344.056001 549.945999,344.319999 550.062,344.592 C550.178001,344.864001 550.291999,345.143999 550.404,345.432 C550.516001,345.135999 550.631999,344.850001 550.752,344.574 C550.872001,344.297999 550.999999,344.032001 551.136,343.776 L556.26,334.164 C556.324,334.043999 556.392,333.948 556.464,333.876 C556.536,333.804 556.614,333.752 556.698,333.72 C556.782,333.688 556.875999,333.668 556.98,333.66 C557.084001,333.652 557.207999,333.648 557.352,333.648 L559.788,333.648 Z M569.292,342.372 C569.884003,342.372 570.399998,342.298001 570.84,342.15 C571.280002,342.001999 571.645999,341.790001 571.938,341.514 C572.230001,341.237999 572.447999,340.902002 572.592,340.506 C572.736001,340.109998 572.808,339.668002 572.808,339.18 C572.808,338.715998 572.736001,338.296002 572.592,337.92 C572.447999,337.543998 572.232001,337.224001 571.944,336.96 C571.655999,336.695999 571.292002,336.494001 570.852,336.354 C570.411998,336.213999 569.892003,336.144 569.292,336.144 L566.88,336.144 L566.88,342.372 L569.292,342.372 Z M569.292,333.648 C570.452006,333.648 571.455996,333.783999 572.304,334.056 C573.152004,334.328001 573.851997,334.707998 574.404,335.196 C574.956003,335.684002 575.365999,336.267997 575.634,336.948 C575.902001,337.628003 576.036,338.371996 576.036,339.18 C576.036,340.020004 575.896001,340.789997 575.616,341.49 C575.335999,342.190003 574.916003,342.791997 574.356,343.296 C573.795997,343.800003 573.094004,344.191999 572.25,344.472 C571.405996,344.752001 570.420006,344.892 569.292,344.892 L566.88,344.892 L566.88,351 L563.652,351 L563.652,333.648 L569.292,333.648 Z M595.056,342.324 C595.056,343.596006 594.846002,344.773995 594.426,345.858 C594.005998,346.942005 593.412004,347.879996 592.644,348.672 C591.875996,349.464004 590.952005,350.081998 589.872,350.526 C588.791995,350.970002 587.592007,351.192 586.272,351.192 C584.959993,351.192 583.764005,350.970002 582.684,350.526 C581.603995,350.081998 580.678004,349.464004 579.906,348.672 C579.133996,347.879996 578.536002,346.942005 578.112,345.858 C577.687998,344.773995 577.476,343.596006 577.476,342.324 C577.476,341.051994 577.687998,339.874005 578.112,338.79 C578.536002,337.705995 579.133996,336.768004 579.906,335.976 C580.678004,335.183996 581.603995,334.566002 582.684,334.122 C583.764005,333.677998 584.959993,333.456 586.272,333.456 C587.152004,333.456 587.979996,333.557999 588.756,333.762 C589.532004,333.966001 590.243997,334.253998 590.892,334.626 C591.540003,334.998002 592.121997,335.449997 592.638,335.982 C593.154003,336.514003 593.591998,337.107997 593.952,337.764 C594.312002,338.420003 594.585999,339.131996 594.774,339.9 C594.962001,340.668004 595.056,341.475996 595.056,342.324 Z M591.756,342.324 C591.756,341.371995 591.628001,340.518004 591.372,339.762 C591.115999,339.005996 590.752002,338.364003 590.28,337.836 C589.807998,337.307997 589.234003,336.904001 588.558,336.624 C587.881997,336.343999 587.120004,336.204 586.272,336.204 C585.423996,336.204 584.662003,336.343999 583.986,336.624 C583.309997,336.904001 582.734002,337.307997 582.258,337.836 C581.781998,338.364003 581.416001,339.005996 581.16,339.762 C580.903999,340.518004 580.776,341.371995 580.776,342.324 C580.776,343.276005 580.903999,344.129996 581.16,344.886 C581.416001,345.642004 581.781998,346.281997 582.258,346.806 C582.734002,347.330003 583.309997,347.731999 583.986,348.012 C584.662003,348.292001 585.423996,348.432 586.272,348.432 C587.120004,348.432 587.881997,348.292001 588.558,348.012 C589.234003,347.731999 589.807998,347.330003 590.28,346.806 C590.752002,346.281997 591.115999,345.642004 591.372,344.886 C591.628001,344.129996 591.756,343.276005 591.756,342.324 Z M612.528,333.648 L612.528,351 L610.872,351 C610.615999,351 610.402001,350.958 610.23,350.874 C610.057999,350.79 609.892001,350.648001 609.732,350.448 L600.672,338.88 C600.72,339.408003 600.744,339.895998 600.744,340.344 L600.744,351 L597.9,351 L597.9,333.648 L599.592,333.648 C599.728001,333.648 599.846,333.654 599.946,333.666 C600.046,333.678 600.134,333.702 600.21,333.738 C600.286,333.774 600.36,333.826 600.432,333.894 C600.504,333.962 600.584,334.051999 600.672,334.164 L609.768,345.78 C609.744,345.499999 609.724,345.224001 609.708,344.952 C609.692,344.679999 609.684,344.428001 609.684,344.196 L609.684,333.648 L612.528,333.648 Z M619.632,336.216 L619.632,341.028 L625.704,341.028 L625.704,343.512 L619.632,343.512 L619.632,348.42 L627.336,348.42 L627.336,351 L616.392,351 L616.392,333.648 L627.336,333.648 L627.336,336.216 L619.632,336.216 Z M644.82,333.648 L644.82,351 L643.164,351 C642.907999,351 642.694001,350.958 642.522,350.874 C642.349999,350.79 642.184001,350.648001 642.024,350.448 L632.964,338.88 C633.012,339.408003 633.036,339.895998 633.036,340.344 L633.036,351 L630.192,351 L630.192,333.648 L631.884,333.648 C632.020001,333.648 632.137999,333.654 632.238,333.666 C632.338001,333.678 632.426,333.702 632.502,333.738 C632.578,333.774 632.652,333.826 632.724,333.894 C632.796,333.962 632.876,334.051999 632.964,334.164 L642.06,345.78 C642.036,345.499999 642.016,345.224001 642,344.952 C641.984,344.679999 641.976,344.428001 641.976,344.196 L641.976,333.648 L644.82,333.648 Z M660.804,336.3 L655.572,336.3 L655.572,351 L652.344,351 L652.344,336.3 L647.112,336.3 L647.112,333.648 L660.804,333.648 L660.804,336.3 Z M672.288,336.804 C672.192,336.972001 672.090001,337.094 671.982,337.17 C671.873999,337.246 671.740001,337.284 671.58,337.284 C671.411999,337.284 671.230001,337.222001 671.034,337.098 C670.837999,336.973999 670.604001,336.836001 670.332,336.684 C670.059999,336.531999 669.742002,336.394001 669.378,336.27 C669.013998,336.145999 668.584002,336.084 668.088,336.084 C667.639998,336.084 667.248002,336.137999 666.912,336.246 C666.575998,336.354001 666.294001,336.503999 666.066,336.696 C665.837999,336.888001 665.668001,337.117999 665.556,337.386 C665.443999,337.654001 665.388,337.947998 665.388,338.268 C665.388,338.676002 665.501999,339.015999 665.73,339.288 C665.958001,339.560001 666.259998,339.791999 666.636,339.984 C667.012002,340.176001 667.439998,340.347999 667.92,340.5 C668.400002,340.652001 668.891997,340.813999 669.396,340.986 C669.900003,341.158001 670.391998,341.357999 670.872,341.586 C671.352002,341.814001 671.779998,342.101998 672.156,342.45 C672.532002,342.798002 672.833999,343.223997 673.062,343.728 C673.290001,344.232003 673.404,344.843996 673.404,345.564 C673.404,346.348004 673.270001,347.081997 673.002,347.766 C672.733999,348.450003 672.342003,349.045997 671.826,349.554 C671.309997,350.062003 670.680004,350.461999 669.936,350.754 C669.191996,351.046001 668.340005,351.192 667.38,351.192 C666.827997,351.192 666.284003,351.138001 665.748,351.03 C665.211997,350.921999 664.698002,350.768001 664.206,350.568 C663.713998,350.367999 663.252002,350.128001 662.82,349.848 C662.387998,349.567999 662.004002,349.256002 661.668,348.912 L662.616,347.364 C662.696,347.251999 662.799999,347.158 662.928,347.082 C663.056001,347.006 663.191999,346.968 663.336,346.968 C663.536001,346.968 663.751999,347.049999 663.984,347.214 C664.216001,347.378001 664.491998,347.559999 664.812,347.76 C665.132002,347.960001 665.505998,348.141999 665.934,348.306 C666.362002,348.470001 666.875997,348.552 667.476,348.552 C668.396005,348.552 669.107997,348.334002 669.612,347.898 C670.116003,347.461998 670.368,346.836004 670.368,346.02 C670.368,345.563998 670.254001,345.192001 670.026,344.904 C669.797999,344.615999 669.496002,344.374001 669.12,344.178 C668.743998,343.981999 668.316002,343.816001 667.836,343.68 C667.355998,343.543999 666.868002,343.396001 666.372,343.236 C665.875998,343.075999 665.388002,342.884001 664.908,342.66 C664.427998,342.435999 664.000002,342.144002 663.624,341.784 C663.247998,341.423998 662.946001,340.974003 662.718,340.434 C662.489999,339.893997 662.376,339.228004 662.376,338.436 C662.376,337.803997 662.501999,337.188003 662.754,336.588 C663.006001,335.987997 663.371998,335.456002 663.852,334.992 C664.332002,334.527998 664.923996,334.156001 665.628,333.876 C666.332004,333.595999 667.139995,333.456 668.052,333.456 C669.076005,333.456 670.019996,333.615998 670.884,333.936 C671.748004,334.256002 672.483997,334.703997 673.092,335.28 L672.288,336.804 Z" id="COMPONENTS" fill="#B8E986"></path> <path d="M610.38,87.3 L605.148,87.3 L605.148,102 L601.92,102 L601.92,87.3 L596.688,87.3 L596.688,84.648 L610.38,84.648 L610.38,87.3 Z M628.632,93.324 C628.632,94.5960064 628.422002,95.7739946 628.002,96.858 C627.581998,97.9420054 626.988004,98.879996 626.22,99.672 C625.451996,100.464004 624.528005,101.081998 623.448,101.526 C622.367995,101.970002 621.168007,102.192 619.848,102.192 C618.535993,102.192 617.340005,101.970002 616.26,101.526 C615.179995,101.081998 614.254004,100.464004 613.482,99.672 C612.709996,98.879996 612.112002,97.9420054 611.688,96.858 C611.263998,95.7739946 611.052,94.5960064 611.052,93.324 C611.052,92.0519936 611.263998,90.8740054 611.688,89.79 C612.112002,88.7059946 612.709996,87.768004 613.482,86.976 C614.254004,86.183996 615.179995,85.5660022 616.26,85.122 C617.340005,84.6779978 618.535993,84.456 619.848,84.456 C620.728004,84.456 621.555996,84.557999 622.332,84.762 C623.108004,84.966001 623.819997,85.2539981 624.468,85.626 C625.116003,85.9980019 625.697997,86.4499973 626.214,86.982 C626.730003,87.5140027 627.167998,88.1079967 627.528,88.764 C627.888002,89.4200033 628.161999,90.1319962 628.35,90.9 C628.538001,91.6680038 628.632,92.4759958 628.632,93.324 Z M625.332,93.324 C625.332,92.3719952 625.204001,91.5180038 624.948,90.762 C624.691999,90.0059962 624.328002,89.3640026 623.856,88.836 C623.383998,88.3079974 622.810003,87.9040014 622.134,87.624 C621.457997,87.3439986 620.696004,87.204 619.848,87.204 C618.999996,87.204 618.238003,87.3439986 617.562,87.624 C616.885997,87.9040014 616.310002,88.3079974 615.834,88.836 C615.357998,89.3640026 614.992001,90.0059962 614.736,90.762 C614.479999,91.5180038 614.352,92.3719952 614.352,93.324 C614.352,94.2760048 614.479999,95.1299962 614.736,95.886 C614.992001,96.6420038 615.357998,97.2819974 615.834,97.806 C616.310002,98.3300026 616.885997,98.7319986 617.562,99.012 C618.238003,99.2920014 618.999996,99.432 619.848,99.432 C620.696004,99.432 621.457997,99.2920014 622.134,99.012 C622.810003,98.7319986 623.383998,98.3300026 623.856,97.806 C624.328002,97.2819974 624.691999,96.6420038 624.948,95.886 C625.204001,95.1299962 625.332,94.2760048 625.332,93.324 Z M648.024,93.324 C648.024,94.5960064 647.814002,95.7739946 647.394,96.858 C646.973998,97.9420054 646.380004,98.879996 645.612,99.672 C644.843996,100.464004 643.920005,101.081998 642.84,101.526 C641.759995,101.970002 640.560007,102.192 639.24,102.192 C637.927993,102.192 636.732005,101.970002 635.652,101.526 C634.571995,101.081998 633.646004,100.464004 632.874,99.672 C632.101996,98.879996 631.504002,97.9420054 631.08,96.858 C630.655998,95.7739946 630.444,94.5960064 630.444,93.324 C630.444,92.0519936 630.655998,90.8740054 631.08,89.79 C631.504002,88.7059946 632.101996,87.768004 632.874,86.976 C633.646004,86.183996 634.571995,85.5660022 635.652,85.122 C636.732005,84.6779978 637.927993,84.456 639.24,84.456 C640.120004,84.456 640.947996,84.557999 641.724,84.762 C642.500004,84.966001 643.211997,85.2539981 643.86,85.626 C644.508003,85.9980019 645.089997,86.4499973 645.606,86.982 C646.122003,87.5140027 646.559998,88.1079967 646.92,88.764 C647.280002,89.4200033 647.553999,90.1319962 647.742,90.9 C647.930001,91.6680038 648.024,92.4759958 648.024,93.324 Z M644.724,93.324 C644.724,92.3719952 644.596001,91.5180038 644.34,90.762 C644.083999,90.0059962 643.720002,89.3640026 643.248,88.836 C642.775998,88.3079974 642.202003,87.9040014 641.526,87.624 C640.849997,87.3439986 640.088004,87.204 639.24,87.204 C638.391996,87.204 637.630003,87.3439986 636.954,87.624 C636.277997,87.9040014 635.702002,88.3079974 635.226,88.836 C634.749998,89.3640026 634.384001,90.0059962 634.128,90.762 C633.871999,91.5180038 633.744,92.3719952 633.744,93.324 C633.744,94.2760048 633.871999,95.1299962 634.128,95.886 C634.384001,96.6420038 634.749998,97.2819974 635.226,97.806 C635.702002,98.3300026 636.277997,98.7319986 636.954,99.012 C637.630003,99.2920014 638.391996,99.432 639.24,99.432 C640.088004,99.432 640.849997,99.2920014 641.526,99.012 C642.202003,98.7319986 642.775998,98.3300026 643.248,97.806 C643.720002,97.2819974 644.083999,96.6420038 644.34,95.886 C644.596001,95.1299962 644.724,94.2760048 644.724,93.324 Z M661.032,99.336 L661.032,102 L650.868,102 L650.868,84.648 L654.096,84.648 L654.096,99.336 L661.032,99.336 Z M672.576,87.804 C672.48,87.9720008 672.378001,88.0939996 672.27,88.17 C672.161999,88.2460004 672.028001,88.284 671.868,88.284 C671.699999,88.284 671.518001,88.2220006 671.322,88.098 C671.125999,87.9739994 670.892001,87.8360008 670.62,87.684 C670.347999,87.5319992 670.030002,87.3940006 669.666,87.27 C669.301998,87.1459994 668.872002,87.084 668.376,87.084 C667.927998,87.084 667.536002,87.1379995 667.2,87.246 C666.863998,87.3540005 666.582001,87.503999 666.354,87.696 C666.125999,87.888001 665.956001,88.1179987 665.844,88.386 C665.731999,88.6540013 665.676,88.9479984 665.676,89.268 C665.676,89.676002 665.789999,90.0159986 666.018,90.288 C666.246001,90.5600014 666.547998,90.791999 666.924,90.984 C667.300002,91.176001 667.727998,91.3479992 668.208,91.5 C668.688002,91.6520008 669.179997,91.8139991 669.684,91.986 C670.188003,92.1580009 670.679998,92.3579989 671.16,92.586 C671.640002,92.8140011 672.067998,93.1019983 672.444,93.45 C672.820002,93.7980017 673.121999,94.2239975 673.35,94.728 C673.578001,95.2320025 673.692,95.8439964 673.692,96.564 C673.692,97.3480039 673.558001,98.0819966 673.29,98.766 C673.021999,99.4500034 672.630003,100.045997 672.114,100.554 C671.597997,101.062003 670.968004,101.461999 670.224,101.754 C669.479996,102.046001 668.628005,102.192 667.668,102.192 C667.115997,102.192 666.572003,102.138001 666.036,102.03 C665.499997,101.921999 664.986002,101.768001 664.494,101.568 C664.001998,101.367999 663.540002,101.128001 663.108,100.848 C662.675998,100.567999 662.292002,100.256002 661.956,99.912 L662.904,98.364 C662.984,98.2519994 663.087999,98.1580004 663.216,98.082 C663.344001,98.0059996 663.479999,97.968 663.624,97.968 C663.824001,97.968 664.039999,98.0499992 664.272,98.214 C664.504001,98.3780008 664.779998,98.559999 665.1,98.76 C665.420002,98.960001 665.793998,99.1419992 666.222,99.306 C666.650002,99.4700008 667.163997,99.552 667.764,99.552 C668.684005,99.552 669.395997,99.3340022 669.9,98.898 C670.404003,98.4619978 670.656,97.8360041 670.656,97.02 C670.656,96.5639977 670.542001,96.1920014 670.314,95.904 C670.085999,95.6159986 669.784002,95.374001 669.408,95.178 C669.031998,94.981999 668.604002,94.8160007 668.124,94.68 C667.643998,94.5439993 667.156002,94.3960008 666.66,94.236 C666.163998,94.0759992 665.676002,93.8840011 665.196,93.66 C664.715998,93.4359989 664.288002,93.1440018 663.912,92.784 C663.535998,92.4239982 663.234001,91.9740027 663.006,91.434 C662.777999,90.8939973 662.664,90.228004 662.664,89.436 C662.664,88.8039968 662.789999,88.188003 663.042,87.588 C663.294001,86.987997 663.659998,86.4560023 664.14,85.992 C664.620002,85.5279977 665.211996,85.1560014 665.916,84.876 C666.620004,84.5959986 667.427995,84.456 668.34,84.456 C669.364005,84.456 670.307996,84.6159984 671.172,84.936 C672.036004,85.2560016 672.771997,85.7039971 673.38,86.28 L672.576,87.804 Z" id="TOOLS" fill="#B8E986"></path> <path d="M589.056,156.3 L589.056,163.32 C588.175996,163.968003 587.238005,164.441999 586.242,164.742 C585.245995,165.042001 584.180006,165.192 583.044,165.192 C581.627993,165.192 580.346006,164.972002 579.198,164.532 C578.049994,164.091998 577.070004,163.480004 576.258,162.696 C575.445996,161.911996 574.820002,160.976005 574.38,159.888 C573.939998,158.799995 573.72,157.612006 573.72,156.324 C573.72,155.019993 573.931998,153.824005 574.356,152.736 C574.780002,151.647995 575.381996,150.712004 576.162,149.928 C576.942004,149.143996 577.887994,148.536002 579,148.104 C580.112006,147.671998 581.359993,147.456 582.744,147.456 C583.448004,147.456 584.105997,147.511999 584.718,147.624 C585.330003,147.736001 585.897997,147.889999 586.422,148.086 C586.946003,148.282001 587.423998,148.519999 587.856,148.8 C588.288002,149.080001 588.683998,149.387998 589.044,149.724 L588.12,151.188 C587.975999,151.420001 587.788001,151.562 587.556,151.614 C587.323999,151.666 587.072001,151.608001 586.8,151.44 L586.008,150.984 C585.743999,150.831999 585.450002,150.700001 585.126,150.588 C584.801998,150.475999 584.438002,150.384 584.034,150.312 C583.629998,150.24 583.164003,150.204 582.636,150.204 C581.779996,150.204 581.006003,150.347999 580.314,150.636 C579.621997,150.924001 579.032002,151.335997 578.544,151.872 C578.055998,152.408003 577.680001,153.051996 577.416,153.804 C577.151999,154.556004 577.02,155.395995 577.02,156.324 C577.02,157.316005 577.161999,158.201996 577.446,158.982 C577.730001,159.762004 578.129997,160.421997 578.646,160.962 C579.162003,161.502003 579.783996,161.913999 580.512,162.198 C581.240004,162.482001 582.051996,162.624 582.948,162.624 C583.588003,162.624 584.159997,162.556001 584.664,162.42 C585.168003,162.283999 585.659998,162.100001 586.14,161.868 L586.14,158.724 L583.956,158.724 C583.747999,158.724 583.586001,158.666001 583.47,158.55 C583.353999,158.433999 583.296,158.292001 583.296,158.124 L583.296,156.3 L589.056,156.3 Z M595.416,150.216 L595.416,155.028 L601.488,155.028 L601.488,157.512 L595.416,157.512 L595.416,162.42 L603.12,162.42 L603.12,165 L592.176,165 L592.176,147.648 L603.12,147.648 L603.12,150.216 L595.416,150.216 Z M620.604,147.648 L620.604,165 L618.948,165 C618.691999,165 618.478001,164.958 618.306,164.874 C618.133999,164.79 617.968001,164.648001 617.808,164.448 L608.748,152.88 C608.796,153.408003 608.82,153.895998 608.82,154.344 L608.82,165 L605.976,165 L605.976,147.648 L607.668,147.648 C607.804001,147.648 607.922,147.654 608.022,147.666 C608.122001,147.678 608.21,147.702 608.286,147.738 C608.362,147.774 608.436,147.826 608.508,147.894 C608.58,147.962 608.66,148.051999 608.748,148.164 L617.844,159.78 C617.82,159.499999 617.8,159.224001 617.784,158.952 C617.768,158.679999 617.76,158.428001 617.76,158.196 L617.76,147.648 L620.604,147.648 Z M627.708,150.216 L627.708,155.028 L633.78,155.028 L633.78,157.512 L627.708,157.512 L627.708,162.42 L635.412,162.42 L635.412,165 L624.468,165 L624.468,147.648 L635.412,147.648 L635.412,150.216 L627.708,150.216 Z M643.512,155.904 C644.120003,155.904 644.649998,155.828001 645.102,155.676 C645.554002,155.523999 645.925999,155.314001 646.218,155.046 C646.510001,154.777999 646.727999,154.460002 646.872,154.092 C647.016001,153.723998 647.088,153.320002 647.088,152.88 C647.088,151.999996 646.798003,151.324002 646.218,150.852 C645.637997,150.379998 644.752006,150.144 643.56,150.144 L641.496,150.144 L641.496,155.904 L643.512,155.904 Z M651.816,165 L648.9,165 C648.347997,165 647.948001,164.784002 647.7,164.352 L644.052,158.796 C643.915999,158.587999 643.766001,158.44 643.602,158.352 C643.437999,158.264 643.196002,158.22 642.876,158.22 L641.496,158.22 L641.496,165 L638.268,165 L638.268,147.648 L643.56,147.648 C644.736006,147.648 645.745996,147.769999 646.59,148.014 C647.434004,148.258001 648.125997,148.599998 648.666,149.04 C649.206003,149.480002 649.603999,150.005997 649.86,150.618 C650.116001,151.230003 650.244,151.903996 650.244,152.64 C650.244,153.224003 650.158001,153.775997 649.986,154.296 C649.813999,154.816003 649.566002,155.287998 649.242,155.712 C648.917998,156.136002 648.518002,156.507998 648.042,156.828 C647.565998,157.148002 647.024003,157.399999 646.416,157.584 C646.624001,157.704001 646.815999,157.845999 646.992,158.01 C647.168001,158.174001 647.327999,158.367999 647.472,158.592 L651.816,165 Z M656.94,165 L653.7,165 L653.7,147.648 L656.94,147.648 L656.94,165 Z M672.732,160.908 C672.908001,160.908 673.063999,160.975999 673.2,161.112 L674.472,162.492 C673.767996,163.364004 672.902005,164.031998 671.874,164.496 C670.845995,164.960002 669.612007,165.192 668.172,165.192 C666.883994,165.192 665.726005,164.972002 664.698,164.532 C663.669995,164.091998 662.792004,163.480004 662.064,162.696 C661.335996,161.911996 660.778002,160.976005 660.39,159.888 C660.001998,158.799995 659.808,157.612006 659.808,156.324 C659.808,155.019993 660.015998,153.826005 660.432,152.742 C660.848002,151.657995 661.433996,150.724004 662.19,149.94 C662.946004,149.155996 663.847995,148.546002 664.896,148.11 C665.944005,147.673998 667.103994,147.456 668.376,147.456 C669.640006,147.456 670.761995,147.663998 671.742,148.08 C672.722005,148.496002 673.555997,149.039997 674.244,149.712 L673.164,151.212 C673.1,151.308 673.018001,151.392 672.918,151.464 C672.818,151.536 672.680001,151.572 672.504,151.572 C672.383999,151.572 672.260001,151.538 672.132,151.47 C672.003999,151.402 671.864001,151.318001 671.712,151.218 C671.559999,151.117999 671.384001,151.008001 671.184,150.888 C670.983999,150.767999 670.752001,150.658001 670.488,150.558 C670.223999,150.457999 669.918002,150.374 669.57,150.306 C669.221998,150.238 668.820002,150.204 668.364,150.204 C667.587996,150.204 666.878003,150.341999 666.234,150.618 C665.589997,150.894001 665.036002,151.293997 664.572,151.818 C664.107998,152.342003 663.748001,152.981996 663.492,153.738 C663.235999,154.494004 663.108,155.355995 663.108,156.324 C663.108,157.300005 663.245999,158.167996 663.522,158.928 C663.798001,159.688004 664.171998,160.327997 664.644,160.848 C665.116002,161.368003 665.671997,161.765999 666.312,162.042 C666.952003,162.318001 667.639996,162.456 668.376,162.456 C668.816002,162.456 669.213998,162.432 669.57,162.384 C669.926002,162.336 670.253999,162.260001 670.554,162.156 C670.854002,162.051999 671.137999,161.918001 671.406,161.754 C671.674001,161.589999 671.939999,161.388001 672.204,161.148 C672.284,161.076 672.368,161.018 672.456,160.974 C672.544,160.93 672.636,160.908 672.732,160.908 Z" id="GENERIC" fill="#B8E986"></path> <path d="M557.208,212.216 L557.208,217.028 L563.28,217.028 L563.28,219.512 L557.208,219.512 L557.208,224.42 L564.912,224.42 L564.912,227 L553.968,227 L553.968,209.648 L564.912,209.648 L564.912,212.216 L557.208,212.216 Z M577.932,224.336 L577.932,227 L567.768,227 L567.768,209.648 L570.996,209.648 L570.996,224.336 L577.932,224.336 Z M583.476,212.216 L583.476,217.028 L589.548,217.028 L589.548,219.512 L583.476,219.512 L583.476,224.42 L591.18,224.42 L591.18,227 L580.236,227 L580.236,209.648 L591.18,209.648 L591.18,212.216 L583.476,212.216 Z M612.852,209.648 L612.852,227 L610.008,227 L610.008,215.792 C610.008,215.343998 610.032,214.860003 610.08,214.34 L604.836,224.192 C604.587999,224.664002 604.208003,224.9 603.696,224.9 L603.24,224.9 C602.727997,224.9 602.348001,224.664002 602.1,224.192 L596.796,214.304 C596.82,214.568001 596.84,214.827999 596.856,215.084 C596.872,215.340001 596.88,215.575999 596.88,215.792 L596.88,227 L594.036,227 L594.036,209.648 L596.472,209.648 C596.616001,209.648 596.739999,209.652 596.844,209.66 C596.948001,209.668 597.042,209.688 597.126,209.72 C597.21,209.752 597.286,209.804 597.354,209.876 C597.422,209.948 597.488,210.043999 597.552,210.164 L602.748,219.8 C602.884001,220.056001 603.009999,220.319999 603.126,220.592 C603.242001,220.864001 603.355999,221.143999 603.468,221.432 C603.580001,221.135999 603.695999,220.850001 603.816,220.574 C603.936001,220.297999 604.063999,220.032001 604.2,219.776 L609.324,210.164 C609.388,210.043999 609.456,209.948 609.528,209.876 C609.6,209.804 609.678,209.752 609.762,209.72 C609.846,209.688 609.939999,209.668 610.044,209.66 C610.148001,209.652 610.271999,209.648 610.416,209.648 L612.852,209.648 Z M619.956,212.216 L619.956,217.028 L626.028,217.028 L626.028,219.512 L619.956,219.512 L619.956,224.42 L627.66,224.42 L627.66,227 L616.716,227 L616.716,209.648 L627.66,209.648 L627.66,212.216 L619.956,212.216 Z M645.144,209.648 L645.144,227 L643.488,227 C643.231999,227 643.018001,226.958 642.846,226.874 C642.673999,226.79 642.508001,226.648001 642.348,226.448 L633.288,214.88 C633.336,215.408003 633.36,215.895998 633.36,216.344 L633.36,227 L630.516,227 L630.516,209.648 L632.208,209.648 C632.344001,209.648 632.461999,209.654 632.562,209.666 C632.662,209.678 632.75,209.702 632.826,209.738 C632.902,209.774 632.976,209.826 633.048,209.894 C633.12,209.962 633.2,210.051999 633.288,210.164 L642.384,221.78 C642.36,221.499999 642.34,221.224001 642.324,220.952 C642.308,220.679999 642.3,220.428001 642.3,220.196 L642.3,209.648 L645.144,209.648 Z M661.128,212.3 L655.896,212.3 L655.896,227 L652.668,227 L652.668,212.3 L647.436,212.3 L647.436,209.648 L661.128,209.648 L661.128,212.3 Z M672.612,212.804 C672.516,212.972001 672.414001,213.094 672.306,213.17 C672.197999,213.246 672.064001,213.284 671.904,213.284 C671.735999,213.284 671.554001,213.222001 671.358,213.098 C671.161999,212.973999 670.928001,212.836001 670.656,212.684 C670.383999,212.531999 670.066002,212.394001 669.702,212.27 C669.337998,212.145999 668.908002,212.084 668.412,212.084 C667.963998,212.084 667.572002,212.137999 667.236,212.246 C666.899998,212.354001 666.618001,212.503999 666.39,212.696 C666.161999,212.888001 665.992001,213.117999 665.88,213.386 C665.767999,213.654001 665.712,213.947998 665.712,214.268 C665.712,214.676002 665.825999,215.015999 666.054,215.288 C666.282001,215.560001 666.583998,215.791999 666.96,215.984 C667.336002,216.176001 667.763998,216.347999 668.244,216.5 C668.724002,216.652001 669.215997,216.813999 669.72,216.986 C670.224003,217.158001 670.715998,217.357999 671.196,217.586 C671.676002,217.814001 672.103998,218.101998 672.48,218.45 C672.856002,218.798002 673.157999,219.223997 673.386,219.728 C673.614001,220.232003 673.728,220.843996 673.728,221.564 C673.728,222.348004 673.594001,223.081997 673.326,223.766 C673.057999,224.450003 672.666003,225.045997 672.15,225.554 C671.633997,226.062003 671.004004,226.461999 670.26,226.754 C669.515996,227.046001 668.664005,227.192 667.704,227.192 C667.151997,227.192 666.608003,227.138001 666.072,227.03 C665.535997,226.921999 665.022002,226.768001 664.53,226.568 C664.037998,226.367999 663.576002,226.128001 663.144,225.848 C662.711998,225.567999 662.328002,225.256002 661.992,224.912 L662.94,223.364 C663.02,223.251999 663.123999,223.158 663.252,223.082 C663.380001,223.006 663.515999,222.968 663.66,222.968 C663.860001,222.968 664.075999,223.049999 664.308,223.214 C664.540001,223.378001 664.815998,223.559999 665.136,223.76 C665.456002,223.960001 665.829998,224.141999 666.258,224.306 C666.686002,224.470001 667.199997,224.552 667.8,224.552 C668.720005,224.552 669.431997,224.334002 669.936,223.898 C670.440003,223.461998 670.692,222.836004 670.692,222.02 C670.692,221.563998 670.578001,221.192001 670.35,220.904 C670.121999,220.615999 669.820002,220.374001 669.444,220.178 C669.067998,219.981999 668.640002,219.816001 668.16,219.68 C667.679998,219.543999 667.192002,219.396001 666.696,219.236 C666.199998,219.075999 665.712002,218.884001 665.232,218.66 C664.751998,218.435999 664.324002,218.144002 663.948,217.784 C663.571998,217.423998 663.270001,216.974003 663.042,216.434 C662.813999,215.893997 662.7,215.228004 662.7,214.436 C662.7,213.803997 662.825999,213.188003 663.078,212.588 C663.330001,211.987997 663.695998,211.456002 664.176,210.992 C664.656002,210.527998 665.247996,210.156001 665.952,209.876 C666.656004,209.595999 667.463995,209.456 668.376,209.456 C669.400005,209.456 670.343996,209.615998 671.208,209.936 C672.072004,210.256002 672.807997,210.703997 673.416,211.28 L672.612,212.804 Z" id="ELEMENTS" fill="#B8E986"></path> <path d="M590.832,279.324 C590.832,280.596006 590.622002,281.773995 590.202,282.858 C589.781998,283.942005 589.188004,284.879996 588.42,285.672 C587.651996,286.464004 586.728005,287.081998 585.648,287.526 C584.567995,287.970002 583.368007,288.192 582.048,288.192 C580.735993,288.192 579.540005,287.970002 578.46,287.526 C577.379995,287.081998 576.454004,286.464004 575.682,285.672 C574.909996,284.879996 574.312002,283.942005 573.888,282.858 C573.463998,281.773995 573.252,280.596006 573.252,279.324 C573.252,278.051994 573.463998,276.874005 573.888,275.79 C574.312002,274.705995 574.909996,273.768004 575.682,272.976 C576.454004,272.183996 577.379995,271.566002 578.46,271.122 C579.540005,270.677998 580.735993,270.456 582.048,270.456 C582.928004,270.456 583.755996,270.557999 584.532,270.762 C585.308004,270.966001 586.019997,271.253998 586.668,271.626 C587.316003,271.998002 587.897997,272.449997 588.414,272.982 C588.930003,273.514003 589.367998,274.107997 589.728,274.764 C590.088002,275.420003 590.361999,276.131996 590.55,276.9 C590.738001,277.668004 590.832,278.475996 590.832,279.324 Z M587.532,279.324 C587.532,278.371995 587.404001,277.518004 587.148,276.762 C586.891999,276.005996 586.528002,275.364003 586.056,274.836 C585.583998,274.307997 585.010003,273.904001 584.334,273.624 C583.657997,273.343999 582.896004,273.204 582.048,273.204 C581.199996,273.204 580.438003,273.343999 579.762,273.624 C579.085997,273.904001 578.510002,274.307997 578.034,274.836 C577.557998,275.364003 577.192001,276.005996 576.936,276.762 C576.679999,277.518004 576.552,278.371995 576.552,279.324 C576.552,280.276005 576.679999,281.129996 576.936,281.886 C577.192001,282.642004 577.557998,283.281997 578.034,283.806 C578.510002,284.330003 579.085997,284.731999 579.762,285.012 C580.438003,285.292001 581.199996,285.432 582.048,285.432 C582.896004,285.432 583.657997,285.292001 584.334,285.012 C585.010003,284.731999 585.583998,284.330003 586.056,283.806 C586.528002,283.281997 586.891999,282.642004 587.148,281.886 C587.404001,281.129996 587.532,280.276005 587.532,279.324 Z M600.168,285.48 C600.768003,285.48 601.271998,285.408001 601.68,285.264 C602.088002,285.119999 602.413999,284.928001 602.658,284.688 C602.902001,284.447999 603.077999,284.168002 603.186,283.848 C603.294001,283.527998 603.348,283.188002 603.348,282.828 C603.348,282.451998 603.288001,282.114001 603.168,281.814 C603.047999,281.513999 602.860001,281.258001 602.604,281.046 C602.347999,280.833999 602.018002,280.672001 601.614,280.56 C601.209998,280.447999 600.724003,280.392 600.156,280.392 L596.904,280.392 L596.904,285.48 L600.168,285.48 Z M596.904,273.144 L596.904,278.16 L599.472,278.16 C600.576006,278.16 601.409997,277.960002 601.974,277.56 C602.538003,277.159998 602.82,276.524004 602.82,275.652 C602.82,274.747995 602.564003,274.104002 602.052,273.72 C601.539997,273.335998 600.740005,273.144 599.652,273.144 L596.904,273.144 Z M599.652,270.648 C600.788006,270.648 601.759996,270.755999 602.568,270.972 C603.376004,271.188001 604.037997,271.495998 604.554,271.896 C605.070003,272.296002 605.447999,272.779997 605.688,273.348 C605.928001,273.916003 606.048,274.555996 606.048,275.268 C606.048,275.676002 605.988001,276.065998 605.868,276.438 C605.747999,276.810002 605.562001,277.157998 605.31,277.482 C605.057999,277.806002 604.738002,278.099999 604.35,278.364 C603.961998,278.628001 603.500003,278.851999 602.964,279.036 C605.348012,279.572003 606.54,280.85999 606.54,282.9 C606.54,283.636004 606.400001,284.315997 606.12,284.94 C605.839999,285.564003 605.432003,286.101998 604.896,286.554 C604.359997,287.006002 603.700004,287.359999 602.916,287.616 C602.131996,287.872001 601.236005,288 600.228,288 L593.676,288 L593.676,270.648 L599.652,270.648 Z M615.996,281.832 C615.996,282.808005 615.876001,283.687996 615.636,284.472 C615.395999,285.256004 615.038002,285.923997 614.562,286.476 C614.085998,287.028003 613.492004,287.451999 612.78,287.748 C612.067996,288.044001 611.240005,288.192 610.296,288.192 C609.863998,288.192 609.440002,288.166 609.024,288.114 C608.607998,288.062 608.172002,287.980001 607.716,287.868 C607.74,287.547998 607.768,287.228002 607.8,286.908 C607.832,286.587998 607.86,286.268002 607.884,285.948 C607.908,285.771999 607.977999,285.630001 608.094,285.522 C608.210001,285.413999 608.375999,285.36 608.592,285.36 C608.728001,285.36 608.905999,285.388 609.126,285.444 C609.346001,285.5 609.623998,285.528 609.96,285.528 C610.416002,285.528 610.819998,285.462001 611.172,285.33 C611.524002,285.197999 611.817999,284.988001 612.054,284.7 C612.290001,284.411999 612.467999,284.038002 612.588,283.578 C612.708001,283.117998 612.768,282.560003 612.768,281.904 L612.768,270.648 L615.996,270.648 L615.996,281.832 Z M622.932,273.216 L622.932,278.028 L629.004,278.028 L629.004,280.512 L622.932,280.512 L622.932,285.42 L630.636,285.42 L630.636,288 L619.692,288 L619.692,270.648 L630.636,270.648 L630.636,273.216 L622.932,273.216 Z M645.036,283.908 C645.212001,283.908 645.367999,283.975999 645.504,284.112 L646.776,285.492 C646.071996,286.364004 645.206005,287.031998 644.178,287.496 C643.149995,287.960002 641.916007,288.192 640.476,288.192 C639.187994,288.192 638.030005,287.972002 637.002,287.532 C635.973995,287.091998 635.096004,286.480004 634.368,285.696 C633.639996,284.911996 633.082002,283.976005 632.694,282.888 C632.305998,281.799995 632.112,280.612006 632.112,279.324 C632.112,278.019993 632.319998,276.826005 632.736,275.742 C633.152002,274.657995 633.737996,273.724004 634.494,272.94 C635.250004,272.155996 636.151995,271.546002 637.2,271.11 C638.248005,270.673998 639.407994,270.456 640.68,270.456 C641.944006,270.456 643.065995,270.663998 644.046,271.08 C645.026005,271.496002 645.859997,272.039997 646.548,272.712 L645.468,274.212 C645.404,274.308 645.322,274.392 645.222,274.464 C645.122,274.536 644.984001,274.572 644.808,274.572 C644.687999,274.572 644.564001,274.538 644.436,274.47 C644.307999,274.402 644.168001,274.318 644.016,274.218 C643.863999,274.117999 643.688001,274.008001 643.488,273.888 C643.287999,273.767999 643.056001,273.658001 642.792,273.558 C642.527999,273.458 642.222002,273.374 641.874,273.306 C641.525998,273.238 641.124002,273.204 640.668,273.204 C639.891996,273.204 639.182003,273.341999 638.538,273.618 C637.893997,273.894001 637.340002,274.293997 636.876,274.818 C636.411998,275.342003 636.052001,275.981996 635.796,276.738 C635.539999,277.494004 635.412,278.355995 635.412,279.324 C635.412,280.300005 635.549999,281.167996 635.826,281.928 C636.102001,282.688004 636.475998,283.327997 636.948,283.848 C637.420002,284.368003 637.975997,284.765999 638.616,285.042 C639.256003,285.318001 639.943996,285.456 640.68,285.456 C641.120002,285.456 641.517998,285.432 641.874,285.384 C642.230002,285.336 642.557998,285.260001 642.858,285.156 C643.158001,285.051999 643.441999,284.918001 643.71,284.754 C643.978001,284.589999 644.243999,284.388001 644.508,284.148 C644.588,284.076 644.672,284.018 644.76,283.974 C644.848,283.93 644.94,283.908 645.036,283.908 Z M661.116,273.3 L655.884,273.3 L655.884,288 L652.656,288 L652.656,273.3 L647.424,273.3 L647.424,270.648 L661.116,270.648 L661.116,273.3 Z M672.6,273.804 C672.504,273.972001 672.402001,274.094 672.294,274.17 C672.185999,274.246 672.052001,274.284 671.892,274.284 C671.723999,274.284 671.542001,274.222001 671.346,274.098 C671.149999,273.973999 670.916001,273.836001 670.644,273.684 C670.371999,273.531999 670.054002,273.394001 669.69,273.27 C669.325998,273.145999 668.896002,273.084 668.4,273.084 C667.951998,273.084 667.560002,273.137999 667.224,273.246 C666.887998,273.354001 666.606001,273.503999 666.378,273.696 C666.149999,273.888001 665.980001,274.117999 665.868,274.386 C665.755999,274.654001 665.7,274.947998 665.7,275.268 C665.7,275.676002 665.813999,276.015999 666.042,276.288 C666.270001,276.560001 666.571998,276.791999 666.948,276.984 C667.324002,277.176001 667.751998,277.347999 668.232,277.5 C668.712002,277.652001 669.203997,277.813999 669.708,277.986 C670.212003,278.158001 670.703998,278.357999 671.184,278.586 C671.664002,278.814001 672.091998,279.101998 672.468,279.45 C672.844002,279.798002 673.145999,280.223997 673.374,280.728 C673.602001,281.232003 673.716,281.843996 673.716,282.564 C673.716,283.348004 673.582001,284.081997 673.314,284.766 C673.045999,285.450003 672.654003,286.045997 672.138,286.554 C671.621997,287.062003 670.992004,287.461999 670.248,287.754 C669.503996,288.046001 668.652005,288.192 667.692,288.192 C667.139997,288.192 666.596003,288.138001 666.06,288.03 C665.523997,287.921999 665.010002,287.768001 664.518,287.568 C664.025998,287.367999 663.564002,287.128001 663.132,286.848 C662.699998,286.567999 662.316002,286.256002 661.98,285.912 L662.928,284.364 C663.008,284.251999 663.111999,284.158 663.24,284.082 C663.368001,284.006 663.503999,283.968 663.648,283.968 C663.848001,283.968 664.063999,284.049999 664.296,284.214 C664.528001,284.378001 664.803998,284.559999 665.124,284.76 C665.444002,284.960001 665.817998,285.141999 666.246,285.306 C666.674002,285.470001 667.187997,285.552 667.788,285.552 C668.708005,285.552 669.419997,285.334002 669.924,284.898 C670.428003,284.461998 670.68,283.836004 670.68,283.02 C670.68,282.563998 670.566001,282.192001 670.338,281.904 C670.109999,281.615999 669.808002,281.374001 669.432,281.178 C669.055998,280.981999 668.628002,280.816001 668.148,280.68 C667.667998,280.543999 667.180002,280.396001 666.684,280.236 C666.187998,280.075999 665.700002,279.884001 665.22,279.66 C664.739998,279.435999 664.312002,279.144002 663.936,278.784 C663.559998,278.423998 663.258001,277.974003 663.03,277.434 C662.801999,276.893997 662.688,276.228004 662.688,275.436 C662.688,274.803997 662.813999,274.188003 663.066,273.588 C663.318001,272.987997 663.683998,272.456002 664.164,271.992 C664.644002,271.527998 665.235996,271.156001 665.94,270.876 C666.644004,270.595999 667.451995,270.456 668.364,270.456 C669.388005,270.456 670.331996,270.615998 671.196,270.936 C672.060004,271.256002 672.795997,271.703997 673.404,272.28 L672.6,273.804 Z" id="OBJECTS" fill="#B8E986"></path> <path d="M574.172,25.804 C574.076,25.9720008 573.974001,26.0939996 573.866,26.17 C573.757999,26.2460004 573.624001,26.284 573.464,26.284 C573.295999,26.284 573.114001,26.2220006 572.918,26.098 C572.721999,25.9739994 572.488001,25.8360008 572.216,25.684 C571.943999,25.5319992 571.626002,25.3940006 571.262,25.27 C570.897998,25.1459994 570.468002,25.084 569.972,25.084 C569.523998,25.084 569.132002,25.1379995 568.796,25.246 C568.459998,25.3540005 568.178001,25.503999 567.95,25.696 C567.721999,25.888001 567.552001,26.1179987 567.44,26.386 C567.327999,26.6540013 567.272,26.9479984 567.272,27.268 C567.272,27.676002 567.385999,28.0159986 567.614,28.288 C567.842001,28.5600014 568.143998,28.791999 568.52,28.984 C568.896002,29.176001 569.323998,29.3479992 569.804,29.5 C570.284002,29.6520008 570.775997,29.8139991 571.28,29.986 C571.784003,30.1580009 572.275998,30.3579989 572.756,30.586 C573.236002,30.8140011 573.663998,31.1019983 574.04,31.45 C574.416002,31.7980017 574.717999,32.2239975 574.946,32.728 C575.174001,33.2320025 575.288,33.8439964 575.288,34.564 C575.288,35.3480039 575.154001,36.0819966 574.886,36.766 C574.617999,37.4500034 574.226003,38.0459975 573.71,38.554 C573.193997,39.0620025 572.564004,39.4619985 571.82,39.754 C571.075996,40.0460015 570.224005,40.192 569.264,40.192 C568.711997,40.192 568.168003,40.1380005 567.632,40.03 C567.095997,39.9219995 566.582002,39.768001 566.09,39.568 C565.597998,39.367999 565.136002,39.1280014 564.704,38.848 C564.271998,38.5679986 563.888002,38.2560017 563.552,37.912 L564.5,36.364 C564.58,36.2519994 564.683999,36.1580004 564.812,36.082 C564.940001,36.0059996 565.075999,35.968 565.22,35.968 C565.420001,35.968 565.635999,36.0499992 565.868,36.214 C566.100001,36.3780008 566.375998,36.559999 566.696,36.76 C567.016002,36.960001 567.389998,37.1419992 567.818,37.306 C568.246002,37.4700008 568.759997,37.552 569.36,37.552 C570.280005,37.552 570.991997,37.3340022 571.496,36.898 C572.000003,36.4619978 572.252,35.8360041 572.252,35.02 C572.252,34.5639977 572.138001,34.1920014 571.91,33.904 C571.681999,33.6159986 571.380002,33.374001 571.004,33.178 C570.627998,32.981999 570.200002,32.8160007 569.72,32.68 C569.239998,32.5439993 568.752002,32.3960008 568.256,32.236 C567.759998,32.0759992 567.272002,31.8840011 566.792,31.66 C566.311998,31.4359989 565.884002,31.1440018 565.508,30.784 C565.131998,30.4239982 564.830001,29.9740027 564.602,29.434 C564.373999,28.8939973 564.26,28.228004 564.26,27.436 C564.26,26.8039968 564.385999,26.188003 564.638,25.588 C564.890001,24.987997 565.255998,24.4560023 565.736,23.992 C566.216002,23.5279977 566.807996,23.1560014 567.512,22.876 C568.216004,22.5959986 569.023995,22.456 569.936,22.456 C570.960005,22.456 571.903996,22.6159984 572.768,22.936 C573.632004,23.2560016 574.367997,23.7039971 574.976,24.28 L574.172,25.804 Z M581.336,25.216 L581.336,30.028 L587.408,30.028 L587.408,32.512 L581.336,32.512 L581.336,37.42 L589.04,37.42 L589.04,40 L578.096,40 L578.096,22.648 L589.04,22.648 L589.04,25.216 L581.336,25.216 Z M604.016,25.3 L598.784,25.3 L598.784,40 L595.556,40 L595.556,25.3 L590.324,25.3 L590.324,22.648 L604.016,22.648 L604.016,25.3 Z M618.416,25.3 L613.184,25.3 L613.184,40 L609.956,40 L609.956,25.3 L604.724,25.3 L604.724,22.648 L618.416,22.648 L618.416,25.3 Z M623.936,40 L620.696,40 L620.696,22.648 L623.936,22.648 L623.936,40 Z M642.44,22.648 L642.44,40 L640.784,40 C640.527999,40 640.314001,39.9580004 640.142,39.874 C639.969999,39.7899996 639.804001,39.648001 639.644,39.448 L630.584,27.88 C630.632,28.4080026 630.656,28.8959978 630.656,29.344 L630.656,40 L627.812,40 L627.812,22.648 L629.504,22.648 C629.640001,22.648 629.757999,22.6539999 629.858,22.666 C629.958001,22.6780001 630.046,22.7019998 630.122,22.738 C630.198,22.7740002 630.272,22.8259997 630.344,22.894 C630.416,22.9620003 630.496,23.0519994 630.584,23.164 L639.68,34.78 C639.656,34.4999986 639.636,34.2240014 639.62,33.952 C639.604,33.6799986 639.596,33.4280012 639.596,33.196 L639.596,22.648 L642.44,22.648 Z M660.608,31.3 L660.608,38.32 C659.727996,38.9680032 658.790005,39.4419985 657.794,39.742 C656.797995,40.0420015 655.732006,40.192 654.596,40.192 C653.179993,40.192 651.898006,39.9720022 650.75,39.532 C649.601994,39.0919978 648.622004,38.4800039 647.81,37.696 C646.997996,36.9119961 646.372002,35.9760054 645.932,34.888 C645.491998,33.7999946 645.272,32.6120064 645.272,31.324 C645.272,30.0199935 645.483998,28.8240054 645.908,27.736 C646.332002,26.6479946 646.933996,25.7120039 647.714,24.928 C648.494004,24.1439961 649.439994,23.5360022 650.552,23.104 C651.664006,22.6719978 652.911993,22.456 654.296,22.456 C655.000004,22.456 655.657997,22.5119994 656.27,22.624 C656.882003,22.7360006 657.449997,22.889999 657.974,23.086 C658.498003,23.282001 658.975998,23.5199986 659.408,23.8 C659.840002,24.0800014 660.235998,24.3879983 660.596,24.724 L659.672,26.188 C659.527999,26.4200012 659.340001,26.5619997 659.108,26.614 C658.875999,26.6660003 658.624001,26.6080008 658.352,26.44 L657.56,25.984 C657.295999,25.8319992 657.002002,25.7000006 656.678,25.588 C656.353998,25.4759994 655.990002,25.3840004 655.586,25.312 C655.181998,25.2399996 654.716003,25.204 654.188,25.204 C653.331996,25.204 652.558003,25.3479986 651.866,25.636 C651.173997,25.9240014 650.584002,26.3359973 650.096,26.872 C649.607998,27.4080027 649.232001,28.0519962 648.968,28.804 C648.703999,29.5560038 648.572,30.3959954 648.572,31.324 C648.572,32.316005 648.713999,33.2019961 648.998,33.982 C649.282001,34.7620039 649.681997,35.4219973 650.198,35.962 C650.714003,36.5020027 651.335996,36.9139986 652.064,37.198 C652.792004,37.4820014 653.603996,37.624 654.5,37.624 C655.140003,37.624 655.711997,37.5560007 656.216,37.42 C656.720003,37.2839993 657.211998,37.1000012 657.692,36.868 L657.692,33.724 L655.508,33.724 C655.299999,33.724 655.138001,33.6660006 655.022,33.55 C654.905999,33.4339994 654.848,33.2920008 654.848,33.124 L654.848,31.3 L660.608,31.3 Z M672.968,25.804 C672.872,25.9720008 672.770001,26.0939996 672.662,26.17 C672.553999,26.2460004 672.420001,26.284 672.26,26.284 C672.091999,26.284 671.910001,26.2220006 671.714,26.098 C671.517999,25.9739994 671.284001,25.8360008 671.012,25.684 C670.739999,25.5319992 670.422002,25.3940006 670.058,25.27 C669.693998,25.1459994 669.264002,25.084 668.768,25.084 C668.319998,25.084 667.928002,25.1379995 667.592,25.246 C667.255998,25.3540005 666.974001,25.503999 666.746,25.696 C666.517999,25.888001 666.348001,26.1179987 666.236,26.386 C666.123999,26.6540013 666.068,26.9479984 666.068,27.268 C666.068,27.676002 666.181999,28.0159986 666.41,28.288 C666.638001,28.5600014 666.939998,28.791999 667.316,28.984 C667.692002,29.176001 668.119998,29.3479992 668.6,29.5 C669.080002,29.6520008 669.571997,29.8139991 670.076,29.986 C670.580003,30.1580009 671.071998,30.3579989 671.552,30.586 C672.032002,30.8140011 672.459998,31.1019983 672.836,31.45 C673.212002,31.7980017 673.513999,32.2239975 673.742,32.728 C673.970001,33.2320025 674.084,33.8439964 674.084,34.564 C674.084,35.3480039 673.950001,36.0819966 673.682,36.766 C673.413999,37.4500034 673.022003,38.0459975 672.506,38.554 C671.989997,39.0620025 671.360004,39.4619985 670.616,39.754 C669.871996,40.0460015 669.020005,40.192 668.06,40.192 C667.507997,40.192 666.964003,40.1380005 666.428,40.03 C665.891997,39.9219995 665.378002,39.768001 664.886,39.568 C664.393998,39.367999 663.932002,39.1280014 663.5,38.848 C663.067998,38.5679986 662.684002,38.2560017 662.348,37.912 L663.296,36.364 C663.376,36.2519994 663.479999,36.1580004 663.608,36.082 C663.736001,36.0059996 663.871999,35.968 664.016,35.968 C664.216001,35.968 664.431999,36.0499992 664.664,36.214 C664.896001,36.3780008 665.171998,36.559999 665.492,36.76 C665.812002,36.960001 666.185998,37.1419992 666.614,37.306 C667.042002,37.4700008 667.555997,37.552 668.156,37.552 C669.076005,37.552 669.787997,37.3340022 670.292,36.898 C670.796003,36.4619978 671.048,35.8360041 671.048,35.02 C671.048,34.5639977 670.934001,34.1920014 670.706,33.904 C670.477999,33.6159986 670.176002,33.374001 669.8,33.178 C669.423998,32.981999 668.996002,32.8160007 668.516,32.68 C668.035998,32.5439993 667.548002,32.3960008 667.052,32.236 C666.555998,32.0759992 666.068002,31.8840011 665.588,31.66 C665.107998,31.4359989 664.680002,31.1440018 664.304,30.784 C663.927998,30.4239982 663.626001,29.9740027 663.398,29.434 C663.169999,28.8939973 663.056,28.228004 663.056,27.436 C663.056,26.8039968 663.181999,26.188003 663.434,25.588 C663.686001,24.987997 664.051998,24.4560023 664.532,23.992 C665.012002,23.5279977 665.603996,23.1560014 666.308,22.876 C667.012004,22.5959986 667.819995,22.456 668.732,22.456 C669.756005,22.456 670.699996,22.6159984 671.564,22.936 C672.428004,23.2560016 673.163997,23.7039971 673.772,24.28 L672.968,25.804 Z" id="SETTINGS" fill="#B8E986"></path> </g> </g>
</svg>