<?xml version="1.0"?>

<!-- Generator: Adobe Illustrator 22.0.1, SVG Export Plug-In . SVG Version: 6.00 Build 0) -->
<svg version="1.1" xmlns="http://www.w3.org/2000/svg" xmlns:xlink="http://www.w3.org/1999/xlink" x="0px" y="0px" viewBox="0 0 130 215" style="enable-background:new 0 0 130 215;" xml:space="preserve" width="130" height="215">
<style type="text/css"> .st0{fill:#D9D6D7;} .st1{fill:#C1C1C1;} .st2{fill:#848182;} .st3{fill:#202021;} .st4{fill:#B8E986;} .st5{opacity:0.2;fill:#917A6C;enable-background:new ;} .st6{opacity:0.1;fill:#FFFFFF;enable-background:new ;} .st7{opacity:0.2;fill:url(#XMLID_3_);enable-background:new ;} .st8{opacity:0.2;fill:url(#XMLID_4_);enable-background:new ;} .st9{opacity:0.5;fill:#474747;} .st10{opacity:0.5;fill:#D78578;} .st11{opacity:0.25;fill:#B8E986;enable-background:new ;} .st12{fill:url(#XMLID_5_);} .st13{opacity:0.67;fill:#B8E986;} .st14{fill:#3D3D3B;} .st15{opacity:0.8;fill:#85A945;}
</style>
<g id="tornillos"> <g> <g> <path class="st0" d="M83.6,166.4h10.2c1.7,0,3.1-1.4,3.1-3.1l0,0c0-1.7-1.4-3.1-3.1-3.1H83.6c-1.7,0-3.1,1.4-3.1,3.1l0,0 C80.5,165,81.9,166.4,83.6,166.4z"></path> <path class="st1" d="M83.6,163.9h10.2c1.2,0,2.3-0.8,2.8-1.8c0.2,0.4,0.3,0.8,0.3,1.2c0,1.7-1.4,3.1-3.1,3.1H83.6 c-1.7,0-3.1-1.4-3.1-3.1c0-0.4,0.1-0.8,0.3-1.2C81.3,163.2,82.3,163.9,83.6,163.9z"></path> <path class="st1" d="M96.2,171.7h0.4c1.8,0,3.3-1.5,3.3-3.3v-10.3c0-1.8-1.5-3.3-3.3-3.3h-0.4c-1.8,0-3.3,1.5-3.3,3.3v10.3 C92.9,170.2,94.3,171.7,96.2,171.7z"></path> <path class="st2" d="M94.8,167.5h3.1c1.1,0,2-0.9,2-2v4.2c0,1.1-0.9,2-2,2h-3.1c-1.1,0-2-0.9-2-2v-4.2 C92.9,166.6,93.8,167.5,94.8,167.5z"></path> <path class="st0" d="M94.8,157.3h3.6c0.4,0,0.7-0.3,0.7-0.7l0,0c0-0.4-0.3-0.7-0.7-0.7h-3.6c-0.4,0-0.7,0.3-0.7,0.7l0,0 C94.1,157,94.4,157.3,94.8,157.3z"></path> </g> </g> <g> <g> <path class="st0" d="M46,161.2H35.9c-1.7,0-3.1,1.4-3.1,3.1l0,0c0,1.7,1.4,3.1,3.1,3.1H46c1.7,0,3.1-1.4,3.1-3.1l0,0 C49.1,162.6,47.7,161.2,46,161.2z"></path> <path class="st1" d="M46,163.6H35.9c-1.2,0-2.3,0.8-2.8,1.8c-0.2-0.4-0.3-0.8-0.3-1.2c0-1.7,1.4-3.1,3.1-3.1H46 c1.7,0,3.1,1.4,3.1,3.1c0,0.4-0.1,0.8-0.3,1.2C48.3,164.4,47.3,163.6,46,163.6z"></path> <path class="st1" d="M33.4,155.8H33c-1.8,0-3.3,1.5-3.3,3.3v10.3c0,1.8,1.5,3.3,3.3,3.3h0.4c1.8,0,3.3-1.5,3.3-3.3v-10.3 C36.7,157.3,35.2,155.8,33.4,155.8z"></path> <path class="st2" d="M34.8,160.1h-3.1c-1.1,0-2,0.9-2,2v-4.2c0-1.1,0.9-2,2-2h3.1c1.1,0,2,0.9,2,2v4.2 C36.7,161,35.8,160.1,34.8,160.1z"></path> <path class="st0" d="M34.8,170.2h-3.6c-0.4,0-0.7,0.3-0.7,0.7l0,0c0,0.4,0.3,0.7,0.7,0.7h3.6c0.4,0,0.7-0.3,0.7-0.7l0,0 C35.5,170.5,35.2,170.2,34.8,170.2z"></path> </g> </g>
</g>
<g id="Capa_1"> <g id="XMLID_2_"> <polygon class="st3" points="1.2,189.1 65,162.9 128.8,189.1 128.8,214.4 1.2,214.4 "></polygon> <path id="XMLID_61_" class="st4" d="M90.1,182.6v-34.8H39.8v35.6c0,0.1,0,0.3,0,0.4c0,6.4,11.3,11.6,25.2,11.6s25.2-5.2,25.2-11.6 C90.2,183.4,90.2,183.1,90.1,182.6z"></path> <ellipse id="XMLID_60_" transform="matrix(0.9718 -0.236 0.236 0.9718 -21.6015 7.767)" class="st4" cx="21.6" cy="94.1" rx="5.5" ry="17.5"></ellipse> <path id="XMLID_59_" class="st5" d="M39.8,137.8v16.1c6,10,15.1,16.4,25.3,16.4c10,0,19-6.2,25-15.8v-16.7H39.8z"></path> <ellipse id="XMLID_58_" transform="matrix(0.2362 -0.9717 0.9717 0.2362 -8.6005 177.1651)" class="st4" cx="108.4" cy="94.1" rx="17.5" ry="5.5"></ellipse> <path id="XMLID_57_" class="st4" d="M86.2,20c-11.3-5.3-20-1-20-1h-0.6c0,0-0.2-0.1-0.6-0.3c-0.4,0.2-0.6,0.3-0.6,0.3h-0.6 c0,0-8.7-4.3-20,1c-28.5,13.5-22.6,68.7-14,107.7s27,35.3,27,35.3H65h8.2c0,0,18.3,3.7,27-35.3S114.7,33.5,86.2,20z"></path> <path id="XMLID_56_" class="st6" d="M29,33.9l9.7,35.8c0,0-5,1-5.5,5.7c-0.8,7.3,3.8,29.8,3.8,29.8l4.3,33.1l23.7-0.3V11.6 L29,33.9z"></path> <path id="XMLID_55_" class="st6" d="M101,33.9l-9.7,35.8c0,0,5,1,5.5,5.7c0.8,7.3-3.8,29.8-3.8,29.8l-4.3,33.1L65,137.9V11.6 L101,33.9z"></path> <radialGradient id="XMLID_3_" cx="-98.2069" cy="1006.4524" r="15.3462" gradientTransform="matrix(0.9231 0 0 0.9231 132.4548 -831.8062)" gradientUnits="userSpaceOnUse"> <stop offset="0" style="stop-color:#E30D18"></stop> <stop offset="9.625912e-02" style="stop-color:#E43627"></stop> <stop offset="0.3272" style="stop-color:#E87054"></stop> <stop offset="0.5412" style="stop-color:#E9977E"></stop> <stop offset="0.7314" style="stop-color:#EAB29E"></stop> <stop offset="0.8908" style="stop-color:#EAC1B2"></stop> <stop offset="1" style="stop-color:#EAC6B9"></stop> </radialGradient> <circle id="XMLID_53_" class="st7" cx="41.8" cy="97.2" r="14.2"></circle> <radialGradient id="XMLID_4_" cx="-47.9415" cy="1006.4524" r="15.3829" gradientTransform="matrix(0.9231 0 0 0.9231 132.4548 -831.8062)" gradientUnits="userSpaceOnUse"> <stop offset="0" style="stop-color:#E30D18"></stop> <stop offset="9.625912e-02" style="stop-color:#E43627"></stop> <stop offset="0.3272" style="stop-color:#E87054"></stop> <stop offset="0.5412" style="stop-color:#E9977E"></stop> <stop offset="0.7314" style="stop-color:#EAB29E"></stop> <stop offset="0.8908" style="stop-color:#EAC1B2"></stop> <stop offset="1" style="stop-color:#EAC6B9"></stop> </radialGradient> <circle id="XMLID_52_" class="st8" cx="88.2" cy="97.2" r="14.2"></circle> <path id="XMLID_49_" class="st9" d="M101.3,118.5c-8.1,25.9-14.8,15.2-14.8,15.2l1.8-20.2c0,0-11.5-6.3-14.9-9 c-1.1-0.9-4.9,0.8-5.8,0.8c-0.8,0.1-1.6,0.2-2.4,0.2l0,0l0,0c0,0,0,0-0.1,0c0,0,0,0-0.1,0l0,0l0,0c-0.9,0-1.7-0.1-2.4-0.2 c-0.9,0-4.7-1.6-5.8-0.8c-3.4,2.7-14.9,9-14.9,9l1.8,20.2c0,0-6.7,10.7-14.8-15.2c-0.4-1.2-0.6-0.6-0.5,1.1c0.5,2.7,1.1,5.4,1.7,8 c4.1,18.4,10.3,27.3,15.8,31.6c2,1.5,4.1,2.6,6.5,3.4c2.8,0.8,4.7,0.4,4.7,0.4h7.4c0.2,0,0.4-0.1,0.6-0.1h0.1c0,0,0,0,0.1,0 c0.2,0.1,0.5,0.1,0.7,0.1h7.4c0,0,1.2,0.2,3.2-0.1c3.1-0.7,5.9-2.1,8.3-3.9c5.4-4.4,11.5-13.3,15.5-31.4c0.6-2.6,1.1-5.3,1.7-8 C101.9,117.9,101.7,117.4,101.3,118.5z M84.1,125.4c-6.4,16.7-11.1,10-13.2,5c2.3-1.4,4.9-2.3,5.4-5.3c-2.8,0.7-6.8,1.2-11.3,1.2 h-0.1h-0.1c-4.5,0-8.5-0.5-11.3-1.2c0.5,3,3.2,3.9,5.4,5.3c-2.1,5-6.8,11.7-13.2-5.1c-1.8-4.8,0-7.8,0-7.8l11.3-6.1h0.1 c1.2,1.1,4.2,1.9,7.8,1.9c3.6,0,6.6-0.8,7.8-1.9c0.1,0,0.2-0.1,0.2-0.1l11.1,6.2C84.1,117.5,85.9,120.6,84.1,125.4z"></path> <path id="XMLID_48_" class="st10" d="M50.4,119.9c0-0.5,0.3-0.9,0.8-0.9s0.9,0.3,0.9,0.8c0,0.1,0,0.2,0,0.3 c0.4-0.1,0.8-0.3,1.3-0.4c1.3-0.3,3.1-0.4,4.8-0.2c1.7,0.2,3.4,0.7,4.6,1.3c0.6,0.3,1.1,0.6,1.5,0.9c0.3,0.2,0.5,0.3,0.5,0.4 c0.1,0,0.3-0.2,0.5-0.4c0.4-0.2,0.9-0.5,1.5-0.8c1.3-0.5,3-0.9,4.7-1s3.5,0.1,4.8,0.5c0.6,0.2,1.1,0.4,1.5,0.6 c0-0.1-0.1-0.1-0.1-0.2c0-0.5,0.3-0.9,0.8-0.9s0.9,0.3,0.9,0.8s-0.3,0.9-0.8,0.9h-0.1l0,0c0,0-0.9,0.1-2.2,0.2 c-1.3,0.1-3,0.2-4.7,0.3c-1.7,0.1-3.5,0.1-4.8,0.2c-1.2,0-2,0-2.1,0.1l0,0l0,0l0,0l0,0c-0.1,0-0.9-0.1-2.1-0.2 c-1.3-0.1-3-0.3-4.7-0.5s-3.4-0.5-4.7-0.6c-1.3-0.2-2.1-0.3-2.1-0.3l0,0C50.8,120.6,50.4,120.3,50.4,119.9z"></path> <path id="XMLID_47_" class="st11" d="M73.2,162.9c0,0,18.3,3.7,27-35.3s14.5-94.2-14-107.7c-11.3-5.3-20-1-20-1h-0.6 c0,0-0.2-0.1-0.6-0.3v144.3H73.2z"></path> <g id="XMLID_44_"> <path id="XMLID_12_" d="M34.2,80.8c0,0,1.1-0.8,3-1.8c0.9-0.5,2-1,3.2-1.4c1.2-0.5,2.5-0.9,3.9-1.3c0.7-0.2,1.4-0.3,2-0.4 c0.7-0.1,1.3-0.2,2-0.3c0.6-0.1,1.3-0.1,1.9-0.1c0.6,0,1.2,0,1.7,0s1,0.1,1.4,0.1s0.8,0.1,1.1,0.2c0.6,0.1,0.9,0.2,0.9,0.2 s-0.3,0-0.9,0.1c-0.3,0-0.7,0-1.1,0.1c-0.4,0-0.9,0.1-1.4,0.1c-0.5,0.1-1,0.1-1.6,0.2s-1.2,0.2-1.8,0.3c-0.6,0.1-1.2,0.3-1.9,0.4 c-0.6,0.2-1.3,0.3-1.9,0.5c-0.6,0.2-1.3,0.3-1.9,0.5c-0.6,0.2-1.3,0.3-1.9,0.5c-1.2,0.4-2.3,0.7-3.3,1 C35.5,80.3,34.2,80.8,34.2,80.8z"></path> </g> <path id="XMLID_43_" d="M49,77.8c0.3,1.2-1.3,2.7-3.7,3.4c-2.3,0.7-4.5,0.2-4.8-1s1.3-2.7,3.7-3.4C46.5,76.1,48.7,76.6,49,77.8z"></path> <g id="XMLID_40_"> <path id="XMLID_10_" d="M95.8,80.8c0,0-1.3-0.4-3.3-1c-1-0.3-2.1-0.6-3.3-1c-0.6-0.2-1.2-0.3-1.9-0.5c-0.6-0.2-1.3-0.3-1.9-0.5 c-0.7-0.2-1.3-0.3-1.9-0.5c-0.6-0.1-1.3-0.3-1.9-0.4s-1.2-0.2-1.8-0.3c-0.6-0.1-1.1-0.2-1.6-0.2s-1-0.1-1.4-0.1s-0.8,0-1.1-0.1 c-0.6,0-0.9-0.1-0.9-0.1s0.3-0.1,0.9-0.2c0.3-0.1,0.7-0.2,1.1-0.2s0.9-0.1,1.4-0.1s1.1,0,1.7,0s1.2,0.1,1.9,0.1 c0.6,0.1,1.3,0.2,2,0.3c0.7,0.1,1.3,0.3,2,0.4c1.3,0.4,2.7,0.8,3.9,1.3c1.2,0.5,2.3,1,3.2,1.4C94.7,79.9,95.8,80.8,95.8,80.8z"></path> </g> <path id="XMLID_39_" d="M81.1,77.8c-0.3,1.2,1.3,2.7,3.7,3.4c2.3,0.7,4.5,0.2,4.8-1s-1.3-2.7-3.7-3.4 C83.5,76.1,81.3,76.6,81.1,77.8z"></path> <path id="XMLID_38_" d="M33.1,67.3c3.1-0.2,6.1-0.2,8.8,0.1c0.1,0,0.2,0,0.2,0c5.5,0,12.4,0.4,15.8,1.5c-1-1.7-6.1-8.4-24.5-3.3 C32.9,65.8,32.8,67.3,33.1,67.3z"></path> <path id="XMLID_37_" d="M87.9,67.4c0.1,0,0.1,0,0.2,0c2.7-0.2,5.7-0.3,8.8-0.1c0.3,0,0.2-1.6-0.3-1.7c-18.4-5.1-23.5,1.5-24.5,3.3 C75.5,67.8,82.4,67.4,87.9,67.4z"></path> <linearGradient id="XMLID_5_" gradientUnits="userSpaceOnUse" x1="64.9778" y1="941.7899" x2="64.9778" y2="972.9899" gradientTransform="matrix(1 0 0 1 0 -865)"> <stop offset="0" style="stop-color:#B8E986"></stop> <stop offset="0.9981" style="stop-color:#B8AC89"></stop> </linearGradient> <path id="XMLID_36_" class="st12" d="M71.4,92.9c0,0-4.4-14.1-4.6-15.2c-0.1-0.6-0.8-0.8-1.4-0.9l0,0h-0.1h-0.1 c-0.1,0-0.1,0-0.2,0s-0.1,0-0.2,0h-0.1c-0.1,0-0.1,0-0.1,0l0,0c-0.6,0.1-1.3,0.2-1.4,0.9c-0.2,1.1-4.6,15.2-4.6,15.2 s-9.4,9.8-0.2,11.1c1.8,0.5,2.3,1.3,2.8,2c0.4,1.2,1.6,2,2.9,2h1.8c1.3,0,2.4-0.8,2.9-2c0.5-0.7,1-1.4,2.8-2 C80.7,102.6,71.4,92.9,71.4,92.9z"></path> <g id="XMLID_33_"> <path id="XMLID_35_" d="M69.4,105.1c0,0,1.1-4,3.1-3c1.5,0.7,0.4,1.8-0.2,2c-0.5,0.2-1.1,0-1.1,0L69.4,105.1z"></path> <path id="XMLID_34_" d="M60.6,105.1c0,0-1.1-4-3.1-3c-1.5,0.7-0.4,1.8,0.2,2c0.5,0.2,1.1,0,1.1,0L60.6,105.1z"></path> </g> <path id="XMLID_32_" class="st13" d="M68,103.1c0,1.4-1.3,2.6-3,2.6l0,0c-1.6,0-3-1.1-3-2.6v-1.7c0-1.4,1.3-2.6,3-2.6l0,0 c1.6,0,3,1.1,3,2.6V103.1z"></path> <path id="XMLID_28_" class="st14" d="M106.8,70.6c0,0-3.4,0.3-6.5-1.3c-3.3-1.6-23.1-1.6-28.4,0.5c-0.5,0.2-1,0.4-1.5,0.5 c-1.5,0.6-3.3,0.9-5.4,0.9c-2,0-3.9-0.3-5.4-0.9c-0.5-0.1-1-0.3-1.5-0.5c-5.3-2.1-25.1-2-28.4-0.4c-3.1,1.5-6.5,1.3-6.5,1.3 s0,3.3,0,5c5.3,0.1,4.4,11.8,6.3,13.5c1.8,1.8,23.9,2.6,27.3-0.8s4.3-13.8,7.7-14.3c0.5-0.1,0.5-0.1,1.1,0 c3.5,0.5,4.4,10.9,7.8,14.3s25.4,2.5,27.3,0.8c1.8-1.8,1-13.4,6.3-13.5C106.8,73.9,106.8,70.6,106.8,70.6z M59.1,75.8 c0,0-2.3,10.9-5,12.4s-15.2,2.3-20.3,0.4c-5.2-1.9-4.6-13.4-4.6-15.3s3.4-2.8,3.4-2.8s21.5-1,24.1,0.7 C59.2,72.9,59.1,75.8,59.1,75.8z M96.3,88.5c-5.2,1.9-17.7,1.1-20.3-0.4c-2.7-1.5-5-12.4-5-12.4s-0.2-2.8,2.4-4.5 s24.1-0.7,24.1-0.7s3.4,0.9,3.4,2.8S101.5,86.6,96.3,88.5z"></path> <path id="XMLID_21_" class="st3" d="M58,0.6c-1.4,0.9-23.1,12.4-23.1,12.4l4.4,6.2L58,0.6z"></path> </g> <path id="XMLID_54_" class="st3" d="M109.1,41.3c-3-15.1-11.5-23.5-11.5-23.5S87.8,2.9,73.4,5.6c-14.3,2.7-7.2-2.3-7.2-2.3 S53.8,5.9,51.8,6.8C49.8,7.6,34.9,12,29,17.5c-7.5,7-10.1,21.6-10.7,24S17.8,54.6,18,56.3s6.2,36,6.2,36l3.2-0.8 c0,0,0.2-29.8,5.2-34.5c-0.7-4.6-10-28,26.4-30.7c2.3,0.7,4.4,1.9,5.8,3.8c0.1-0.1,0.1-0.2,0.2-0.3c0.1,0.1,0.1,0.2,0.2,0.3 c1.5-2.1,4-3.3,6.6-4C110.6,28,99.5,57,99.5,57s9,19,6.2,35.5c0.9,0.1,1.2,0.1,1.2,0.1s3.6-36.6,3.6-38.6 C110.4,52,109.6,43.7,109.1,41.3z"></path>
</g>
<g id="cicatriz"> <polygon class="st15" points="98.9,41.9 94.9,41.9 94.9,39.5 92.7,39.5 92.7,41.9 87.8,41.9 87.8,39.5 85.5,39.5 85.5,41.9 80.7,41.9 80.7,39.5 78.4,39.5 78.4,41.9 73.5,41.9 73.5,39.5 71.3,39.5 71.3,41.9 66.4,41.9 66.4,39.5 64.2,39.5 64.2,41.9 59.3,41.9 59.3,39.5 57,39.5 57,41.9 52.2,41.9 52.2,39.5 49.9,39.5 49.9,41.9 45,41.9 45,39.5 42.8,39.5 42.8,41.9 37.9,41.9 37.9,39.5 35.7,39.5 35.7,41.9 31.6,41.9 31.6,44 35.7,44 35.7,46.7 37.9,46.7 37.9,44 42.8,44 42.8,46.7 45,46.7 45,44 49.9,44 49.9,46.7 52.2,46.7 52.2,44 57,44 57,46.7 59.3,46.7 59.3,44 64.2,44 64.2,46.7 66.4,46.7 66.4,44 71.3,44 71.3,46.7 73.5,46.7 73.5,44 78.4,44 78.4,46.7 80.7,46.7 80.7,44 85.5,44 85.5,46.7 87.8,46.7 87.8,44 92.7,44 92.7,46.7 94.9,46.7 94.9,44 98.9,44 "></polygon>
</g>
</svg>
