<?xml version="1.0"?>

<svg width="86" height="19" viewBox="0 0 86 19" version="1.1" xmlns="http://www.w3.org/2000/svg" xmlns:xlink="http://www.w3.org/1999/xlink">  <title>desigual</title> <desc>Created with Sketch.</desc> <defs></defs> <g id="Page-1" stroke="none" stroke-width="1" fill="none" fill-rule="evenodd"> <path d="M36.412,11.673 C36.308,14.682 33.692,15.533 31.14,15.533 C28.711,15.533 25.97,14.578 25.97,11.693 C25.97,10.8 26.531,9.223 28.711,8.788 C30.33,8.434 32.696,8.248 32.696,7.23 C32.696,6.483 31.762,6.421 31.181,6.421 C30.745,6.421 30.35,6.504 30.06,6.691 C29.769,6.878 29.603,7.167 29.603,7.624 L26.345,7.624 C26.468,4.822 28.939,4.137 31.306,4.137 C33.423,4.137 36.224,4.843 36.224,7.438 C36.224,10.343 33.443,10.407 31.223,10.967 C30.599,11.112 29.499,11.278 29.499,12.108 C29.499,12.96 30.474,13.249 31.16,13.249 C31.658,13.249 32.136,13.126 32.468,12.877 C32.821,12.606 33.049,12.212 33.049,11.673 L36.412,11.673 Z M75.811,15.222 L79.339,15.222 L79.339,0.402 L75.811,0.402 L75.811,15.222 Z M68.085,7.77 L64.785,7.77 C64.846,6.359 65.512,5.446 66.466,4.885 C67.422,4.345 68.667,4.137 69.891,4.137 C72.444,4.137 74.914,4.698 74.914,7.749 L74.914,12.46 C74.914,13.375 74.914,14.371 75.329,15.221 L71.78,15.221 C71.656,14.889 71.613,14.557 71.572,14.205 C70.659,15.16 69.31,15.533 68.022,15.533 C65.968,15.533 64.349,14.495 64.349,12.274 C64.349,8.766 68.169,9.036 70.618,8.537 C71.22,8.414 71.551,8.207 71.551,7.541 C71.551,6.732 70.576,6.421 69.849,6.421 C68.874,6.421 68.252,6.857 68.085,7.77 L68.085,7.77 Z M67.878,12.129 C67.878,13 68.562,13.354 69.351,13.354 C71.032,13.354 71.593,12.399 71.51,10.177 C71.011,10.489 70.099,10.551 69.331,10.759 C68.542,10.945 67.878,11.278 67.878,12.129 L67.878,12.129 Z M63.81,4.449 L63.81,15.221 L60.386,15.221 L60.386,13.748 C59.679,14.848 58.31,15.533 57.064,15.533 C53.971,15.533 53.079,13.748 53.079,10.925 L53.079,4.449 L56.607,4.449 L56.607,10.697 C56.607,12.129 57.23,12.626 58.351,12.626 C59.119,12.626 60.281,12.129 60.281,10.219 L60.281,4.449 L63.81,4.449 Z M52.293,4.449 L52.293,13.915 C52.293,15.678 51.96,19 46.917,19 C44.405,19 42.038,18.439 41.623,15.554 L45.152,15.554 C45.235,16.032 45.422,16.322 45.754,16.488 C46.066,16.654 46.501,16.716 47.042,16.716 C48.721,16.716 48.889,15.533 48.889,14.205 L48.889,13.187 C48.203,14.184 47.124,14.764 45.982,14.764 C42.724,14.764 41.25,12.44 41.25,9.41 C41.25,6.545 42.931,4.137 45.982,4.137 C47.269,4.137 48.245,4.698 48.868,5.799 L48.909,4.449 L52.293,4.449 Z M48.951,9.555 C48.951,8.184 48.411,6.835 46.834,6.835 C45.276,6.835 44.778,8.207 44.778,9.535 C44.778,10.8 45.359,12.067 46.813,12.067 C48.308,12.067 48.951,10.904 48.951,9.555 L48.951,9.555 Z M37.104,3.1 L40.633,3.1 L40.633,0.401 L37.104,0.401 L37.104,3.1 Z M37.105,15.222 L40.633,15.222 L40.633,4.449 L37.105,4.449 L37.105,15.222 Z M25.543,10.697 L17.635,10.697 C17.697,12.17 18.548,13.145 20.042,13.145 C20.892,13.145 21.724,12.752 22.055,11.963 L25.356,11.963 C24.712,14.454 22.409,15.533 20.001,15.533 C16.493,15.533 14.106,13.416 14.106,9.804 C14.106,6.504 16.741,4.137 19.918,4.137 C23.778,4.137 25.709,7.044 25.543,10.697 L25.543,10.697 Z M17.635,8.725 L22.013,8.725 C21.952,7.521 21.101,6.524 19.918,6.524 C18.673,6.524 17.842,7.417 17.635,8.725 L17.635,8.725 Z M82.058,12.005 L82.058,12.725 L82.673,12.725 C82.924,12.725 83.058,12.617 83.058,12.36 C83.058,12.113 82.924,12.005 82.673,12.005 L82.058,12.005 Z M81.495,14.124 L81.495,11.57 L82.873,11.57 C83.331,11.57 83.621,11.888 83.621,12.274 C83.621,12.575 83.499,12.799 83.217,12.915 C83.492,12.992 83.57,13.261 83.589,13.519 C83.6,13.68 83.596,13.98 83.696,14.124 L83.135,14.124 C83.066,13.962 83.074,13.715 83.045,13.512 C83.005,13.244 82.901,13.126 82.619,13.126 L82.058,13.126 L82.058,14.124 L81.495,14.124 Z M80,12.846 C80,11.455 81.129,10.327 82.519,10.327 C83.911,10.327 85.04,11.455 85.04,12.846 C85.04,14.238 83.911,15.366 82.519,15.366 C81.129,15.366 80,14.238 80,12.846 L80,12.846 Z M80.58,12.846 C80.58,13.918 81.448,14.787 82.519,14.787 C83.592,14.787 84.46,13.918 84.46,12.846 C84.46,11.775 83.592,10.906 82.519,10.906 C81.448,10.906 80.58,11.775 80.58,12.846 L80.58,12.846 Z M0,15.219 L0,0.399 L6.372,0.399 C10.918,0.399 13.636,3.16 13.636,7.747 C13.636,12.604 10.877,15.219 6.372,15.219 L0,15.219 Z M3.861,3.72 L3.861,11.899 L5.687,11.899 C8.614,11.837 9.776,10.695 9.776,7.727 C9.776,5.028 8.323,3.72 5.687,3.72 L3.861,3.72 L3.861,3.72 Z" id="desigual" fill="#1A1919"></path> </g>
</svg>