<svg id="Capa_1" data-name="Capa 1" height="150" width="200" xmlns="http://www.w3.org/2000/svg" viewBox="0 0 186.84 47.4"><defs><style>.cls-1{fill:#fff;}</style></defs><title>logo</title><path class="cls-1" d="M40.75,53.25a23.7,23.7,0,0,0-9.15-1.8,23.16,23.16,0,0,0-9.15,1.8,17.61,17.61,0,0,0-4,2.25l26.1-.3A12.8,12.8,0,0,0,40.75,53.25ZM41,75.15a10.31,10.31,0,0,1-.75,3.6,8.08,8.08,0,0,1-1.05,1.95l15.45-.15a19,19,0,0,0,.6-5.1C55.3,75.3,41.05,75.15,41,75.15Zm0,0a10.31,10.31,0,0,1-.75,3.6,8.08,8.08,0,0,1-1.05,1.95l15.45-.15a19,19,0,0,0,.6-5.1C55.3,75.3,41.05,75.15,41,75.15ZM54.4,69l-15.75-.15A14.86,14.86,0,0,1,40.3,71.4,8.88,8.88,0,0,1,41,74.25L55.3,74.1A27.86,27.86,0,0,0,54.4,69ZM41,75.15a10.31,10.31,0,0,1-.75,3.6,8.08,8.08,0,0,1-1.05,1.95l15.45-.15a19,19,0,0,0,.6-5.1C55.3,75.3,41.05,75.15,41,75.15ZM54.4,69l-15.75-.15A14.86,14.86,0,0,1,40.3,71.4,8.88,8.88,0,0,1,41,74.25L55.3,74.1A27.86,27.86,0,0,0,54.4,69ZM41,75.15a10.31,10.31,0,0,1-.75,3.6,8.08,8.08,0,0,1-1.05,1.95l15.45-.15a19,19,0,0,0,.6-5.1C55.3,75.3,41.05,75.15,41,75.15ZM54.4,69l-15.75-.15A14.86,14.86,0,0,1,40.3,71.4,8.88,8.88,0,0,1,41,74.25L55.3,74.1A27.86,27.86,0,0,0,54.4,69ZM41,75.15a10.31,10.31,0,0,1-.75,3.6,8.08,8.08,0,0,1-1.05,1.95l15.45-.15a19,19,0,0,0,.6-5.1C55.3,75.3,41.05,75.15,41,75.15ZM54.4,69l-15.75-.15A14.86,14.86,0,0,1,40.3,71.4,8.88,8.88,0,0,1,41,74.25L55.3,74.1A27.86,27.86,0,0,0,54.4,69ZM41,75.15a10.31,10.31,0,0,1-.75,3.6,8.08,8.08,0,0,1-1.05,1.95l15.45-.15a19,19,0,0,0,.6-5.1C55.3,75.3,41.05,75.15,41,75.15ZM54.4,69l-15.75-.15A14.86,14.86,0,0,1,40.3,71.4,8.88,8.88,0,0,1,41,74.25L55.3,74.1A27.86,27.86,0,0,0,54.4,69ZM41,75.15a10.31,10.31,0,0,1-.75,3.6,8.08,8.08,0,0,1-1.05,1.95l15.45-.15a19,19,0,0,0,.6-5.1C55.3,75.3,41.05,75.15,41,75.15ZM54.4,69l-15.75-.15A14.86,14.86,0,0,1,40.3,71.4,8.88,8.88,0,0,1,41,74.25L55.3,74.1A27.86,27.86,0,0,0,54.4,69ZM41,75.15a10.31,10.31,0,0,1-.75,3.6,8.08,8.08,0,0,1-1.05,1.95l15.45-.15a19,19,0,0,0,.6-5.1C55.3,75.3,41.05,75.15,41,75.15ZM54.4,69l-15.75-.15A14.86,14.86,0,0,1,40.3,71.4,8.88,8.88,0,0,1,41,74.25L55.3,74.1A27.86,27.86,0,0,0,54.4,69ZM41,75.15a10.31,10.31,0,0,1-.75,3.6,8.08,8.08,0,0,1-1.05,1.95l15.45-.15a19,19,0,0,0,.6-5.1C55.3,75.3,41.05,75.15,41,75.15ZM54.4,69l-15.75-.15A14.86,14.86,0,0,1,40.3,71.4,8.88,8.88,0,0,1,41,74.25L55.3,74.1A27.86,27.86,0,0,0,54.4,69ZM41,75.15a10.31,10.31,0,0,1-.75,3.6,8.08,8.08,0,0,1-1.05,1.95l15.45-.15a19,19,0,0,0,.6-5.1C55.3,75.3,41.05,75.15,41,75.15ZM54.4,69l-15.75-.15A14.86,14.86,0,0,1,40.3,71.4,8.88,8.88,0,0,1,41,74.25L55.3,74.1A27.86,27.86,0,0,0,54.4,69ZM41,75.15a10.31,10.31,0,0,1-.75,3.6,8.08,8.08,0,0,1-1.05,1.95l15.45-.15a19,19,0,0,0,.6-5.1C55.3,75.3,41.05,75.15,41,75.15ZM54.4,69l-15.75-.15A14.86,14.86,0,0,1,40.3,71.4,8.88,8.88,0,0,1,41,74.25L55.3,74.1A27.86,27.86,0,0,0,54.4,69ZM41,75.15a10.31,10.31,0,0,1-.75,3.6,8.08,8.08,0,0,1-1.05,1.95l15.45-.15a19,19,0,0,0,.6-5.1C55.3,75.3,41.05,75.15,41,75.15ZM54.4,69l-15.75-.15A14.86,14.86,0,0,1,40.3,71.4,8.88,8.88,0,0,1,41,74.25L55.3,74.1A27.86,27.86,0,0,0,54.4,69ZM38.5,81.45l-0.3.3a10.77,10.77,0,0,1-3,2.1,9.75,9.75,0,0,1-7.5,0,8.37,8.37,0,0,1-3-2.1l-0.45-.45L8.65,81a25.85,25.85,0,0,0,1,3.15,31.74,31.74,0,0,0,1.65,3.15l40.8-.6c0.45-.75.9-1.65,1.35-2.55,0.3-.9.6-1.65,0.9-2.55Zm-15.6-2.7A10.44,10.44,0,0,1,22.15,75V74.85L7.9,74.7V75a26.29,26.29,0,0,0,.75,6l15.45-.15A15,15,0,0,1,22.9,78.75Zm30.45-12.9a22.58,22.58,0,0,0-1.65-3.3L11.8,62A30.19,30.19,0,0,0,9.7,65.7c-0.3.9-.6,1.8-0.9,2.55L25,68.1a8.51,8.51,0,0,1,2.7-1.8,9.75,9.75,0,0,1,7.5,0A9.29,9.29,0,0,1,37.75,68l16.2-.15A4.25,4.25,0,0,0,53.35,65.85ZM7.9,74.7l14.25-.15a8.06,8.06,0,0,1,.75-3.15,8.51,8.51,0,0,1,1.8-2.7L8.8,68.4A21.32,21.32,0,0,0,7.9,74.7ZM54.4,69l-15.75-.15A14.86,14.86,0,0,1,40.3,71.4,8.88,8.88,0,0,1,41,74.25L55.3,74.1A27.86,27.86,0,0,0,54.4,69ZM41,75.15a10.31,10.31,0,0,1-.75,3.6,8.08,8.08,0,0,1-1.05,1.95l15.45-.15a19,19,0,0,0,.6-5.1C55.3,75.3,41.05,75.15,41,75.15ZM54.4,69l-15.75-.15A14.86,14.86,0,0,1,40.3,71.4,8.88,8.88,0,0,1,41,74.25L55.3,74.1A27.86,27.86,0,0,0,54.4,69ZM41,75.15a10.31,10.31,0,0,1-.75,3.6,8.08,8.08,0,0,1-1.05,1.95l15.45-.15a19,19,0,0,0,.6-5.1C55.3,75.3,41.05,75.15,41,75.15ZM54.4,69l-15.75-.15A14.86,14.86,0,0,1,40.3,71.4,8.88,8.88,0,0,1,41,74.25L55.3,74.1A27.86,27.86,0,0,0,54.4,69ZM41,75.15a10.31,10.31,0,0,1-.75,3.6,8.08,8.08,0,0,1-1.05,1.95l15.45-.15a19,19,0,0,0,.6-5.1C55.3,75.3,41.05,75.15,41,75.15ZM54.4,69l-15.75-.15A14.86,14.86,0,0,1,40.3,71.4,8.88,8.88,0,0,1,41,74.25L55.3,74.1A27.86,27.86,0,0,0,54.4,69ZM41,75.15a10.31,10.31,0,0,1-.75,3.6,8.08,8.08,0,0,1-1.05,1.95l15.45-.15a19,19,0,0,0,.6-5.1C55.3,75.3,41.05,75.15,41,75.15ZM54.4,69l-15.75-.15A14.86,14.86,0,0,1,40.3,71.4,8.88,8.88,0,0,1,41,74.25L55.3,74.1A27.86,27.86,0,0,0,54.4,69ZM41,75.15a10.31,10.31,0,0,1-.75,3.6,8.08,8.08,0,0,1-1.05,1.95l15.45-.15a19,19,0,0,0,.6-5.1C55.3,75.3,41.05,75.15,41,75.15ZM54.4,69l-15.75-.15A14.86,14.86,0,0,1,40.3,71.4,8.88,8.88,0,0,1,41,74.25L55.3,74.1A27.86,27.86,0,0,0,54.4,69ZM41,75.15a10.31,10.31,0,0,1-.75,3.6,8.08,8.08,0,0,1-1.05,1.95l15.45-.15a19,19,0,0,0,.6-5.1C55.3,75.3,41.05,75.15,41,75.15ZM54.4,69l-15.75-.15A14.86,14.86,0,0,1,40.3,71.4,8.88,8.88,0,0,1,41,74.25L55.3,74.1A27.86,27.86,0,0,0,54.4,69ZM41,75.15a10.31,10.31,0,0,1-.75,3.6,8.08,8.08,0,0,1-1.05,1.95l15.45-.15a19,19,0,0,0,.6-5.1C55.3,75.3,41.05,75.15,41,75.15ZM54.4,69l-15.75-.15A14.86,14.86,0,0,1,40.3,71.4,8.88,8.88,0,0,1,41,74.25L55.3,74.1A27.86,27.86,0,0,0,54.4,69ZM41,75.15a10.31,10.31,0,0,1-.75,3.6,8.08,8.08,0,0,1-1.05,1.95l15.45-.15a19,19,0,0,0,.6-5.1C55.3,75.3,41.05,75.15,41,75.15ZM54.4,69l-15.75-.15A14.86,14.86,0,0,1,40.3,71.4,8.88,8.88,0,0,1,41,74.25L55.3,74.1A27.86,27.86,0,0,0,54.4,69ZM41,75.15a10.31,10.31,0,0,1-.75,3.6,8.08,8.08,0,0,1-1.05,1.95l15.45-.15a19,19,0,0,0,.6-5.1C55.3,75.3,41.05,75.15,41,75.15ZM54.4,69l-15.75-.15A14.86,14.86,0,0,1,40.3,71.4,8.88,8.88,0,0,1,41,74.25L55.3,74.1A27.86,27.86,0,0,0,54.4,69ZM41,75.15a10.31,10.31,0,0,1-.75,3.6,8.08,8.08,0,0,1-1.05,1.95l15.45-.15a19,19,0,0,0,.6-5.1C55.3,75.3,41.05,75.15,41,75.15ZM54.4,69l-15.75-.15A14.86,14.86,0,0,1,40.3,71.4,8.88,8.88,0,0,1,41,74.25L55.3,74.1A27.86,27.86,0,0,0,54.4,69ZM41,75.15a10.31,10.31,0,0,1-.75,3.6,8.08,8.08,0,0,1-1.05,1.95l15.45-.15a19,19,0,0,0,.6-5.1C55.3,75.3,41.05,75.15,41,75.15ZM17.35,93.9a28.49,28.49,0,0,0,5.1,3,23.7,23.7,0,0,0,9.15,1.8,23.16,23.16,0,0,0,9.15-1.8,21.88,21.88,0,0,0,4.5-2.55ZM11.5,87.45a23.12,23.12,0,0,0,3.45,4.35A12.1,12.1,0,0,0,17,93.6l29.7-.45a14.94,14.94,0,0,0,1.65-1.5,23.5,23.5,0,0,0,3-3.75C51.4,88.05,11.5,87.45,11.5,87.45ZM54.4,69l-15.75-.15A14.86,14.86,0,0,1,40.3,71.4,8.88,8.88,0,0,1,41,74.25L55.3,74.1A27.86,27.86,0,0,0,54.4,69ZM41,75.15a10.31,10.31,0,0,1-.75,3.6,8.08,8.08,0,0,1-1.05,1.95l15.45-.15a19,19,0,0,0,.6-5.1C55.3,75.3,41.05,75.15,41,75.15ZM54.4,69l-15.75-.15A14.86,14.86,0,0,1,40.3,71.4,8.88,8.88,0,0,1,41,74.25L55.3,74.1A27.86,27.86,0,0,0,54.4,69ZM41,75.15a10.31,10.31,0,0,1-.75,3.6,8.08,8.08,0,0,1-1.05,1.95l15.45-.15a19,19,0,0,0,.6-5.1C55.3,75.3,41.05,75.15,41,75.15Zm7.2-16.95a30,30,0,0,0-2.4-2.1L17.8,55.65a24.48,24.48,0,0,0-3,2.55,23.87,23.87,0,0,0-3,3.6l39-.6A21,21,0,0,0,48.25,58.2Zm-7.2,16.95a10.31,10.31,0,0,1-.75,3.6,8.08,8.08,0,0,1-1.05,1.95l15.45-.15a19,19,0,0,0,.6-5.1C55.3,75.3,41.05,75.15,41.05,75.15Zm15.3,19.2V97a21.64,21.64,0,0,0,3.6.75,26.73,26.73,0,0,0,3.9.6,45.72,45.72,0,0,0,4.8.3,21.73,21.73,0,0,0,7.35-1,13.6,13.6,0,0,0,4.8-2.85ZM84.1,79.2a20.15,20.15,0,0,0-1.8-3.6l-20.7-.3a8.57,8.57,0,0,0,1.2,1.05,21.93,21.93,0,0,0,3.15,2.4A15.94,15.94,0,0,1,67.6,80.1l16.8-.15A3.85,3.85,0,0,1,84.1,79.2ZM56.35,62.55c0,0.6-.15,1.05-0.15,1.65a22.47,22.47,0,0,0,.3,3.3l17.1-.3a1.56,1.56,0,0,1-.75-1.2,0.91,0.91,0,0,1,.45-0.9,1.3,1.3,0,0,1,.9-0.45,2.92,2.92,0,0,1,1.2-.15h2.4c0.45,0,.9.15,1.2,0.15s0.9,0.15,1.2.15V63Zm21-10.8c-0.9-.15-1.8-0.15-2.85-0.3a23.22,23.22,0,0,0-3.3-.15,18.39,18.39,0,0,0-5.85.9,16,16,0,0,0-4.8,2.4,0.57,0.57,0,0,0-.3.3l19.95-.3V52.2c-0.9-.15-1.8-0.3-2.85-0.45h0ZM58.9,56.25a13,13,0,0,0-1.5,2.4,12.76,12.76,0,0,0-.9,2.55l23.7-.3V56.55ZM79,71.85c-1.05-.9-2.1-1.8-2.85-2.55L76,69.15,57.1,69a0.52,0.52,0,0,0,.15.3,14.3,14.3,0,0,0,2.4,3.9l0.6,0.6,20.55-.3A18,18,0,0,1,79,71.85Zm5.85,10.2L69,81.9a1.9,1.9,0,0,1,.15.9q0,2.25-3.15,2.25a25.42,25.42,0,0,1-3.45-.15,16.82,16.82,0,0,1-3.15-.6,24,24,0,0,1-3.15-.75V86.7l28.5-.45c0-.6.15-1.2,0.15-1.95A5.68,5.68,0,0,0,84.85,82.05Zm-28.5,6V93l26.25-.3A11.36,11.36,0,0,0,84,90c0.15-.45.3-1.05,0.45-1.5C84.55,88.35,56.35,88.05,56.35,88.05Zm60.9-35.7h-9.9l-0.6,1.8,11.1-.15Zm-16.8,10.8L85.15,63l1.35,4.2,15.3-.15-1.35-3.9h0Zm18.3-6L105.85,57l-1.2,3.75,15.3-.15c-0.15-.15-1.2-3.45-1.2-3.45h0Zm2.1,6.3-17.1-.3-1.2,3.75,19.5-.3-1.2-3.15h0Zm-33.6,6,1.35,4.2,47.55-.6L137,70.2C137,70.05,87.25,69.45,87.25,69.45Zm26.7,19.35,1.2,3.45,14.7-.15,1-3Zm-22.5-6.6,1.35,4.05,18.75-.3,0.75-2.1L113,86l18.9-.3,0.9-3C132.85,82.8,91.45,82.2,91.45,82.2ZM116,95.25l0.75,2.25H128l0.75-2.1ZM95.65,95l0.9,2.55H107.8l0.75-2.4Zm-2.1-6.45,1.35,4.05,14.55-.15,1.2-3.6Zm-4.2-12.75L90.7,79.8,134,79.2l0.9-2.85Zm38.25-23.4-0.45,1.5,15.3-.15,0.45-1.35H127.6Zm-2.55,7.95,15.3-.15,0.9-2.7L126.1,57.3Zm-1,3.3-1,3.15,15.3-.15,0.9-2.85ZM98.35,56.85l-15.3-.15,1.35,4.35,15.15-.15A31.93,31.93,0,0,0,98.35,56.85Zm-1.5-4.5H81.55l0.75,2.1,15.15-.15-0.6-1.95h0Z" transform="translate(-7.9 -51.3)"/><path class="cls-1" d="M145.86,87.58L143.8,79.5h1.1l1,4.09c0.24,1,.46,2,0.6,2.79h0c0.13-.8.38-1.76,0.66-2.81l1.08-4.08h1.09l1,4.1c0.23,1,.44,1.92.56,2.77h0c0.17-.89.4-1.79,0.65-2.79l1.07-4.08h1.07l-2.29,8.08h-1.09l-1-4.21a24.14,24.14,0,0,1-.53-2.64h0a25.39,25.39,0,0,1-.62,2.64l-1.15,4.21h-1.09Z" transform="translate(-7.9 -51.3)"/><path class="cls-1" d="M154.84,84.87a1.86,1.86,0,0,0,2,2,3.81,3.81,0,0,0,1.61-.3l0.18,0.75a4.7,4.7,0,0,1-1.93.36,2.7,2.7,0,0,1-2.86-2.93c0-1.75,1-3.13,2.72-3.13a2.46,2.46,0,0,1,2.4,2.73,4,4,0,0,1,0,.49h-4.08Zm3.09-.75a1.5,1.5,0,0,0-1.46-1.72,1.75,1.75,0,0,0-1.62,1.72h3.08Z" transform="translate(-7.9 -51.3)"/><path class="cls-1" d="M160.86,84.87a1.86,1.86,0,0,0,2,2,3.81,3.81,0,0,0,1.61-.3l0.18,0.75a4.71,4.71,0,0,1-1.93.36,2.7,2.7,0,0,1-2.85-2.93c0-1.75,1-3.13,2.72-3.13a2.46,2.46,0,0,1,2.4,2.73,4,4,0,0,1,0,.49h-4.08Zm3.09-.75a1.5,1.5,0,0,0-1.46-1.72,1.75,1.75,0,0,0-1.62,1.72H164Z" transform="translate(-7.9 -51.3)"/><path class="cls-1" d="M167.32,84.44h0c0.14-.2.35-0.46,0.52-0.66l1.7-2h1.27l-2.24,2.39,2.55,3.42h-1.28l-2-2.78-0.54.6v2.18h-1V79.07h1v5.37Z" transform="translate(-7.9 -51.3)"/><path class="cls-1" d="M172.5,84.87a1.86,1.86,0,0,0,2,2,3.82,3.82,0,0,0,1.61-.3l0.18,0.75a4.69,4.69,0,0,1-1.93.36,2.7,2.7,0,0,1-2.85-2.93c0-1.75,1-3.13,2.72-3.13a2.46,2.46,0,0,1,2.4,2.73,4.05,4.05,0,0,1,0,.49H172.5Zm3.09-.75a1.5,1.5,0,0,0-1.46-1.72,1.75,1.75,0,0,0-1.62,1.72h3.08Z" transform="translate(-7.9 -51.3)"/><path class="cls-1" d="M177.92,83.35c0-.6,0-1.09,0-1.57h0.94l0.06,1h0a2.13,2.13,0,0,1,1.92-1.09c0.8,0,2.05.48,2.05,2.47v3.47h-1.05V84.24c0-.94-0.35-1.72-1.34-1.72A1.5,1.5,0,0,0,179,83.6a1.52,1.52,0,0,0-.07.49v3.49h-1.06V83.35Z" transform="translate(-7.9 -51.3)"/><path class="cls-1" d="M189.59,79.07v7c0,0.52,0,1.1,0,1.5h-0.95l0-1h0a2.15,2.15,0,0,1-2,1.14c-1.4,0-2.48-1.19-2.48-3,0-1.93,1.19-3.12,2.6-3.12a1.94,1.94,0,0,1,1.75.89h0V79.07h1.06Zm-1.06,5.07a1.9,1.9,0,0,0,0-.44A1.55,1.55,0,0,0,187,82.48c-1.09,0-1.74,1-1.74,2.24s0.58,2.15,1.72,2.15a1.59,1.59,0,0,0,1.55-1.26,1.88,1.88,0,0,0,0-.46v-1Z" transform="translate(-7.9 -51.3)"/><path class="cls-1" d="M191.2,86.51a2.78,2.78,0,0,0,1.39.42,0.94,0.94,0,0,0,1.13-.86c0-.5-0.3-0.78-1.08-1.07a1.86,1.86,0,0,1-1.54-1.64,1.79,1.79,0,0,1,2-1.7,2.91,2.91,0,0,1,1.43.36l-0.26.77a2.26,2.26,0,0,0-1.19-.34,0.85,0.85,0,0,0-1,.79c0,0.48.35,0.7,1.1,1A1.86,1.86,0,0,1,194.74,86c0,1-.79,1.74-2.17,1.74a3.31,3.31,0,0,1-1.63-.4Z" transform="translate(-7.9 -51.3)"/><path class="cls-1" d="M151.44,65.33c0,2.78-1.69,4.26-3.75,4.26s-3.63-1.66-3.63-4.1,1.6-4.25,3.75-4.25S151.44,62.94,151.44,65.33Zm-6.27.13c0,1.73.94,3.27,2.58,3.27s2.59-1.52,2.59-3.36c0-1.61-.84-3.29-2.58-3.29S145.17,63.69,145.17,65.47Z" transform="translate(-7.9 -51.3)"/><path class="cls-1" d="M152.77,65.55c0-.74,0-1.34,0-1.89h0.95l0,1h0a2.28,2.28,0,0,1,2.06-1.13c1.4,0,2.46,1.19,2.46,3,0,2.09-1.27,3.12-2.64,3.12a2,2,0,0,1-1.79-.91h0v3.15h-1V65.55Zm1,1.55a2.43,2.43,0,0,0,0,.43,1.63,1.63,0,0,0,1.58,1.24c1.12,0,1.76-.91,1.76-2.24a1.89,1.89,0,0,0-1.73-2.16,1.68,1.68,0,0,0-1.59,1.31,1.71,1.71,0,0,0-.07.43v1Z" transform="translate(-7.9 -51.3)"/><path class="cls-1" d="M160.18,66.75a1.86,1.86,0,0,0,2,2,3.82,3.82,0,0,0,1.61-.3L164,69.22a4.7,4.7,0,0,1-1.93.36,2.7,2.7,0,0,1-2.85-2.93c0-1.75,1-3.13,2.72-3.13a2.46,2.46,0,0,1,2.4,2.73,4,4,0,0,1,0,.49h-4.08Zm3.09-.75a1.5,1.5,0,0,0-1.46-1.72A1.75,1.75,0,0,0,160.2,66h3.08Z" transform="translate(-7.9 -51.3)"/><path class="cls-1" d="M165.61,65.23c0-.6,0-1.09,0-1.57h0.94l0.06,1h0a2.14,2.14,0,0,1,1.92-1.09c0.8,0,2.05.48,2.05,2.47v3.47h-1.05V66.11c0-.94-0.35-1.72-1.34-1.72a1.5,1.5,0,0,0-1.42,1.08,1.52,1.52,0,0,0-.07.49v3.49h-1.05V65.23Z" transform="translate(-7.9 -51.3)"/><path class="cls-1" d="M144.39,77.25a3.7,3.7,0,0,0,1.87.53A1.45,1.45,0,0,0,148,76.4c0-.76-0.43-1.19-1.52-1.61-1.32-.47-2.13-1.15-2.13-2.29a2.33,2.33,0,0,1,2.61-2.2,3.67,3.67,0,0,1,1.79.4l-0.29.85a3.21,3.21,0,0,0-1.54-.38,1.31,1.31,0,0,0-1.52,1.21c0,0.76.49,1.13,1.61,1.56,1.37,0.53,2.06,1.19,2.06,2.37s-0.92,2.33-2.83,2.33a4.18,4.18,0,0,1-2.06-.52Z" transform="translate(-7.9 -51.3)"/><path class="cls-1" d="M155.74,75.57a2.84,2.84,0,0,1-2.89,3.08,2.76,2.76,0,0,1-2.78-3,2.83,2.83,0,0,1,2.88-3.08A2.75,2.75,0,0,1,155.74,75.57Zm-4.61.06a1.81,1.81,0,1,0,3.53,0c0-1-.49-2.23-1.74-2.23S151.14,74.53,151.14,75.63Z" transform="translate(-7.9 -51.3)"/><path class="cls-1" d="M161.93,76.94c0,0.6,0,1.13,0,1.58H161L161,77.58h0A2.18,2.18,0,0,1,159,78.65c-0.91,0-2-.5-2-2.54V72.72h1.06v3.21c0,1.1.34,1.85,1.29,1.85a1.53,1.53,0,0,0,1.39-1,1.55,1.55,0,0,0,.1-0.54V72.72h1.06v4.22Z" transform="translate(-7.9 -51.3)"/><path class="cls-1" d="M163.69,74.53c0-.68,0-1.27,0-1.81h0.92l0,1.14h0a1.74,1.74,0,0,1,1.61-1.27,1.12,1.12,0,0,1,.3,0v1a1.56,1.56,0,0,0-.36,0,1.48,1.48,0,0,0-1.42,1.36,3,3,0,0,0,0,.49v3.1h-1v-4Z" transform="translate(-7.9 -51.3)"/><path class="cls-1" d="M171.63,78.31a3.9,3.9,0,0,1-1.67.34,2.76,2.76,0,0,1-2.89-3,3,3,0,0,1,3.12-3.08,3.54,3.54,0,0,1,1.46.3l-0.24.82a2.45,2.45,0,0,0-1.22-.28,2.19,2.19,0,0,0,0,4.37,3,3,0,0,0,1.3-.29Z" transform="translate(-7.9 -51.3)"/><path class="cls-1" d="M173.38,75.81a1.86,1.86,0,0,0,2,2,3.82,3.82,0,0,0,1.61-.3l0.18,0.75a4.7,4.7,0,0,1-1.93.36,2.7,2.7,0,0,1-2.85-2.93c0-1.75,1-3.13,2.72-3.13a2.46,2.46,0,0,1,2.4,2.73,4,4,0,0,1,0,.49h-4.08Zm3.09-.75A1.5,1.5,0,0,0,175,73.34a1.75,1.75,0,0,0-1.62,1.72h3.08Z" transform="translate(-7.9 -51.3)"/></svg>