<?xml version="1.0" encoding="utf-8"?>
<!-- Generator: Adobe Illustrator 19.2.0, SVG Export Plug-In . SVG Version: 6.00 Build 0)  -->
<svg version="1.1" id="Capa_1" xmlns="http://www.w3.org/2000/svg" xmlns:xlink="http://www.w3.org/1999/xlink" x="0px" y="0px"
	 viewBox="0 0 400 400" style="enable-background:new 0 0 400 400;" xml:space="preserve">
<style type="text/css">
	.st0{fill:#FFFFFF;}
</style>
<path class="st0" d="M248.6,114.3V220c0,7.5-3.8,14.6-10,18.9c-6.2-4.2-10-11.4-10-18.9V114.3h-57.2V220c0,7.5-3.8,14.6-10,18.9
	c-6.2-4.2-10-11.4-10-18.9V114.3H94.3V220c0,29.9,24.4,54.3,54.3,54.3h25.7c8.9,0,17.8-2.3,25.7-6.5c7.9,4.2,16.8,6.5,25.7,6.5h25.7
	c30,0,54.3-24.4,54.3-54.3V114.3H248.6L248.6,114.3z M178.7,265.2l6.1,2.2c-1.2,0.3-2.5,0.5-3.8,0.7l-4.4-1.6
	C177.4,266.1,178.1,265.6,178.7,265.2L178.7,265.2z M180.5,264c0.6-0.5,1.3-0.9,1.9-1.4l8.5,3.1c-1,0.4-2,0.7-3,1L180.5,264
	L180.5,264z M183.8,261.3c0.6-0.5,1.1-0.9,1.7-1.4l10.3,3.7c-0.8,0.4-1.7,0.8-2.5,1.1L183.8,261.3z M186.8,258.5
	c0.5-0.5,1-1,1.5-1.5l11.7,4.2c-0.7,0.4-1.4,0.9-2.2,1.3L186.8,258.5z M189.5,255.6c0.5-0.5,0.9-1.1,1.3-1.6l12.8,4.7
	c-0.6,0.5-1.2,0.9-1.9,1.4L189.5,255.6L189.5,255.6z M205.2,257.4l-13.3-4.8c0.4-0.6,0.8-1.1,1.2-1.6l13.8,5
	C206.4,256.5,205.8,257,205.2,257.4z M208.3,254.7l-14.2-5.2c0.4-0.6,0.7-1.1,1-1.7l14.6,5.3C209.3,253.7,208.8,254.2,208.3,254.7
	L208.3,254.7z M211.1,251.8l-15-5.5c0.3-0.6,0.6-1.1,0.9-1.7l15.4,5.6C211.9,250.7,211.5,251.3,211.1,251.8L211.1,251.8z
	 M213.4,248.8l-15.7-5.7c0.3-0.6,0.6-1.2,0.8-1.8l16.1,5.8C214.2,247.7,213.8,248.2,213.4,248.8L213.4,248.8z M215.5,245.7l-16.4-6
	c0.2-0.6,0.5-1.2,0.7-1.8l16.7,6.1C216.2,244.5,215.9,245.1,215.5,245.7L215.5,245.7z M220,242.2l-0.2-0.1h-0.1c-0.1,0-0.2,0-0.4,0
	h-0.1c-0.2,0-0.3,0-0.6,0.1c-0.1,0-0.3,0.1-0.4,0.1c-0.2,0.1-0.3,0.1-0.5,0.3l-17.4-6.3c0.2-0.6,0.4-1.2,0.6-1.9l23.1,8.4
	C222.7,242.7,221.3,242.5,220,242.2L220,242.2z M228.7,242.7l-27.4-10c0.2-0.6,0.3-1.2,0.4-1.9l30.5,11.1
	C231.1,242.2,229.9,242.5,228.7,242.7L228.7,242.7z M202.9,219.5l20.9,7.6c0.2,0.8,0.4,1.6,0.7,2.3l-21.7-7.9c0-0.5,0.1-1,0.1-1.5
	V219.5L202.9,219.5z M207.3,120.1l15.6,5.7v2.1l-20-7.3v-0.5L207.3,120.1L207.3,120.1z M222.8,121.9v2.1l-10.6-3.9h5.7L222.8,121.9
	L222.8,121.9z M222.8,129.6v2.1l-20-7.3v-2.1L222.8,129.6L222.8,129.6z M222.8,133.5v2.1l-20-7.3v-2.1L222.8,133.5L222.8,133.5z
	 M222.8,137.4v2.1l-20-7.3v-2.1L222.8,137.4z M222.8,141.3v2.1l-20-7.3V134L222.8,141.3L222.8,141.3z M222.8,145.2v2l-20-7.3v-2.1
	L222.8,145.2L222.8,145.2z M222.8,149.1v2.1l-20-7.3v-2.1L222.8,149.1L222.8,149.1z M222.8,153v2.1l-20-7.3v-2.1L222.8,153
	L222.8,153z M222.8,156.8v2.1l-20-7.3v-2.1L222.8,156.8L222.8,156.8z M222.8,160.7v2.1l-20-7.3v-2L222.8,160.7L222.8,160.7z
	 M222.8,164.6v2.1l-20-7.3v-2.1L222.8,164.6L222.8,164.6z M222.8,168.5v2.1l-20-7.3v-2.1L222.8,168.5L222.8,168.5z M222.8,172.4v2.1
	l-20-7.3v-2.1L222.8,172.4z M222.8,176.3v2l-20-7.3V169L222.8,176.3L222.8,176.3z M222.8,180.2v2.1l-20-7.3v-2.1L222.8,180.2
	L222.8,180.2z M222.8,184.1l0,2.1l-20-7.3v-2.1L222.8,184.1L222.8,184.1z M222.8,187.9v2.1l-20-7.3v-2.1L222.8,187.9L222.8,187.9z
	 M222.8,191.8v2.1l-20-7.3v-2L222.8,191.8L222.8,191.8z M222.8,195.7v2.1l-20-7.3v-2.1L222.8,195.7L222.8,195.7z M222.8,199.6v2.1
	l-20-7.3v-2.1L222.8,199.6z M222.8,203.5v2.1l-20-7.3v-2.1L222.8,203.5L222.8,203.5z M222.8,207.4v2l-20-7.3v-2.1L222.8,207.4
	L222.8,207.4z M222.8,211.3v2.1l-20-7.3V204L222.8,211.3z M222.8,215.1v2.1l-20-7.3v-2.1L222.8,215.1L222.8,215.1z M222.8,219v1.4
	c0,0.2,0,0.4,0.1,0.7l-20-7.3v-2.1L222.8,219L222.8,219z M223,223c0.1,0.7,0.2,1.4,0.3,2.2l-20.5-7.5v-2L223,223L223,223z
	 M225.3,231.6c0.4,0.9,0.8,1.7,1.3,2.5l-24.1-8.8c0.1-0.6,0.1-1.3,0.2-2L225.3,231.6L225.3,231.6z M228.1,236.5c0.7,1,1.5,2,2.3,2.9
	l-28.4-10.3c0.1-0.7,0.2-1.3,0.3-2L228.1,236.5L228.1,236.5z M145.7,121.6v2l-9.9-3.6h5.7L145.7,121.6L145.7,121.6z M145.7,125.5
	v2.1l-20-7.3v-0.2h5.1L145.7,125.5L145.7,125.5z M145.7,129.4v2.1l-20-7.3v-2.1L145.7,129.4L145.7,129.4z M145.7,133.3v2.1l-20-7.3
	V126L145.7,133.3L145.7,133.3z M145.7,137.1v2.1l-20-7.3v-2L145.7,137.1L145.7,137.1z M145.7,141v2.1l-20-7.3v-2.1L145.7,141z
	 M145.7,144.9v2.1l-20-7.3v-2.1L145.7,144.9z M145.7,148.8v2.1l-20-7.3v-2.1L145.7,148.8L145.7,148.8z M145.7,152.7v2.1l-20-7.3
	v-2.1L145.7,152.7z M145.7,156.6v2l-20-7.3v-2.1L145.7,156.6L145.7,156.6z M145.7,160.5v2.1l-20-7.3v-2.1L145.7,160.5L145.7,160.5z
	 M145.7,164.4v2.1l-20-7.3v-2.1L145.7,164.4L145.7,164.4z M145.7,168.2v2.1l-20-7.3v-2L145.7,168.2L145.7,168.2z M145.7,172.1v2.1
	l-20-7.3v-2.1L145.7,172.1z M145.7,176v2.1l-20-7.3v-2.1L145.7,176L145.7,176z M145.7,179.9v2.1l-20-7.3v-2.1L145.7,179.9z
	 M145.7,183.8v2.1l-20-7.3v-2.1L145.7,183.8z M145.7,187.7v2l-20-7.3v-2.1L145.7,187.7L145.7,187.7z M145.7,191.6v2.1l-20-7.3v-2.1
	L145.7,191.6L145.7,191.6z M145.7,195.5v2.1l-20-7.3v-2.1L145.7,195.5L145.7,195.5z M145.7,199.3v2.1l-20-7.3v-2.1L145.7,199.3z
	 M145.7,203.2v2.1l-20-7.3v-2L145.7,203.2z M145.7,207.1v2.1l-20-7.3v-2.1L145.7,207.1z M145.7,211v2.1l-20-7.3v-2.1L145.7,211
	L145.7,211z M145.7,214.9v2.1l-20-7.3v-2.1L145.7,214.9L145.7,214.9z M145.7,218.8v1.7c0,0.1,0,0.3,0,0.4l-20-7.3v-2.1L145.7,218.8
	L145.7,218.8z M145.9,222.7c0.1,0.7,0.2,1.5,0.3,2.2l-20.4-7.4v-2.1L145.9,222.7L145.9,222.7z M146.6,226.9c0.2,0.8,0.4,1.6,0.7,2.3
	l-21.4-7.8c0-0.4-0.1-0.9-0.1-1.3v-0.8L146.6,226.9z M148.1,231.3c0.4,0.9,0.8,1.7,1.2,2.5l-22.9-8.3c-0.2-0.7-0.3-1.5-0.4-2.2
	L148.1,231.3L148.1,231.3z M150.8,236.2c0.7,1,1.4,2,2.2,2.9l-25-9.1c-0.4-0.8-0.7-1.6-1-2.4L150.8,236.2z M134.5,238l13.3,4.8
	C142.8,242.7,138.2,240.9,134.5,238L134.5,238z M152.1,242.6l-20.7-7.5c-0.8-0.9-1.5-1.8-2.1-2.8l26.3,9.6
	C154.4,242.1,153.3,242.4,152.1,242.6L152.1,242.6z M148.6,268.6c-26.8,0-48.6-21.8-48.6-48.6v-100h20v100
	c0,15.8,12.8,28.6,28.6,28.6c5,0,9.9-1.3,14.3-3.9l2.2-1.5c7.4-5.3,11.8-13.8,12-22.8V120.1h20v100c0,22.2-15,41.5-36.4,47
	C156.8,268.1,152.7,268.6,148.6,268.6L148.6,268.6z M172.9,268.6c0.6-0.3,1.2-0.7,1.8-1l2.5,0.9c-1,0.1-1.9,0.1-2.9,0.1L172.9,268.6
	L172.9,268.6z M225.7,268.6c-6.9,0-13.7-1.5-20-4.3c6-4.3,11.2-9.8,15-16.1c1.7,0.3,3.3,0.5,5,0.5c5,0,9.9-1.3,14.3-3.9l2.3-1.5
	c7.3-5.3,11.8-13.8,11.9-22.8V120.1h20v100c0,22.2-15,41.5-36.4,47C233.9,268.1,229.8,268.6,225.7,268.6L225.7,268.6z M251.4,268.6
	h-0.8l-0.4-0.1c0.8-0.4,1.5-0.8,2.3-1.2l3.2,1.2C254.4,268.5,252.9,268.6,251.4,268.6L251.4,268.6z M259.5,267.9l-5-1.8
	c0.7-0.4,1.4-0.9,2.1-1.3l6.6,2.4C261.9,267.5,260.7,267.7,259.5,267.9z M265.9,266.4l-7.8-2.8c0.6-0.5,1.2-0.9,1.8-1.4l8.8,3.2
	C267.9,265.7,266.9,266.1,265.9,266.4z M271.2,264.4l-9.7-3.5c0.6-0.5,1.1-1,1.6-1.5l10.5,3.8C272.8,263.6,272,264,271.2,264.4z
	 M275.6,262.1l-11.2-4.1c0.5-0.5,1-1,1.5-1.5l11.8,4.3C277,261.3,276.3,261.7,275.6,262.1L275.6,262.1z M279.5,259.7l-12.4-4.5
	c0.4-0.5,0.9-1.1,1.3-1.6l12.9,4.7C280.7,258.7,280.1,259.2,279.5,259.7z M282.9,257l-13.4-4.9c0.4-0.5,0.8-1.1,1.1-1.6l13.9,5
	C284,256,283.4,256.5,282.9,257L282.9,257z M285.9,254.2l-14.3-5.2c0.4-0.5,0.7-1.1,1-1.7l14.7,5.4
	C286.9,253.2,286.4,253.7,285.9,254.2L285.9,254.2z M288.6,251.3l-15.1-5.5c0.3-0.6,0.6-1.2,0.9-1.7l15.5,5.6
	C289.4,250.2,289,250.8,288.6,251.3L288.6,251.3z M290.9,248.3l-15.8-5.7c0.3-0.6,0.5-1.2,0.8-1.8l16.2,5.9
	C291.7,247.2,291.3,247.7,290.9,248.3L290.9,248.3z M293,245.1l-16.5-6c0.2-0.6,0.4-1.2,0.6-1.8l16.8,6.1
	C293.6,244,293.3,244.6,293,245.1L293,245.1z M294.8,241.9l-17.1-6.2c0.2-0.6,0.4-1.2,0.5-1.9l17.4,6.3
	C295.3,240.7,295.1,241.3,294.8,241.9L294.8,241.9z M296.3,238.6l-17.7-6.5c0.1-0.6,0.3-1.3,0.4-1.9l18,6.6
	C296.8,237.4,296.6,238,296.3,238.6L296.3,238.6z M297.6,235.1l-18.2-6.7c0.1-0.6,0.2-1.3,0.3-2l18.5,6.8
	C298,233.9,297.8,234.5,297.6,235.1L297.6,235.1z M298.6,231.6l-18.8-6.8c0.1-0.7,0.1-1.3,0.1-2l19.1,7
	C298.9,230.4,298.7,231,298.6,231.6L298.6,231.6z M299.3,228l-19.3-7c0-0.3,0-0.6,0-0.9v-1.1l19.6,7.1
	C299.5,226.7,299.4,227.4,299.3,228L299.3,228z M299.8,224.3l-19.8-7.2v-2l19.9,7.2C299.9,222.9,299.8,223.6,299.8,224.3
	L299.8,224.3z M300,220c0,0.1,0,0.3,0,0.4l-20-7.3v-2.1l20,7.3L300,220L300,220z M300,216.6l-20-7.3v-2.1l20,7.3V216.6L300,216.6z
	 M300,212.7l-20-7.3v-2.1l20,7.3V212.7z M300,208.8l-20-7.3v-2.1l20,7.3V208.8L300,208.8z M300,204.9l-20-7.3v-2.1l20,7.3V204.9
	L300,204.9z M300,201l-20-7.3v-2.1l20,7.3V201L300,201z M300,197.1l-20-7.3v-2.1l20,7.3V197.1z M300,193.3l-20-7.3v-2.1l20,7.3
	V193.3L300,193.3z M300,189.4l-20-7.3V180l20,7.3V189.4L300,189.4z M300,185.5l-20-7.3v-2.1l20,7.3V185.5L300,185.5z M300,181.6
	l-20-7.3v-2.1l20,7.3V181.6L300,181.6z M300,177.7l-20-7.3v-2.1l20,7.3V177.7L300,177.7z M300,173.8l-20-7.3v-2.1l20,7.3V173.8
	L300,173.8z M300,169.9l-20-7.3v-2.1l20,7.3V169.9z M300,166l-20-7.3v-2.1l20,7.3V166L300,166z M300,162.2l-20-7.3v-2l20,7.3V162.2
	L300,162.2z M300,158.3l-20-7.3v-2l20,7.3V158.3L300,158.3z M300,154.4l-20-7.3V145l20,7.3V154.4L300,154.4z M300,150.5l-20-7.3
	v-2.1l20,7.3V150.5L300,150.5z M300,146.6l-20-7.3v-2.1l20,7.3V146.6L300,146.6z M300,142.7l-20-7.3v-2.1l20,7.3V142.7z M300,138.8
	l-20-7.3v-2.1l20,7.3V138.8L300,138.8z M300,134.9l-20-7.3v-2.1l20,7.3V134.9L300,134.9z M300,131.1l-20-7.3v-2.1l20,7.3V131.1
	L300,131.1z M300,127.2l-19.5-7.1h5.7l13.9,5V127.2L300,127.2z M300,123.3l-8.9-3.2h5.7l3.2,1.2L300,123.3L300,123.3z"/>
</svg>
