<svg xmlns="http://www.w3.org/2000/svg" width="816" height="160" viewBox="0 0 816 160"><path d="M24.002 0L0 12.23v101.468h28.194V44.284l5.17-2.63L70.26 68.458 87.387 46.05 24.002 0zm70.87 46.05v69.413l-5.166 2.637-36.893-26.81L35.68 113.7l63.393 46.05 24-12.22V46.048h-28.2zm705.8 51.59c-1.08 3.342-3.733 5.11-7.37 5.11-3.635 0-6.287-1.768-7.37-5.11-.686-2.16-.883-4.125-.883-8.154 0-4.03.195-5.99.882-8.154 1.082-3.34 3.734-5.11 7.37-5.11s6.29 1.77 7.37 5.11c.687 2.163.883 4.125.883 8.154 0 4.03-.196 5.993-.883 8.155zm13.266-19.648c-2.75-8.646-10.61-13.363-20.635-13.363-10.023 0-17.883 4.715-20.634 13.36-1.083 3.44-1.575 6.78-1.575 11.495 0 4.717.492 8.057 1.573 11.496 2.75 8.648 10.61 13.363 20.633 13.363 10.025 0 17.885-4.715 20.636-13.362 1.08-3.44 1.573-6.78 1.573-11.495 0-4.715-.49-8.056-1.573-11.494zm-44.397-12.28h-12.184c-.688 0-1.08.294-1.277.982l-8.845 28.196h-.196l-9.237-28.196c-.197-.688-.59-.983-1.278-.983h-12.38c-.69 0-.983.395-.786.985l16.9 45.587c.196.59.59.983 1.18.983h10.806c.59 0 .984-.393 1.18-.982l16.902-45.586c.196-.59-.1-.983-.786-.983zM707.85 84.475h-15.72c-.396 0-.59-.196-.59-.59 0-1.472.194-2.553.49-3.536 1.08-3.244 4.03-5.21 7.96-5.21 3.93 0 6.877 1.966 7.958 5.208.294.982.49 2.063.49 3.536 0 .393-.196.59-.588.59zm-7.96-19.846c-10.12 0-17.685 4.912-20.437 13.46-.98 2.946-1.57 6.384-1.57 11.395 0 4.913.686 8.352 1.67 11.3 2.75 8.548 10.22 13.558 21.027 13.558 8.745 0 15.72-3.145 20.24-7.96.396-.392.396-.98-.096-1.373l-6.486-6.09c-.392-.492-.882-.394-1.375 0-2.75 2.553-6.19 4.224-10.907 4.224-4.913 0-8.55-2.162-9.826-6.288-.295-.786-.492-1.67-.59-2.653 0-.394.195-.59.59-.59h28.79c.688 0 1.08-.392 1.08-.983 0-8.056-.587-11.495-1.57-14.638-2.753-8.353-10.024-13.363-20.538-13.363zm-29.658 1.08h-11.79c-.592 0-.985.393-.985.983v27.312c0 5.207-2.554 8.647-7.27 8.647-4.816 0-7.272-3.538-7.272-8.647v-27.31c0-.59-.393-.984-.982-.984h-11.79c-.59 0-.982.395-.982.985V96.66c0 10.316 5.502 17.685 16.017 17.685 5.993 0 9.727-2.26 12.184-5.502h.096v3.44c0 .588.393.98.984.98h11.79c.59 0 .983-.392.983-.98v-45.59c0-.59-.394-.983-.984-.983zM619.444 46.45H608.34c-.59 0-.983.395-.983.983v42.05h-.49l-23.584-42.05c-.393-.687-.982-.983-1.67-.983h-11.79c-.59 0-.985.395-.985.983v64.845c0 .59.394.983.984.983h11.103c.59 0 .983-.393.983-.982V70.33h.492l23.68 41.95c.394.69.884.983 1.67.983h11.694c.59 0 .982-.393.982-.982V47.438c0-.588-.392-.983-.982-.983zm-71.616 38.022h-15.722c-.393 0-.59-.196-.59-.59 0-1.472.197-2.553.492-3.536 1.08-3.243 4.028-5.208 7.96-5.208 3.93 0 6.878 1.965 7.958 5.207.295.982.49 2.063.49 3.536 0 .393-.195.59-.588.59zm-7.96-19.846c-10.12 0-17.687 4.913-20.437 13.46-.982 2.947-1.57 6.385-1.57 11.396 0 4.913.69 8.352 1.67 11.3 2.752 8.548 10.22 13.558 21.03 13.558 8.743 0 15.72-3.145 20.24-7.96.392-.392.392-.98-.1-1.373l-6.484-6.09c-.393-.493-.885-.395-1.375 0-2.75 2.552-6.19 4.223-10.91 4.223-4.91 0-8.545-2.162-9.823-6.288-.296-.786-.492-1.67-.59-2.653 0-.394.197-.59.59-.59h28.79c.688 0 1.08-.392 1.08-.983 0-8.057-.588-11.496-1.57-14.64-2.752-8.352-10.024-13.362-20.538-13.362zM496.55 97.64c-1.08 3.342-3.634 5.11-7.27 5.11-3.733 0-6.29-1.768-7.37-5.11-.59-1.865-.885-3.93-.885-8.154 0-4.223.296-6.29.885-8.154 1.08-3.438 3.637-5.11 7.37-5.11 3.636 0 6.19 1.672 7.27 5.11.59 1.865.886 3.93.886 8.154 0 4.225-.295 6.29-.885 8.155zm13.66-51.187h-11.792c-.59 0-.982.395-.982.983v22.696h-.1c-2.26-3.242-6.19-5.503-12.478-5.503-7.958 0-13.658 3.83-16.114 11.396-1.18 3.732-1.67 7.27-1.67 13.46 0 6.092.49 9.726 1.67 13.46 2.456 7.467 8.156 11.397 16.114 11.397 6.288 0 10.218-2.26 12.478-5.502h.1v3.44c0 .59.393.98.982.98h11.792c.59 0 .983-.39.983-.98V47.436c0-.588-.394-.983-.983-.983zM447.928 97.64c-1.08 3.342-3.735 5.11-7.37 5.11-3.634 0-6.29-1.768-7.368-5.11-.69-2.16-.885-4.125-.885-8.154 0-4.03.196-5.99.885-8.154 1.08-3.34 3.734-5.11 7.368-5.11 3.635 0 6.29 1.77 7.37 5.11.688 2.163.885 4.125.885 8.154 0 4.03-.197 5.993-.885 8.155zm-7.37-33.01c-10.022 0-17.882 4.716-20.634 13.362-1.082 3.438-1.572 6.78-1.572 11.494 0 4.717.49 8.057 1.572 11.496 2.752 8.647 10.612 13.362 20.634 13.362s17.884-4.715 20.636-13.362c1.08-3.44 1.57-6.78 1.57-11.496 0-4.715-.49-8.056-1.57-11.494-2.752-8.646-10.614-13.363-20.636-13.363zm-29.856-18.177h-11.79c-.59 0-.982.395-.982.983v9.727c0 .59.392.982.982.982h11.79c.59 0 .982-.393.982-.982v-9.727c0-.588-.392-.983-.982-.983zm0 19.258h-11.79c-.59 0-.982.395-.982.985v45.587c0 .59.392.983.982.983h11.79c.59 0 .982-.393.982-.982V66.695c0-.59-.392-.983-.982-.983zm-36.83 10.514c3.44 0 5.502 1.277 7.566 4.126.393.49.883.59 1.474.196l8.548-5.6c.49-.394.49-.884.196-1.375-3.438-5.206-9.825-8.94-17.982-8.94-10.022 0-17.686 4.62-20.536 13.46-.982 2.85-1.474 6.386-1.474 11.397 0 5.012.492 8.548 1.474 11.397 2.85 8.844 10.514 13.46 20.536 13.46 8.157 0 14.544-3.734 17.982-8.94.295-.49.295-.982-.196-1.376l-8.548-5.6c-.59-.393-1.08-.294-1.474.197-2.064 2.85-4.127 4.127-7.567 4.127-3.634 0-6.286-1.67-7.37-5.11-.685-1.964-.882-4.223-.882-8.154 0-3.928.197-6.19.884-8.154 1.083-3.438 3.735-5.11 7.37-5.11zm-41.647 21.22c0 4.423-2.948 6.584-8.845 6.584-4.52 0-6.877-1.67-6.877-5.01 0-3.733 2.652-5.404 8.45-5.404h6.68c.395 0 .592.196.592.59v3.24zm-8.057-32.814c-7.86 0-13.66 1.867-17.69 4.716-.49.293-.588.786-.292 1.375l4.42 7.764c.296.49.787.59 1.28.197 2.258-1.67 5.796-3.045 10.61-3.045 7.566 0 9.73 2.063 9.73 6.484v1.767c0 .393-.198.59-.592.59h-8.45c-11.79 0-19.75 4.814-19.75 15.326 0 10.12 7.368 14.542 15.82 14.542 6.485 0 10.613-2.063 13.07-5.208h.098v3.145c0 .59.392.983.982.983h10.907c.59 0 .984-.393.984-.982V81.825c0-11.89-5.602-17.195-21.125-17.195zm-43.516 0c-6.09 0-10.12 2.455-12.282 5.403h-.096v-3.34c0-.59-.396-.982-.985-.982h-11.794c-.59 0-.982.395-.982.985v45.587c0 .59.393.983.982.983h11.792c.588 0 .984-.393.984-.982V84.968c0-5.208 2.75-8.647 7.465-8.647 4.912 0 7.37 3.44 7.37 8.648v27.314c0 .59.393.983.983.983h11.79c.59 0 .983-.393.983-.982v-29.97c0-10.412-5.7-17.683-16.214-17.683zM230.85 94.692c-1.08 3.34-3.242 5.11-7.075 5.11-3.734 0-5.896-1.77-7.074-5.11-.49-1.768-.785-3.732-.785-6.68 0-2.947.296-4.913.787-6.68 1.18-3.34 3.34-5.11 7.075-5.11 3.833 0 5.994 1.77 7.075 5.11.59 1.767.885 3.733.885 6.68 0 2.948-.295 4.912-.885 6.68zm13.66-28.982h-11.792c-.59 0-.983.394-.983.984v3.438h-.098c-2.065-3.34-6.192-5.503-12.185-5.503-7.862 0-13.46 3.93-15.918 11.495-1.08 3.438-1.573 6.777-1.573 11.887s.494 8.35 1.575 11.888c2.457 7.566 8.056 11.496 15.918 11.496 5.993 0 10.12-2.16 12.185-5.5h.098v4.026c0 6.976-2.948 10.513-9.53 10.513-3.736 0-6.88-1.473-9.827-4.128-.493-.49-.985-.49-1.475 0l-6.977 7.076c-.492.49-.492.982-.098 1.473 3.437 4.127 10.905 7.172 17.98 7.172 15.624 0 23.682-7.957 23.682-23.874v-41.46c0-.59-.395-.983-.983-.983zm-49.726-19h-12.88c-.608 0-1.013.393-1.013.98v64.625c0 .588.406.98 1.015.98h12.88c.61 0 1.014-.392 1.014-.98V47.688c0-.587-.406-.98-1.016-.98z" fill="#FFF" fill-rule="evenodd"/></svg>