<svg id="Capa_1" xmlns="http://www.w3.org/2000/svg" viewBox="0 0 400 400"><style>.st0{fill:#ea576e;}</style><path class="st0" d="M248.6 114.3V220c0 7.5-3.8 14.6-10 18.9-6.2-4.2-10-11.4-10-18.9V114.3h-57.2V220c0 7.5-3.8 14.6-10 18.9-6.2-4.2-10-11.4-10-18.9V114.3H94.3V220c0 29.9 24.4 54.3 54.3 54.3h25.7c8.9 0 17.8-2.3 25.7-6.5 7.9 4.2 16.8 6.5 25.7 6.5h25.7c30 0 54.3-24.4 54.3-54.3V114.3h-57.1zm-69.9 150.9l6.1 2.2c-1.2.3-2.5.5-3.8.7l-4.4-1.6c.8-.4 1.5-.9 2.1-1.3zm1.8-1.2c.6-.5 1.3-.9 1.9-1.4l8.5 3.1c-1 .4-2 .7-3 1l-7.4-2.7zm3.3-2.7c.6-.5 1.1-.9 1.7-1.4l10.3 3.7c-.8.4-1.7.8-2.5 1.1l-9.5-3.4zm3-2.8l1.5-1.5 11.7 4.2c-.7.4-1.4.9-2.2 1.3l-11-4zm2.7-2.9c.5-.5.9-1.1 1.3-1.6l12.8 4.7c-.6.5-1.2.9-1.9 1.4l-12.2-4.5zm15.7 1.8l-13.3-4.8c.4-.6.8-1.1 1.2-1.6l13.8 5c-.5.5-1.1 1-1.7 1.4zm3.1-2.7l-14.2-5.2c.4-.6.7-1.1 1-1.7l14.6 5.3c-.4.6-.9 1.1-1.4 1.6zm2.8-2.9l-15-5.5c.3-.6.6-1.1.9-1.7l15.4 5.6c-.5.5-.9 1.1-1.3 1.6zm2.3-3l-15.7-5.7c.3-.6.6-1.2.8-1.8l16.1 5.8c-.4.6-.8 1.1-1.2 1.7zm2.1-3.1l-16.4-6c.2-.6.5-1.2.7-1.8l16.7 6.1c-.3.5-.6 1.1-1 1.7zm4.5-3.5l-.2-.1h-.6c-.2 0-.3 0-.6.1-.1 0-.3.1-.4.1-.2.1-.3.1-.5.3l-17.4-6.3c.2-.6.4-1.2.6-1.9l23.1 8.4c-1.3-.1-2.7-.3-4-.6zm8.7.5l-27.4-10c.2-.6.3-1.2.4-1.9l30.5 11.1c-1.1.3-2.3.6-3.5.8zm-25.8-23.2l20.9 7.6c.2.8.4 1.6.7 2.3l-21.7-7.9c0-.5.1-1 .1-1.5v-.5zm4.4-99.4l15.6 5.7v2.1l-20-7.3v-.5h4.4zm15.5 1.8v2.1l-10.6-3.9h5.7l4.9 1.8zm0 7.7v2.1l-20-7.3v-2.1l20 7.3zm0 3.9v2.1l-20-7.3v-2.1l20 7.3zm0 3.9v2.1l-20-7.3v-2.1l20 7.3zm0 3.9v2.1l-20-7.3V134l20 7.3zm0 3.9v2l-20-7.3v-2.1l20 7.4zm0 3.9v2.1l-20-7.3v-2.1l20 7.3zm0 3.9v2.1l-20-7.3v-2.1l20 7.3zm0 3.8v2.1l-20-7.3v-2.1l20 7.3zm0 3.9v2.1l-20-7.3v-2l20 7.2zm0 3.9v2.1l-20-7.3v-2.1l20 7.3zm0 3.9v2.1l-20-7.3v-2.1l20 7.3zm0 3.9v2.1l-20-7.3v-2.1l20 7.3zm0 3.9v2l-20-7.3v-2l20 7.3zm0 3.9v2.1l-20-7.3v-2.1l20 7.3zm0 3.9v2.1l-20-7.3v-2.1l20 7.3zm0 3.8v2.1l-20-7.3v-2.1l20 7.3zm0 3.9v2.1l-20-7.3v-2l20 7.2zm0 3.9v2.1l-20-7.3v-2.1l20 7.3zm0 3.9v2.1l-20-7.3v-2.1l20 7.3zm0 3.9v2.1l-20-7.3v-2.1l20 7.3zm0 3.9v2l-20-7.3V200l20 7.4zm0 3.9v2.1l-20-7.3V204l20 7.3zm0 3.8v2.1l-20-7.3v-2.1l20 7.3zm0 3.9v1.4c0 .2 0 .4.1.7l-20-7.3v-2.1l19.9 7.3zm.2 4c.1.7.2 1.4.3 2.2l-20.5-7.5v-2L223 223zm2.3 8.6c.4.9.8 1.7 1.3 2.5l-24.1-8.8c.1-.6.1-1.3.2-2l22.6 8.3zm2.8 4.9c.7 1 1.5 2 2.3 2.9L202 229.1c.1-.7.2-1.3.3-2l25.8 9.4zm-82.4-114.9v2l-9.9-3.6h5.7l4.2 1.6zm0 3.9v2.1l-20-7.3v-.2h5.1l14.9 5.4zm0 3.9v2.1l-20-7.3v-2.1l20 7.3zm0 3.9v2.1l-20-7.3V126l20 7.3zm0 3.8v2.1l-20-7.3v-2l20 7.2zm0 3.9v2.1l-20-7.3v-2.1l20 7.3zm0 3.9v2.1l-20-7.3v-2.1l20 7.3zm0 3.9v2.1l-20-7.3v-2.1l20 7.3zm0 3.9v2.1l-20-7.3v-2.1l20 7.3zm0 3.9v2l-20-7.3v-2.1l20 7.4zm0 3.9v2.1l-20-7.3v-2.1l20 7.3zm0 3.9v2.1l-20-7.3v-2.1l20 7.3zm0 3.8v2.1l-20-7.3v-2l20 7.2zm0 3.9v2.1l-20-7.3v-2.1l20 7.3zm0 3.9v2.1l-20-7.3v-2.1l20 7.3zm0 3.9v2.1l-20-7.3v-2.1l20 7.3zm0 3.9v2.1l-20-7.3v-2.1l20 7.3zm0 3.9v2l-20-7.3v-2.1l20 7.4zm0 3.9v2.1l-20-7.3v-2.1l20 7.3zm0 3.9v2.1l-20-7.3v-2.1l20 7.3zm0 3.8v2.1l-20-7.3V192l20 7.3zm0 3.9v2.1l-20-7.3v-2l20 7.2zm0 3.9v2.1l-20-7.3v-2.1l20 7.3zm0 3.9v2.1l-20-7.3v-2.1l20 7.3zm0 3.9v2.1l-20-7.3v-2.1l20 7.3zm0 3.9v2.1l-20-7.3v-2.1l20 7.3zm.2 3.9c.1.7.2 1.5.3 2.2l-20.4-7.4v-2.1l20.1 7.3zm.7 4.2c.2.8.4 1.6.7 2.3l-21.4-7.8c0-.4-.1-.9-.1-1.3v-.8l20.8 7.6zm1.5 4.4c.4.9.8 1.7 1.2 2.5l-22.9-8.3c-.2-.7-.3-1.5-.4-2.2l22.1 8zm2.7 4.9c.7 1 1.4 2 2.2 2.9l-25-9.1c-.4-.8-.7-1.6-1-2.4l23.8 8.6zm-16.3 1.8l13.3 4.8c-5-.1-9.6-1.9-13.3-4.8zm17.6 4.6l-20.7-7.5c-.8-.9-1.5-1.8-2.1-2.8l26.3 9.6c-1.2.2-2.3.5-3.5.7zm-3.5 26c-26.8 0-48.6-21.8-48.6-48.6V120h20v100c0 15.8 12.8 28.6 28.6 28.6 5 0 9.9-1.3 14.3-3.9l2.2-1.5c7.4-5.3 11.8-13.8 12-22.8V120.1h20v100c0 22.2-15 41.5-36.4 47-3.9 1-8 1.5-12.1 1.5zm24.3 0c.6-.3 1.2-.7 1.8-1l2.5.9c-1 .1-1.9.1-2.9.1h-1.4zm52.8 0c-6.9 0-13.7-1.5-20-4.3 6-4.3 11.2-9.8 15-16.1 1.7.3 3.3.5 5 .5 5 0 9.9-1.3 14.3-3.9l2.3-1.5c7.3-5.3 11.8-13.8 11.9-22.8V120.1h20v100c0 22.2-15 41.5-36.4 47-3.9 1-8 1.5-12.1 1.5zm25.7 0h-.8l-.4-.1c.8-.4 1.5-.8 2.3-1.2l3.2 1.2c-1.3 0-2.8.1-4.3.1zm8.1-.7l-5-1.8c.7-.4 1.4-.9 2.1-1.3l6.6 2.4c-1.3.3-2.5.5-3.7.7zm6.4-1.5l-7.8-2.8c.6-.5 1.2-.9 1.8-1.4l8.8 3.2c-.8.3-1.8.7-2.8 1zm5.3-2l-9.7-3.5c.6-.5 1.1-1 1.6-1.5l10.5 3.8-2.4 1.2zm4.4-2.3l-11.2-4.1 1.5-1.5 11.8 4.3c-.7.5-1.4.9-2.1 1.3zm3.9-2.4l-12.4-4.5c.4-.5.9-1.1 1.3-1.6l12.9 4.7c-.6.4-1.2.9-1.8 1.4zm3.4-2.7l-13.4-4.9c.4-.5.8-1.1 1.1-1.6l13.9 5c-.5.5-1.1 1-1.6 1.5zm3-2.8l-14.3-5.2c.4-.5.7-1.1 1-1.7l14.7 5.4c-.4.5-.9 1-1.4 1.5zm2.7-2.9l-15.1-5.5c.3-.6.6-1.2.9-1.7l15.5 5.6c-.5.5-.9 1.1-1.3 1.6zm2.3-3l-15.8-5.7c.3-.6.5-1.2.8-1.8l16.2 5.9c-.4.5-.8 1-1.2 1.6zm2.1-3.2l-16.5-6 .6-1.8 16.8 6.1c-.3.6-.6 1.2-.9 1.7zm1.8-3.2l-17.1-6.2c.2-.6.4-1.2.5-1.9l17.4 6.3c-.3.6-.5 1.2-.8 1.8zm1.5-3.3l-17.7-6.5c.1-.6.3-1.3.4-1.9l18 6.6c-.2.6-.4 1.2-.7 1.8zm1.3-3.5l-18.2-6.7c.1-.6.2-1.3.3-2l18.5 6.8c-.2.7-.4 1.3-.6 1.9zm1-3.5l-18.8-6.8c.1-.7.1-1.3.1-2l19.1 7c-.1.6-.3 1.2-.4 1.8zm.7-3.6l-19.3-7v-2l19.6 7.1c-.1.6-.2 1.3-.3 1.9zm.5-3.7l-19.8-7.2v-2l19.9 7.2c0 .6-.1 1.3-.1 2zm.2-4.3v.4l-20-7.3V211l20 7.3v1.7zm0-3.4l-20-7.3v-2.1l20 7.3v2.1zm0-3.9l-20-7.3v-2.1l20 7.3v2.1zm0-3.9l-20-7.3v-2.1l20 7.3v2.1zm0-3.9l-20-7.3v-2.1l20 7.3v2.1zm0-3.9l-20-7.3v-2.1l20 7.3v2.1zm0-3.9l-20-7.3v-2.1l20 7.3v2.1zm0-3.8l-20-7.3v-2.1l20 7.3v2.1zm0-3.9l-20-7.3V180l20 7.3v2.1zm0-3.9l-20-7.3v-2.1l20 7.3v2.1zm0-3.9l-20-7.3v-2.1l20 7.3v2.1zm0-3.9l-20-7.3v-2.1l20 7.3v2.1zm0-3.9l-20-7.3v-2.1l20 7.3v2.1zm0-3.9l-20-7.3v-2.1l20 7.3v2.1zm0-3.9l-20-7.3v-2.1l20 7.3v2.1zm0-3.8l-20-7.3v-2l20 7.3v2zm0-3.9l-20-7.3v-2l20 7.3v2zm0-3.9l-20-7.3V145l20 7.3v2.1zm0-3.9l-20-7.3v-2.1l20 7.3v2.1zm0-3.9l-20-7.3v-2.1l20 7.3v2.1zm0-3.9l-20-7.3v-2.1l20 7.3v2.1zm0-3.9l-20-7.3v-2.1l20 7.3v2.1zm0-3.9l-20-7.3v-2.1l20 7.3v2.1zm0-3.8l-20-7.3v-2.1l20 7.3v2.1zm0-3.9l-19.5-7.1h5.7l13.9 5v2.1h-.1zm0-3.9l-8.9-3.2h5.7l3.2 1.2v2z"/></svg>